<svg width="328" height="176" viewBox="0 0 328 176" fill="none" xmlns="http://www.w3.org/2000/svg">
<rect x="190.5" y="1.5" width="122" height="47.8027" rx="8.5" fill="url(#paint0_linear_163_3607)"/>
<rect x="190.5" y="1.5" width="122" height="47.8027" rx="8.5" stroke="white" stroke-width="3"/>
<path d="M231.875 31.4013V28.7773H232.675V21.5773H231.875V18.9533H237.955V21.5773H237.155V28.7773H237.955V31.4013H231.875ZM242.449 31.6253C241.105 31.6253 239.809 31.412 238.561 30.9853V28.6173H241.153V28.7773C241.153 29.2893 241.479 29.5453 242.129 29.5453C242.705 29.5453 242.993 29.348 242.993 28.9533C242.993 28.74 242.908 28.58 242.737 28.4733C242.577 28.3667 242.289 28.276 241.873 28.2013L241.073 28.0573C239.399 27.7587 238.561 26.8093 238.561 25.2093C238.561 24.2813 238.913 23.5613 239.617 23.0493C240.321 22.5373 241.271 22.2813 242.465 22.2813C243.799 22.2813 244.924 22.5053 245.841 22.9533V25.1773H243.409V25.0173C243.409 24.804 243.335 24.644 243.185 24.5373C243.047 24.42 242.839 24.3613 242.561 24.3613C242.028 24.3613 241.761 24.532 241.761 24.8733C241.761 25.0547 241.836 25.1933 241.985 25.2893C242.135 25.3853 242.407 25.476 242.801 25.5613L243.713 25.7373C244.663 25.9187 245.34 26.2547 245.745 26.7453C246.151 27.236 246.353 27.8653 246.353 28.6333C246.353 29.604 246.012 30.3453 245.329 30.8573C244.657 31.3693 243.697 31.6253 242.449 31.6253ZM256.186 28.7773V31.4013H251.962V30.3133C251.728 30.6547 251.397 30.9587 250.97 31.2253C250.554 31.492 250.042 31.6253 249.434 31.6253C248.634 31.6253 248.005 31.412 247.546 30.9853C247.088 30.5587 246.858 29.956 246.858 29.1773C246.858 27.1613 248.57 26.1267 251.994 26.0733C251.962 25.7107 251.824 25.4653 251.578 25.3373C251.333 25.1987 250.917 25.1293 250.33 25.1293C249.85 25.1293 249.333 25.1827 248.778 25.2893C248.234 25.3853 247.733 25.5187 247.274 25.6893V22.7453C247.84 22.6067 248.453 22.4947 249.114 22.4093C249.776 22.324 250.421 22.2813 251.05 22.2813C252.64 22.2813 253.776 22.5693 254.458 23.1453C255.141 23.7213 255.482 24.612 255.482 25.8173V28.7773H256.186ZM251.962 27.6573C251.482 27.6573 251.109 27.7213 250.842 27.8493C250.586 27.9773 250.458 28.1907 250.458 28.4893C250.458 28.6707 250.512 28.82 250.618 28.9373C250.736 29.044 250.896 29.0973 251.098 29.0973C251.376 29.0973 251.589 28.98 251.738 28.7453C251.888 28.5107 251.962 28.18 251.962 27.7533V27.6573ZM256.702 31.4013V28.7773H257.406V25.1293H256.702V22.5053H261.086V28.7773H261.79V31.4013H256.702ZM255.71 21.3853V18.7133H258.382V21.3853H255.71ZM259.806 21.3853V18.7133H262.462V21.3853H259.806ZM267.001 31.6253C265.487 31.6253 264.303 31.2307 263.449 30.4413C262.596 29.6413 262.169 28.4787 262.169 26.9533C262.169 25.428 262.596 24.2707 263.449 23.4813C264.303 22.6813 265.487 22.2813 267.001 22.2813C268.505 22.2813 269.588 22.676 270.249 23.4653C270.921 24.244 271.257 25.2147 271.257 26.3773V27.5293H266.073V27.6253C266.073 28.02 266.191 28.3133 266.425 28.5053C266.66 28.6867 267.049 28.7773 267.593 28.7773C268.244 28.7773 268.863 28.7293 269.449 28.6333C270.036 28.5373 270.548 28.4147 270.985 28.2653V30.8253C270.612 31.028 270.063 31.2147 269.337 31.3853C268.623 31.5453 267.844 31.6253 267.001 31.6253ZM267.929 25.7693V25.5773C267.929 25.2147 267.849 24.9533 267.689 24.7933C267.54 24.6333 267.311 24.5533 267.001 24.5533C266.692 24.5533 266.457 24.6387 266.297 24.8093C266.148 24.9693 266.073 25.2253 266.073 25.5773V25.7693H267.929Z" fill="white"/>
<g filter="url(#filter0_d_163_3607)">
<mask id="path-3-inside-1_163_3607" fill="white">
<path d="M4 84C4 67.4315 17.4315 54 34 54H304.334C315.195 54 324 62.8048 324 73.6661C324 84.5275 315.195 93.3323 304.334 93.3323H4V84Z"/>
</mask>
<path d="M4 84C4 67.4315 17.4315 54 34 54H304.334C315.195 54 324 62.8048 324 73.6661C324 84.5275 315.195 93.3323 304.334 93.3323H4V84Z" fill="#F3E2C7"/>
<path d="M2 84C2 66.3269 16.3269 52 34 52H305.334C316.747 52 326 61.2525 326 72.6661L322 73.6661C322 63.9094 314.091 56 304.334 56H34C18.536 56 6 68.536 6 84H2ZM324 93.3323H4H324ZM2 93.3323V84C2 66.3269 16.3269 52 34 52V56C18.536 56 6 68.536 6 84V93.3323H2ZM305.334 52C316.747 52 326 61.2525 326 72.6661C326 84.0797 316.747 93.3323 305.334 93.3323H304.334C314.091 93.3323 322 84.5275 322 73.6661C322 63.9094 314.091 56 304.334 56L305.334 52Z" fill="black" mask="url(#path-3-inside-1_163_3607)"/>
</g>
<mask id="path-5-inside-2_163_3607" fill="white">
<path d="M4 140H306C315.941 140 324 148.059 324 158C324 167.941 315.941 176 306 176H34C17.4315 176 4 162.569 4 146V140Z"/>
</mask>
<path d="M4 140H306C315.941 140 324 148.059 324 158C324 167.941 315.941 176 306 176H34C17.4315 176 4 162.569 4 146V140Z" fill="#F3E2C7"/>
<path d="M4 140H324H4ZM326 159.5C326 170.27 317.27 179 306.5 179H34C16.3269 179 2 164.673 2 147L6 146C6 160.912 18.536 173 34 173H306C314.837 173 322 166.284 322 158L326 159.5ZM34 179C16.3269 179 2 164.673 2 147V140H6V146C6 160.912 18.536 173 34 173V179ZM306.5 140C317.27 140 326 148.73 326 159.5C326 170.27 317.27 179 306.5 179L306 173C314.837 173 322 166.284 322 158C322 148.059 314.837 140 306 140H306.5Z" fill="black" mask="url(#path-5-inside-2_163_3607)"/>
<mask id="path-7-inside-3_163_3607" fill="white">
<path d="M4 86H294C310.569 86 324 99.4315 324 116V125H34C17.4315 125 4 111.569 4 95V86Z"/>
</mask>
<path d="M4 86H294C310.569 86 324 99.4315 324 116V125H34C17.4315 125 4 111.569 4 95V86Z" fill="#F3E2C7"/>
<path d="M4 86H324H4ZM324 125H4H324ZM34 125C16.3269 125 2 110.673 2 93V86H6V95C6 111.569 18.536 125 34 125ZM294 86C311.673 86 326 100.327 326 118V125H322V116C322 99.4315 309.464 86 294 86Z" fill="black" mask="url(#path-7-inside-3_163_3607)"/>
<mask id="path-9-inside-4_163_3607" fill="white">
<path d="M4 145.251C4 130.769 15.7398 119.029 30.2215 119.029H324C324 133.511 312.26 145.251 297.778 145.251H4Z"/>
</mask>
<path d="M4 145.251C4 130.769 15.7398 119.029 30.2215 119.029H324C324 133.511 312.26 145.251 297.778 145.251H4Z" fill="#F3E2C7"/>
<path d="M4 119.029H324H4ZM324 145.251H4H324ZM2 145.251C2 130.769 13.7398 119.029 28.2215 119.029H30.2215C16.8443 119.029 6 130.769 6 145.251H2ZM326 119.029C326 133.511 314.26 145.251 299.778 145.251H297.778C311.156 145.251 322 133.511 322 119.029H326Z" fill="black" mask="url(#path-9-inside-4_163_3607)"/>
<path d="M301.133 150.426C301.401 150.153 301.764 150 302.143 150C302.522 150 302.885 150.153 303.153 150.426L309.582 156.979C309.85 157.252 310 157.623 310 158.009C310 158.395 309.85 158.765 309.582 159.038L303.153 165.591C302.884 165.856 302.523 166.003 302.148 166C301.774 165.997 301.415 165.843 301.15 165.573C300.886 165.303 300.735 164.938 300.732 164.556C300.729 164.175 300.873 163.807 301.133 163.532L305 159.465H291.429C291.05 159.465 290.686 159.312 290.418 159.038C290.151 158.765 290 158.395 290 158.009C290 157.623 290.151 157.252 290.418 156.979C290.686 156.706 291.05 156.553 291.429 156.553H305L301.133 152.485C300.865 152.212 300.715 151.842 300.715 151.456C300.715 151.07 300.865 150.699 301.133 150.426Z" fill="black"/>
<path d="M185.117 36.6697L176.396 57.0546C176.238 57.4226 175.877 57.6613 175.476 57.6613H162.523C161.617 57.6613 161.178 56.5534 161.838 55.9328L183.512 35.5479C184.302 34.8055 185.543 35.6734 185.117 36.6697Z" fill="#F3E2C7" stroke="black" stroke-width="2"/>
<rect width="20" height="3.04724" transform="matrix(1 0 0 -1 160 58.8432)" fill="#F3E2C7"/>
<defs>
<filter id="filter0_d_163_3607" x="0" y="54" width="328" height="47.3323" filterUnits="userSpaceOnUse" color-interpolation-filters="sRGB">
<feFlood flood-opacity="0" result="BackgroundImageFix"/>
<feColorMatrix in="SourceAlpha" type="matrix" values="0 0 0 0 0 0 0 0 0 0 0 0 0 0 0 0 0 0 127 0" result="hardAlpha"/>
<feOffset dy="4"/>
<feGaussianBlur stdDeviation="2"/>
<feComposite in2="hardAlpha" operator="out"/>
<feColorMatrix type="matrix" values="0 0 0 0 0 0 0 0 0 0 0 0 0 0 0 0 0 0 0.25 0"/>
<feBlend mode="normal" in2="BackgroundImageFix" result="effect1_dropShadow_163_3607"/>
<feBlend mode="normal" in="SourceGraphic" in2="effect1_dropShadow_163_3607" result="shape"/>
</filter>
<linearGradient id="paint0_linear_163_3607" x1="189" y1="25.4013" x2="314" y2="25.4013" gradientUnits="userSpaceOnUse">
<stop stop-color="#581616"/>
</linearGradient>
</defs>
</svg>
