<svg width="328" height="166" viewBox="0 0 328 166" fill="none" xmlns="http://www.w3.org/2000/svg">
<rect x="187" y="0.802673" width="129" height="42.64" rx="10" fill="black"/>
<rect x="190.5" y="4.30267" width="122" height="35" rx="8.5" fill="url(#paint0_linear_163_3572)"/>
<rect x="190.5" y="4.30267" width="122" height="35" rx="8.5" stroke="#F9F1E7" stroke-width="3"/>
<path d="M218.187 17.1787H218.987V9.97867H218.187V7.35467H225.531C226.907 7.35467 227.958 7.63734 228.683 8.20267C229.409 8.76801 229.771 9.68534 229.771 10.9547C229.771 11.6693 229.627 12.288 229.339 12.8107C229.051 13.3333 228.641 13.696 228.107 13.8987L228.123 14.0587C229.147 14.2187 229.659 14.848 229.659 15.9467V17.1787H230.411V19.8027H225.339V16.0427C225.339 15.6267 225.275 15.312 225.147 15.0987C225.03 14.8853 224.838 14.7413 224.571 14.6667C224.315 14.592 223.947 14.5547 223.467 14.5547V17.1787H224.523V19.8027H218.187V17.1787ZM224.331 12.6027C224.641 12.6027 224.87 12.5227 225.019 12.3627C225.179 12.192 225.259 11.9307 225.259 11.5787V11.0027C225.259 10.6507 225.179 10.3947 225.019 10.2347C224.87 10.064 224.641 9.97867 224.331 9.97867H223.467V12.6027H224.331ZM231.72 10.0267V7.35467H234.984V10.0267H231.72ZM230.952 19.8027V17.1787H231.656V13.5307H230.952V10.9067H235.336V17.1787H236.04V19.8027H230.952ZM241.267 20.0267C239.742 20.0267 238.553 19.632 237.699 18.8427C236.846 18.0427 236.419 16.88 236.419 15.3547C236.419 13.8293 236.846 12.672 237.699 11.8827C238.553 11.0827 239.737 10.6827 241.251 10.6827C241.987 10.6827 242.691 10.784 243.363 10.9867C244.035 11.1893 244.558 11.4187 244.931 11.6747V14.8427H242.179V14.5547C242.179 14.2027 242.105 13.9467 241.955 13.7867C241.806 13.616 241.571 13.5307 241.251 13.5307C240.633 13.5307 240.323 13.872 240.323 14.5547V15.9307C240.323 16.7627 240.798 17.1787 241.747 17.1787C242.633 17.1787 243.662 17.0827 244.835 16.8907V19.4027C244.473 19.5627 243.961 19.7067 243.299 19.8347C242.649 19.9627 241.971 20.0267 241.267 20.0267ZM256.092 17.1787V19.8027H251.036V17.1787H251.708V14.5547C251.708 14.2027 251.633 13.9467 251.484 13.7867C251.334 13.616 251.11 13.5307 250.812 13.5307C250.172 13.5307 249.852 13.872 249.852 14.5547V17.1787H250.524V19.8027H245.468V17.1787H246.172V9.97867H245.468V7.35467H249.852V12.1547C250.246 11.664 250.673 11.296 251.132 11.0507C251.59 10.8053 252.124 10.6827 252.732 10.6827C253.617 10.6827 254.278 10.96 254.716 11.5147C255.164 12.0693 255.388 12.832 255.388 13.8027V17.1787H256.092ZM265.936 17.1787V19.8027H261.712V18.7147C261.478 19.056 261.147 19.36 260.72 19.6267C260.304 19.8933 259.792 20.0267 259.184 20.0267C258.384 20.0267 257.755 19.8133 257.296 19.3867C256.838 18.96 256.608 18.3573 256.608 17.5787C256.608 15.5627 258.32 14.528 261.744 14.4747C261.712 14.112 261.574 13.8667 261.328 13.7387C261.083 13.6 260.667 13.5307 260.08 13.5307C259.6 13.5307 259.083 13.584 258.528 13.6907C257.984 13.7867 257.483 13.92 257.024 14.0907V11.1467C257.59 11.008 258.203 10.896 258.864 10.8107C259.526 10.7253 260.171 10.6827 260.8 10.6827C262.39 10.6827 263.526 10.9707 264.208 11.5467C264.891 12.1227 265.232 13.0133 265.232 14.2187V17.1787H265.936ZM261.712 16.0587C261.232 16.0587 260.859 16.1227 260.592 16.2507C260.336 16.3787 260.208 16.592 260.208 16.8907C260.208 17.072 260.262 17.2213 260.368 17.3387C260.486 17.4453 260.646 17.4987 260.848 17.4987C261.126 17.4987 261.339 17.3813 261.488 17.1467C261.638 16.912 261.712 16.5813 261.712 16.1547V16.0587ZM273.284 10.6827C273.497 10.6827 273.7 10.704 273.892 10.7467C274.084 10.7893 274.244 10.8427 274.372 10.9067V13.9627C273.935 13.7813 273.465 13.6907 272.964 13.6907C272.292 13.6907 271.775 13.8667 271.412 14.2187C271.049 14.5707 270.868 15.0933 270.868 15.7867V17.1787H272.308V19.8027H266.484V17.1787H267.188V13.5307H266.484V10.9067H270.868V12.0747C271.167 11.6267 271.508 11.2853 271.892 11.0507C272.276 10.8053 272.74 10.6827 273.284 10.6827ZM278.042 20.0267C276.954 20.0267 276.132 19.6213 275.578 18.8107C275.034 18 274.762 16.848 274.762 15.3547C274.762 13.8613 275.034 12.7093 275.578 11.8987C276.132 11.088 276.954 10.6827 278.042 10.6827C278.586 10.6827 279.066 10.816 279.482 11.0827C279.908 11.3493 280.255 11.6533 280.522 11.9947V9.97867H279.578V7.35467H284.202V17.1787H284.906V19.8027H280.522V18.7147C280.255 19.056 279.908 19.36 279.482 19.6267C279.066 19.8933 278.586 20.0267 278.042 20.0267ZM279.594 17.1787C279.903 17.1787 280.132 17.0987 280.282 16.9387C280.442 16.768 280.522 16.5067 280.522 16.1547V14.5547C280.522 14.2027 280.442 13.9467 280.282 13.7867C280.132 13.616 279.903 13.5307 279.594 13.5307C279.284 13.5307 279.05 13.616 278.89 13.7867C278.74 13.9467 278.666 14.2027 278.666 14.5547V16.1547C278.666 16.5067 278.74 16.768 278.89 16.9387C279.05 17.0987 279.284 17.1787 279.594 17.1787ZM211.961 32.1787H212.761V24.9787H211.961V22.3547H219.305C220.681 22.3547 221.731 22.6373 222.457 23.2027C223.182 23.768 223.545 24.6853 223.545 25.9547C223.545 26.6693 223.401 27.288 223.113 27.8107C222.825 28.3333 222.414 28.696 221.881 28.8987L221.897 29.0587C222.921 29.2187 223.433 29.848 223.433 30.9467V32.1787H224.185V34.8027H219.113V31.0427C219.113 30.6267 219.049 30.312 218.921 30.0987C218.803 29.8853 218.611 29.7413 218.345 29.6667C218.089 29.592 217.721 29.5547 217.241 29.5547V32.1787H218.297V34.8027H211.961V32.1787ZM218.105 27.6027C218.414 27.6027 218.643 27.5227 218.793 27.3627C218.953 27.192 219.033 26.9307 219.033 26.5787V26.0027C219.033 25.6507 218.953 25.3947 218.793 25.2347C218.643 25.064 218.414 24.9787 218.105 24.9787H217.241V27.6027H218.105ZM229.494 35.0267C227.979 35.0267 226.795 34.632 225.942 33.8427C225.088 33.0427 224.662 31.88 224.662 30.3547C224.662 28.8293 225.088 27.672 225.942 26.8827C226.795 26.0827 227.979 25.6827 229.494 25.6827C231.03 25.6827 232.219 26.088 233.062 26.8987C233.904 27.6987 234.326 28.8507 234.326 30.3547C234.326 31.88 233.899 33.0427 233.046 33.8427C232.192 34.632 231.008 35.0267 229.494 35.0267ZM229.494 32.1787C229.803 32.1787 230.032 32.0987 230.182 31.9387C230.342 31.768 230.422 31.5067 230.422 31.1547V29.5547C230.422 29.2027 230.342 28.9467 230.182 28.7867C230.032 28.616 229.803 28.5307 229.494 28.5307C229.184 28.5307 228.95 28.616 228.79 28.7867C228.64 28.9467 228.566 29.2027 228.566 29.5547V31.1547C228.566 31.5067 228.64 31.768 228.79 31.9387C228.95 32.0987 229.184 32.1787 229.494 32.1787ZM241.699 35.0267C241.155 35.0267 240.67 34.8933 240.243 34.6267C239.827 34.36 239.486 34.056 239.219 33.7147V34.8027H234.835V32.1787H235.539V24.9787H234.835V22.3547H239.219V26.9947C239.486 26.6533 239.827 26.3493 240.243 26.0827C240.67 25.816 241.155 25.6827 241.699 25.6827C242.787 25.6827 243.603 26.088 244.147 26.8987C244.702 27.7093 244.979 28.8613 244.979 30.3547C244.979 31.848 244.702 33 244.147 33.8107C243.603 34.6213 242.787 35.0267 241.699 35.0267ZM240.147 32.1787C240.456 32.1787 240.686 32.0987 240.835 31.9387C240.995 31.768 241.075 31.5067 241.075 31.1547V29.5547C241.075 29.2027 240.995 28.9467 240.835 28.7867C240.686 28.616 240.456 28.5307 240.147 28.5307C239.838 28.5307 239.603 28.616 239.443 28.7867C239.294 28.9467 239.219 29.2027 239.219 29.5547V31.1547C239.219 31.5067 239.294 31.768 239.443 31.9387C239.603 32.0987 239.838 32.1787 240.147 32.1787ZM246.197 25.0267V22.3547H249.461V25.0267H246.197ZM245.429 34.8027V32.1787H246.133V28.5307H245.429V25.9067H249.813V32.1787H250.517V34.8027H245.429ZM261.584 32.1787V34.8027H256.528V32.1787H257.2V29.5547C257.2 29.2027 257.125 28.9467 256.976 28.7867C256.827 28.616 256.603 28.5307 256.304 28.5307C255.664 28.5307 255.344 28.872 255.344 29.5547V32.1787H256.016V34.8027H250.96V32.1787H251.664V28.5307H250.96V25.9067H255.344V27.1547C256.112 26.1733 257.072 25.6827 258.224 25.6827C259.109 25.6827 259.771 25.96 260.208 26.5147C260.656 27.0693 260.88 27.832 260.88 28.8027V32.1787H261.584ZM265.989 35.0267C264.645 35.0267 263.349 34.8133 262.101 34.3867V32.0187H264.693V32.1787C264.693 32.6907 265.018 32.9467 265.669 32.9467C266.245 32.9467 266.533 32.7493 266.533 32.3547C266.533 32.1413 266.447 31.9813 266.277 31.8747C266.117 31.768 265.829 31.6773 265.413 31.6027L264.613 31.4587C262.938 31.16 262.101 30.2107 262.101 28.6107C262.101 27.6827 262.453 26.9627 263.157 26.4507C263.861 25.9387 264.81 25.6827 266.005 25.6827C267.338 25.6827 268.463 25.9067 269.381 26.3547V28.5787H266.949V28.4187C266.949 28.2053 266.874 28.0453 266.725 27.9387C266.586 27.8213 266.378 27.7627 266.101 27.7627C265.567 27.7627 265.301 27.9333 265.301 28.2747C265.301 28.456 265.375 28.5947 265.525 28.6907C265.674 28.7867 265.946 28.8773 266.341 28.9627L267.253 29.1387C268.202 29.32 268.879 29.656 269.285 30.1467C269.69 30.6373 269.892 31.2667 269.892 32.0347C269.892 33.0053 269.551 33.7467 268.869 34.2587C268.197 34.7707 267.237 35.0267 265.989 35.0267ZM275.165 35.0267C273.651 35.0267 272.467 34.632 271.613 33.8427C270.76 33.0427 270.333 31.88 270.333 30.3547C270.333 28.8293 270.76 27.672 271.613 26.8827C272.467 26.0827 273.651 25.6827 275.165 25.6827C276.701 25.6827 277.891 26.088 278.733 26.8987C279.576 27.6987 279.997 28.8507 279.997 30.3547C279.997 31.88 279.571 33.0427 278.717 33.8427C277.864 34.632 276.68 35.0267 275.165 35.0267ZM275.165 32.1787C275.475 32.1787 275.704 32.0987 275.853 31.9387C276.013 31.768 276.093 31.5067 276.093 31.1547V29.5547C276.093 29.2027 276.013 28.9467 275.853 28.7867C275.704 28.616 275.475 28.5307 275.165 28.5307C274.856 28.5307 274.621 28.616 274.461 28.7867C274.312 28.9467 274.237 29.2027 274.237 29.5547V31.1547C274.237 31.5067 274.312 31.768 274.461 31.9387C274.621 32.0987 274.856 32.1787 275.165 32.1787ZM291.131 32.1787V34.8027H286.075V32.1787H286.747V29.5547C286.747 29.2027 286.672 28.9467 286.523 28.7867C286.373 28.616 286.149 28.5307 285.851 28.5307C285.211 28.5307 284.891 28.872 284.891 29.5547V32.1787H285.563V34.8027H280.507V32.1787H281.211V28.5307H280.507V25.9067H284.891V27.1547C285.659 26.1733 286.619 25.6827 287.771 25.6827C288.656 25.6827 289.317 25.96 289.755 26.5147C290.203 27.0693 290.427 27.832 290.427 28.8027V32.1787H291.131Z" fill="white"/>
<g filter="url(#filter0_d_163_3572)">
<mask id="path-4-inside-1_163_3572" fill="white">
<path d="M4 74C4 57.4315 17.4315 44 34 44H304.334C315.195 44 324 52.8048 324 63.6661C324 74.5275 315.195 83.3323 304.334 83.3323H4V74Z"/>
</mask>
<path d="M4 74C4 57.4315 17.4315 44 34 44H304.334C315.195 44 324 52.8048 324 63.6661C324 74.5275 315.195 83.3323 304.334 83.3323H4V74Z" fill="#F3E2C7"/>
<path d="M2 74C2 56.3269 16.3269 42 34 42H305.334C316.747 42 326 51.2525 326 62.6661L322 63.6661C322 53.9094 314.091 46 304.334 46H34C18.536 46 6 58.536 6 74H2ZM324 83.3323H4H324ZM2 83.3323V74C2 56.3269 16.3269 42 34 42V46C18.536 46 6 58.536 6 74V83.3323H2ZM305.334 42C316.747 42 326 51.2525 326 62.6661C326 74.0797 316.747 83.3323 305.334 83.3323H304.334C314.091 83.3323 322 74.5275 322 63.6661C322 53.9094 314.091 46 304.334 46L305.334 42Z" fill="black" mask="url(#path-4-inside-1_163_3572)"/>
</g>
<mask id="path-6-inside-2_163_3572" fill="white">
<path d="M4 130H306C315.941 130 324 138.059 324 148C324 157.941 315.941 166 306 166H34C17.4315 166 4 152.569 4 136V130Z"/>
</mask>
<path d="M4 130H306C315.941 130 324 138.059 324 148C324 157.941 315.941 166 306 166H34C17.4315 166 4 152.569 4 136V130Z" fill="#F3E2C7"/>
<path d="M4 130H324H4ZM326 149.5C326 160.27 317.27 169 306.5 169H34C16.3269 169 2 154.673 2 137L6 136C6 150.912 18.536 163 34 163H306C314.837 163 322 156.284 322 148L326 149.5ZM34 169C16.3269 169 2 154.673 2 137V130H6V136C6 150.912 18.536 163 34 163V169ZM306.5 130C317.27 130 326 138.73 326 149.5C326 160.27 317.27 169 306.5 169L306 163C314.837 163 322 156.284 322 148C322 138.059 314.837 130 306 130H306.5Z" fill="black" mask="url(#path-6-inside-2_163_3572)"/>
<mask id="path-8-inside-3_163_3572" fill="white">
<path d="M4 76H294C310.569 76 324 89.4315 324 106V115H34C17.4315 115 4 101.569 4 85V76Z"/>
</mask>
<path d="M4 76H294C310.569 76 324 89.4315 324 106V115H34C17.4315 115 4 101.569 4 85V76Z" fill="#F3E2C7"/>
<path d="M4 76H324H4ZM324 115H4H324ZM34 115C16.3269 115 2 100.673 2 83V76H6V85C6 101.569 18.536 115 34 115ZM294 76C311.673 76 326 90.3269 326 108V115H322V106C322 89.4315 309.464 76 294 76Z" fill="black" mask="url(#path-8-inside-3_163_3572)"/>
<mask id="path-10-inside-4_163_3572" fill="white">
<path d="M4 135.251C4 120.769 15.7398 109.029 30.2215 109.029H324C324 123.511 312.26 135.251 297.778 135.251H4Z"/>
</mask>
<path d="M4 135.251C4 120.769 15.7398 109.029 30.2215 109.029H324C324 123.511 312.26 135.251 297.778 135.251H4Z" fill="#F3E2C7"/>
<path d="M4 109.029H324H4ZM324 135.251H4H324ZM2 135.251C2 120.769 13.7398 109.029 28.2215 109.029H30.2215C16.8443 109.029 6 120.769 6 135.251H2ZM326 109.029C326 123.511 314.26 135.251 299.778 135.251H297.778C311.156 135.251 322 123.511 322 109.029H326Z" fill="black" mask="url(#path-10-inside-4_163_3572)"/>
<path d="M301.133 140.426C301.401 140.153 301.764 140 302.143 140C302.522 140 302.885 140.153 303.153 140.426L309.582 146.979C309.85 147.252 310 147.623 310 148.009C310 148.395 309.85 148.765 309.582 149.038L303.153 155.591C302.884 155.856 302.523 156.003 302.148 156C301.774 155.997 301.415 155.843 301.15 155.573C300.886 155.303 300.735 154.938 300.732 154.556C300.729 154.175 300.873 153.807 301.133 153.532L305 149.465H291.429C291.05 149.465 290.686 149.312 290.418 149.038C290.151 148.765 290 148.395 290 148.009C290 147.623 290.151 147.252 290.418 146.979C290.686 146.706 291.05 146.553 291.429 146.553H305L301.133 142.485C300.865 142.212 300.715 141.842 300.715 141.456C300.715 141.07 300.865 140.699 301.133 140.426Z" fill="black"/>
<path d="M185.117 26.6697L176.396 47.0546C176.238 47.4226 175.877 47.6613 175.476 47.6613H162.523C161.617 47.6613 161.178 46.5534 161.838 45.9328L183.512 25.5479C184.302 24.8055 185.543 25.6734 185.117 26.6697Z" fill="#F3E2C7" stroke="black" stroke-width="2"/>
<rect width="20" height="3.04724" transform="matrix(1 0 0 -1 160 48.8432)" fill="#F3E2C7"/>
<defs>
<filter id="filter0_d_163_3572" x="0" y="44" width="328" height="47.3323" filterUnits="userSpaceOnUse" color-interpolation-filters="sRGB">
<feFlood flood-opacity="0" result="BackgroundImageFix"/>
<feColorMatrix in="SourceAlpha" type="matrix" values="0 0 0 0 0 0 0 0 0 0 0 0 0 0 0 0 0 0 127 0" result="hardAlpha"/>
<feOffset dy="4"/>
<feGaussianBlur stdDeviation="2"/>
<feComposite in2="hardAlpha" operator="out"/>
<feColorMatrix type="matrix" values="0 0 0 0 0 0 0 0 0 0 0 0 0 0 0 0 0 0 0.25 0"/>
<feBlend mode="normal" in2="BackgroundImageFix" result="effect1_dropShadow_163_3572"/>
<feBlend mode="normal" in="SourceGraphic" in2="effect1_dropShadow_163_3572" result="shape"/>
</filter>
<linearGradient id="paint0_linear_163_3572" x1="189" y1="21.8027" x2="314" y2="21.8027" gradientUnits="userSpaceOnUse">
<stop stop-color="#E08C30"/>
<stop offset="1" stop-color="#955410"/>
</linearGradient>
</defs>
</svg>
