<svg width="328" height="176" viewBox="0 0 328 176" fill="none" xmlns="http://www.w3.org/2000/svg">
<rect x="190.5" y="1.5" width="122" height="47.8027" rx="8.5" fill="url(#paint0_linear_163_3572)"/>
<rect x="190.5" y="1.5" width="122" height="47.8027" rx="8.5" stroke="white" stroke-width="3"/>
<path d="M218.187 20.7773H218.987V13.5773H218.187V10.9533H225.531C226.907 10.9533 227.958 11.236 228.683 11.8013C229.409 12.3667 229.771 13.284 229.771 14.5533C229.771 15.268 229.627 15.8867 229.339 16.4093C229.051 16.932 228.641 17.2947 228.107 17.4973L228.123 17.6573C229.147 17.8173 229.659 18.4467 229.659 19.5453V20.7773H230.411V23.4013H225.339V19.6413C225.339 19.2253 225.275 18.9107 225.147 18.6973C225.03 18.484 224.838 18.34 224.571 18.2653C224.315 18.1907 223.947 18.1533 223.467 18.1533V20.7773H224.523V23.4013H218.187V20.7773ZM224.331 16.2013C224.641 16.2013 224.87 16.1213 225.019 15.9613C225.179 15.7907 225.259 15.5293 225.259 15.1773V14.6013C225.259 14.2493 225.179 13.9933 225.019 13.8333C224.87 13.6627 224.641 13.5773 224.331 13.5773H223.467V16.2013H224.331ZM231.72 13.6253V10.9533H234.984V13.6253H231.72ZM230.952 23.4013V20.7773H231.656V17.1293H230.952V14.5053H235.336V20.7773H236.04V23.4013H230.952ZM241.267 23.6253C239.742 23.6253 238.553 23.2307 237.699 22.4413C236.846 21.6413 236.419 20.4787 236.419 18.9533C236.419 17.428 236.846 16.2707 237.699 15.4813C238.553 14.6813 239.737 14.2813 241.251 14.2813C241.987 14.2813 242.691 14.3827 243.363 14.5853C244.035 14.788 244.558 15.0173 244.931 15.2733V18.4413H242.179V18.1533C242.179 17.8013 242.105 17.5453 241.955 17.3853C241.806 17.2147 241.571 17.1293 241.251 17.1293C240.633 17.1293 240.323 17.4707 240.323 18.1533V19.5293C240.323 20.3613 240.798 20.7773 241.747 20.7773C242.633 20.7773 243.662 20.6813 244.835 20.4893V23.0013C244.473 23.1613 243.961 23.3053 243.299 23.4333C242.649 23.5613 241.971 23.6253 241.267 23.6253ZM256.092 20.7773V23.4013H251.036V20.7773H251.708V18.1533C251.708 17.8013 251.633 17.5453 251.484 17.3853C251.334 17.2147 251.11 17.1293 250.812 17.1293C250.172 17.1293 249.852 17.4707 249.852 18.1533V20.7773H250.524V23.4013H245.468V20.7773H246.172V13.5773H245.468V10.9533H249.852V15.7533C250.246 15.2627 250.673 14.8947 251.132 14.6493C251.59 14.404 252.124 14.2813 252.732 14.2813C253.617 14.2813 254.278 14.5587 254.716 15.1133C255.164 15.668 255.388 16.4307 255.388 17.4013V20.7773H256.092ZM265.936 20.7773V23.4013H261.712V22.3133C261.478 22.6547 261.147 22.9587 260.72 23.2253C260.304 23.492 259.792 23.6253 259.184 23.6253C258.384 23.6253 257.755 23.412 257.296 22.9853C256.838 22.5587 256.608 21.956 256.608 21.1773C256.608 19.1613 258.32 18.1267 261.744 18.0733C261.712 17.7107 261.574 17.4653 261.328 17.3373C261.083 17.1987 260.667 17.1293 260.08 17.1293C259.6 17.1293 259.083 17.1827 258.528 17.2893C257.984 17.3853 257.483 17.5187 257.024 17.6893V14.7453C257.59 14.6067 258.203 14.4947 258.864 14.4093C259.526 14.324 260.171 14.2813 260.8 14.2813C262.39 14.2813 263.526 14.5693 264.208 15.1453C264.891 15.7213 265.232 16.612 265.232 17.8173V20.7773H265.936ZM261.712 19.6573C261.232 19.6573 260.859 19.7213 260.592 19.8493C260.336 19.9773 260.208 20.1907 260.208 20.4893C260.208 20.6707 260.262 20.82 260.368 20.9373C260.486 21.044 260.646 21.0973 260.848 21.0973C261.126 21.0973 261.339 20.98 261.488 20.7453C261.638 20.5107 261.712 20.18 261.712 19.7533V19.6573ZM273.284 14.2813C273.497 14.2813 273.7 14.3027 273.892 14.3453C274.084 14.388 274.244 14.4413 274.372 14.5053V17.5613C273.935 17.38 273.465 17.2893 272.964 17.2893C272.292 17.2893 271.775 17.4653 271.412 17.8173C271.049 18.1693 270.868 18.692 270.868 19.3853V20.7773H272.308V23.4013H266.484V20.7773H267.188V17.1293H266.484V14.5053H270.868V15.6733C271.167 15.2253 271.508 14.884 271.892 14.6493C272.276 14.404 272.74 14.2813 273.284 14.2813ZM278.042 23.6253C276.954 23.6253 276.132 23.22 275.578 22.4093C275.034 21.5987 274.762 20.4467 274.762 18.9533C274.762 17.46 275.034 16.308 275.578 15.4973C276.132 14.6867 276.954 14.2813 278.042 14.2813C278.586 14.2813 279.066 14.4147 279.482 14.6813C279.908 14.948 280.255 15.252 280.522 15.5933V13.5773H279.578V10.9533H284.202V20.7773H284.906V23.4013H280.522V22.3133C280.255 22.6547 279.908 22.9587 279.482 23.2253C279.066 23.492 278.586 23.6253 278.042 23.6253ZM279.594 20.7773C279.903 20.7773 280.132 20.6973 280.282 20.5373C280.442 20.3667 280.522 20.1053 280.522 19.7533V18.1533C280.522 17.8013 280.442 17.5453 280.282 17.3853C280.132 17.2147 279.903 17.1293 279.594 17.1293C279.284 17.1293 279.05 17.2147 278.89 17.3853C278.74 17.5453 278.666 17.8013 278.666 18.1533V19.7533C278.666 20.1053 278.74 20.3667 278.89 20.5373C279.05 20.6973 279.284 20.7773 279.594 20.7773ZM211.961 35.7773H212.761V28.5773H211.961V25.9533H219.305C220.681 25.9533 221.731 26.236 222.457 26.8013C223.182 27.3667 223.545 28.284 223.545 29.5533C223.545 30.268 223.401 30.8867 223.113 31.4093C222.825 31.932 222.414 32.2947 221.881 32.4973L221.897 32.6573C222.921 32.8173 223.433 33.4467 223.433 34.5453V35.7773H224.185V38.4013H219.113V34.6413C219.113 34.2253 219.049 33.9107 218.921 33.6973C218.803 33.484 218.611 33.34 218.345 33.2653C218.089 33.1907 217.721 33.1533 217.241 33.1533V35.7773H218.297V38.4013H211.961V35.7773ZM218.105 31.2013C218.414 31.2013 218.643 31.1213 218.793 30.9613C218.953 30.7907 219.033 30.5293 219.033 30.1773V29.6013C219.033 29.2493 218.953 28.9933 218.793 28.8333C218.643 28.6627 218.414 28.5773 218.105 28.5773H217.241V31.2013H218.105ZM229.494 38.6253C227.979 38.6253 226.795 38.2307 225.942 37.4413C225.088 36.6413 224.662 35.4787 224.662 33.9533C224.662 32.428 225.088 31.2707 225.942 30.4813C226.795 29.6813 227.979 29.2813 229.494 29.2813C231.03 29.2813 232.219 29.6867 233.062 30.4973C233.904 31.2973 234.326 32.4493 234.326 33.9533C234.326 35.4787 233.899 36.6413 233.046 37.4413C232.192 38.2307 231.008 38.6253 229.494 38.6253ZM229.494 35.7773C229.803 35.7773 230.032 35.6973 230.182 35.5373C230.342 35.3667 230.422 35.1053 230.422 34.7533V33.1533C230.422 32.8013 230.342 32.5453 230.182 32.3853C230.032 32.2147 229.803 32.1293 229.494 32.1293C229.184 32.1293 228.95 32.2147 228.79 32.3853C228.64 32.5453 228.566 32.8013 228.566 33.1533V34.7533C228.566 35.1053 228.64 35.3667 228.79 35.5373C228.95 35.6973 229.184 35.7773 229.494 35.7773ZM241.699 38.6253C241.155 38.6253 240.67 38.492 240.243 38.2253C239.827 37.9587 239.486 37.6547 239.219 37.3133V38.4013H234.835V35.7773H235.539V28.5773H234.835V25.9533H239.219V30.5933C239.486 30.252 239.827 29.948 240.243 29.6813C240.67 29.4147 241.155 29.2813 241.699 29.2813C242.787 29.2813 243.603 29.6867 244.147 30.4973C244.702 31.308 244.979 32.46 244.979 33.9533C244.979 35.4467 244.702 36.5987 244.147 37.4093C243.603 38.22 242.787 38.6253 241.699 38.6253ZM240.147 35.7773C240.456 35.7773 240.686 35.6973 240.835 35.5373C240.995 35.3667 241.075 35.1053 241.075 34.7533V33.1533C241.075 32.8013 240.995 32.5453 240.835 32.3853C240.686 32.2147 240.456 32.1293 240.147 32.1293C239.838 32.1293 239.603 32.2147 239.443 32.3853C239.294 32.5453 239.219 32.8013 239.219 33.1533V34.7533C239.219 35.1053 239.294 35.3667 239.443 35.5373C239.603 35.6973 239.838 35.7773 240.147 35.7773ZM246.197 28.6253V25.9533H249.461V28.6253H246.197ZM245.429 38.4013V35.7773H246.133V32.1293H245.429V29.5053H249.813V35.7773H250.517V38.4013H245.429ZM261.584 35.7773V38.4013H256.528V35.7773H257.2V33.1533C257.2 32.8013 257.125 32.5453 256.976 32.3853C256.827 32.2147 256.603 32.1293 256.304 32.1293C255.664 32.1293 255.344 32.4707 255.344 33.1533V35.7773H256.016V38.4013H250.96V35.7773H251.664V32.1293H250.96V29.5053H255.344V30.7533C256.112 29.772 257.072 29.2813 258.224 29.2813C259.109 29.2813 259.771 29.5587 260.208 30.1133C260.656 30.668 260.88 31.4307 260.88 32.4013V35.7773H261.584ZM265.989 38.6253C264.645 38.6253 263.349 38.412 262.101 37.9853V35.6173H264.693V35.7773C264.693 36.2893 265.018 36.5453 265.669 36.5453C266.245 36.5453 266.533 36.348 266.533 35.9533C266.533 35.74 266.447 35.58 266.277 35.4733C266.117 35.3667 265.829 35.276 265.413 35.2013L264.613 35.0573C262.938 34.7587 262.101 33.8093 262.101 32.2093C262.101 31.2813 262.453 30.5613 263.157 30.0493C263.861 29.5373 264.81 29.2813 266.005 29.2813C267.338 29.2813 268.463 29.5053 269.381 29.9533V32.1773H266.949V32.0173C266.949 31.804 266.874 31.644 266.725 31.5373C266.586 31.42 266.378 31.3613 266.101 31.3613C265.567 31.3613 265.301 31.532 265.301 31.8733C265.301 32.0547 265.375 32.1933 265.525 32.2893C265.674 32.3853 265.946 32.476 266.341 32.5613L267.253 32.7373C268.202 32.9187 268.879 33.2547 269.285 33.7453C269.69 34.236 269.892 34.8653 269.892 35.6333C269.892 36.604 269.551 37.3453 268.869 37.8573C268.197 38.3693 267.237 38.6253 265.989 38.6253ZM275.165 38.6253C273.651 38.6253 272.467 38.2307 271.613 37.4413C270.76 36.6413 270.333 35.4787 270.333 33.9533C270.333 32.428 270.76 31.2707 271.613 30.4813C272.467 29.6813 273.651 29.2813 275.165 29.2813C276.701 29.2813 277.891 29.6867 278.733 30.4973C279.576 31.2973 279.997 32.4493 279.997 33.9533C279.997 35.4787 279.571 36.6413 278.717 37.4413C277.864 38.2307 276.68 38.6253 275.165 38.6253ZM275.165 35.7773C275.475 35.7773 275.704 35.6973 275.853 35.5373C276.013 35.3667 276.093 35.1053 276.093 34.7533V33.1533C276.093 32.8013 276.013 32.5453 275.853 32.3853C275.704 32.2147 275.475 32.1293 275.165 32.1293C274.856 32.1293 274.621 32.2147 274.461 32.3853C274.312 32.5453 274.237 32.8013 274.237 33.1533V34.7533C274.237 35.1053 274.312 35.3667 274.461 35.5373C274.621 35.6973 274.856 35.7773 275.165 35.7773ZM291.131 35.7773V38.4013H286.075V35.7773H286.747V33.1533C286.747 32.8013 286.672 32.5453 286.523 32.3853C286.373 32.2147 286.149 32.1293 285.851 32.1293C285.211 32.1293 284.891 32.4707 284.891 33.1533V35.7773H285.563V38.4013H280.507V35.7773H281.211V32.1293H280.507V29.5053H284.891V30.7533C285.659 29.772 286.619 29.2813 287.771 29.2813C288.656 29.2813 289.317 29.5587 289.755 30.1133C290.203 30.668 290.427 31.4307 290.427 32.4013V35.7773H291.131Z" fill="white"/>
<g filter="url(#filter0_d_163_3572)">
<mask id="path-3-inside-1_163_3572" fill="white">
<path d="M4 84C4 67.4315 17.4315 54 34 54H304.334C315.195 54 324 62.8048 324 73.6661C324 84.5275 315.195 93.3323 304.334 93.3323H4V84Z"/>
</mask>
<path d="M4 84C4 67.4315 17.4315 54 34 54H304.334C315.195 54 324 62.8048 324 73.6661C324 84.5275 315.195 93.3323 304.334 93.3323H4V84Z" fill="#F3E2C7"/>
<path d="M2 84C2 66.3269 16.3269 52 34 52H305.334C316.747 52 326 61.2525 326 72.6661L322 73.6661C322 63.9094 314.091 56 304.334 56H34C18.536 56 6 68.536 6 84H2ZM324 93.3323H4H324ZM2 93.3323V84C2 66.3269 16.3269 52 34 52V56C18.536 56 6 68.536 6 84V93.3323H2ZM305.334 52C316.747 52 326 61.2525 326 72.6661C326 84.0797 316.747 93.3323 305.334 93.3323H304.334C314.091 93.3323 322 84.5275 322 73.6661C322 63.9094 314.091 56 304.334 56L305.334 52Z" fill="black" mask="url(#path-3-inside-1_163_3572)"/>
</g>
<mask id="path-5-inside-2_163_3572" fill="white">
<path d="M4 140H306C315.941 140 324 148.059 324 158C324 167.941 315.941 176 306 176H34C17.4315 176 4 162.569 4 146V140Z"/>
</mask>
<path d="M4 140H306C315.941 140 324 148.059 324 158C324 167.941 315.941 176 306 176H34C17.4315 176 4 162.569 4 146V140Z" fill="#F3E2C7"/>
<path d="M4 140H324H4ZM326 159.5C326 170.27 317.27 179 306.5 179H34C16.3269 179 2 164.673 2 147L6 146C6 160.912 18.536 173 34 173H306C314.837 173 322 166.284 322 158L326 159.5ZM34 179C16.3269 179 2 164.673 2 147V140H6V146C6 160.912 18.536 173 34 173V179ZM306.5 140C317.27 140 326 148.73 326 159.5C326 170.27 317.27 179 306.5 179L306 173C314.837 173 322 166.284 322 158C322 148.059 314.837 140 306 140H306.5Z" fill="black" mask="url(#path-5-inside-2_163_3572)"/>
<mask id="path-7-inside-3_163_3572" fill="white">
<path d="M4 86H294C310.569 86 324 99.4315 324 116V125H34C17.4315 125 4 111.569 4 95V86Z"/>
</mask>
<path d="M4 86H294C310.569 86 324 99.4315 324 116V125H34C17.4315 125 4 111.569 4 95V86Z" fill="#F3E2C7"/>
<path d="M4 86H324H4ZM324 125H4H324ZM34 125C16.3269 125 2 110.673 2 93V86H6V95C6 111.569 18.536 125 34 125ZM294 86C311.673 86 326 100.327 326 118V125H322V116C322 99.4315 309.464 86 294 86Z" fill="black" mask="url(#path-7-inside-3_163_3572)"/>
<mask id="path-9-inside-4_163_3572" fill="white">
<path d="M4 145.251C4 130.769 15.7398 119.029 30.2215 119.029H324C324 133.511 312.26 145.251 297.778 145.251H4Z"/>
</mask>
<path d="M4 145.251C4 130.769 15.7398 119.029 30.2215 119.029H324C324 133.511 312.26 145.251 297.778 145.251H4Z" fill="#F3E2C7"/>
<path d="M4 119.029H324H4ZM324 145.251H4H324ZM2 145.251C2 130.769 13.7398 119.029 28.2215 119.029H30.2215C16.8443 119.029 6 130.769 6 145.251H2ZM326 119.029C326 133.511 314.26 145.251 299.778 145.251H297.778C311.156 145.251 322 133.511 322 119.029H326Z" fill="black" mask="url(#path-9-inside-4_163_3572)"/>
<path d="M301.133 150.426C301.401 150.153 301.764 150 302.143 150C302.522 150 302.885 150.153 303.153 150.426L309.582 156.979C309.85 157.252 310 157.623 310 158.009C310 158.395 309.85 158.765 309.582 159.038L303.153 165.591C302.884 165.856 302.523 166.003 302.148 166C301.774 165.997 301.415 165.843 301.15 165.573C300.886 165.303 300.735 164.938 300.732 164.556C300.729 164.175 300.873 163.807 301.133 163.532L305 159.465H291.429C291.05 159.465 290.686 159.312 290.418 159.038C290.151 158.765 290 158.395 290 158.009C290 157.623 290.151 157.252 290.418 156.979C290.686 156.706 291.05 156.553 291.429 156.553H305L301.133 152.485C300.865 152.212 300.715 151.842 300.715 151.456C300.715 151.07 300.865 150.699 301.133 150.426Z" fill="black"/>
<path d="M185.117 36.6697L176.396 57.0546C176.238 57.4226 175.877 57.6613 175.476 57.6613H162.523C161.617 57.6613 161.178 56.5534 161.838 55.9328L183.512 35.5479C184.302 34.8055 185.543 35.6734 185.117 36.6697Z" fill="#F3E2C7" stroke="black" stroke-width="2"/>
<rect width="20" height="3.04724" transform="matrix(1 0 0 -1 160 58.8432)" fill="#F3E2C7"/>
<defs>
<filter id="filter0_d_163_3572" x="0" y="54" width="328" height="47.3323" filterUnits="userSpaceOnUse" color-interpolation-filters="sRGB">
<feFlood flood-opacity="0" result="BackgroundImageFix"/>
<feColorMatrix in="SourceAlpha" type="matrix" values="0 0 0 0 0 0 0 0 0 0 0 0 0 0 0 0 0 0 127 0" result="hardAlpha"/>
<feOffset dy="4"/>
<feGaussianBlur stdDeviation="2"/>
<feComposite in2="hardAlpha" operator="out"/>
<feColorMatrix type="matrix" values="0 0 0 0 0 0 0 0 0 0 0 0 0 0 0 0 0 0 0.25 0"/>
<feBlend mode="normal" in2="BackgroundImageFix" result="effect1_dropShadow_163_3572"/>
<feBlend mode="normal" in="SourceGraphic" in2="effect1_dropShadow_163_3572" result="shape"/>
</filter>
<linearGradient id="paint0_linear_163_3572" x1="189" y1="25.4013" x2="314" y2="25.4013" gradientUnits="userSpaceOnUse">
<stop stop-color="#581616"/>
</linearGradient>
</defs>
</svg>
