<svg width="328" height="176" viewBox="0 0 328 176" fill="none" xmlns="http://www.w3.org/2000/svg">
<rect x="190.5" y="1.5" width="122" height="47.8027" rx="8.5" fill="url(#paint0_linear_407_102)"/>
<rect x="190.5" y="1.5" width="122" height="47.8027" rx="8.5" stroke="white" stroke-width="3"/>
<path d="M216.986 19.4013H216.186V22.6013C215.716 22.868 215.028 23.108 214.122 23.3213C213.226 23.524 212.255 23.6253 211.21 23.6253C209.215 23.6253 207.652 23.1027 206.522 22.0573C205.391 21.0013 204.826 19.3747 204.826 17.1773C204.826 14.9267 205.386 13.2893 206.506 12.2653C207.636 11.2413 209.247 10.7293 211.338 10.7293C212.351 10.7293 213.3 10.836 214.186 11.0493C215.071 11.2627 215.738 11.5027 216.186 11.7693V15.5933H212.186V14.8413C212.186 14.3933 212.09 14.0733 211.898 13.8813C211.716 13.6787 211.423 13.5773 211.018 13.5773C210.612 13.5773 210.314 13.6787 210.122 13.8813C209.94 14.0733 209.85 14.3933 209.85 14.8413V19.5133C209.85 19.9613 209.94 20.2867 210.122 20.4893C210.314 20.6813 210.612 20.7773 211.018 20.7773C211.423 20.7773 211.716 20.6813 211.898 20.4893C212.09 20.2867 212.186 19.9613 212.186 19.5133V19.4013H211.322V17.0173H216.986V19.4013ZM226.733 20.7773V23.4013H222.509V22.3133C222.275 22.6547 221.944 22.9587 221.517 23.2253C221.101 23.492 220.589 23.6253 219.981 23.6253C219.181 23.6253 218.552 23.412 218.093 22.9853C217.635 22.5587 217.405 21.956 217.405 21.1773C217.405 19.1613 219.117 18.1267 222.541 18.0733C222.509 17.7107 222.371 17.4653 222.125 17.3373C221.88 17.1987 221.464 17.1293 220.877 17.1293C220.397 17.1293 219.88 17.1827 219.325 17.2893C218.781 17.3853 218.28 17.5187 217.821 17.6893V14.7453C218.387 14.6067 219 14.4947 219.661 14.4093C220.323 14.324 220.968 14.2813 221.597 14.2813C223.187 14.2813 224.323 14.5693 225.005 15.1453C225.688 15.7213 226.029 16.612 226.029 17.8173V20.7773H226.733ZM222.509 19.6573C222.029 19.6573 221.656 19.7213 221.389 19.8493C221.133 19.9773 221.005 20.1907 221.005 20.4893C221.005 20.6707 221.059 20.82 221.165 20.9373C221.283 21.044 221.443 21.0973 221.645 21.0973C221.923 21.0973 222.136 20.98 222.285 20.7453C222.435 20.5107 222.509 20.18 222.509 19.7533V19.6573ZM234.081 14.2813C234.294 14.2813 234.497 14.3027 234.689 14.3453C234.881 14.388 235.041 14.4413 235.169 14.5053V17.5613C234.732 17.38 234.262 17.2893 233.761 17.2893C233.089 17.2893 232.572 17.4653 232.209 17.8173C231.846 18.1693 231.665 18.692 231.665 19.3853V20.7773H233.105V23.4013H227.281V20.7773H227.985V17.1293H227.281V14.5053H231.665V15.6733C231.964 15.2253 232.305 14.884 232.689 14.6493C233.073 14.404 233.537 14.2813 234.081 14.2813ZM238.838 23.6253C237.75 23.6253 236.929 23.22 236.374 22.4093C235.83 21.5987 235.558 20.4467 235.558 18.9533C235.558 17.46 235.83 16.308 236.374 15.4973C236.929 14.6867 237.75 14.2813 238.838 14.2813C239.382 14.2813 239.862 14.4147 240.278 14.6813C240.705 14.948 241.052 15.252 241.318 15.5933V13.5773H240.374V10.9533H244.998V20.7773H245.702V23.4013H241.318V22.3133C241.052 22.6547 240.705 22.9587 240.278 23.2253C239.862 23.492 239.382 23.6253 238.838 23.6253ZM240.39 20.7773C240.7 20.7773 240.929 20.6973 241.078 20.5373C241.238 20.3667 241.318 20.1053 241.318 19.7533V18.1533C241.318 17.8013 241.238 17.5453 241.078 17.3853C240.929 17.2147 240.7 17.1293 240.39 17.1293C240.081 17.1293 239.846 17.2147 239.686 17.3853C239.537 17.5453 239.462 17.8013 239.462 18.1533V19.7533C239.462 20.1053 239.537 20.3667 239.686 20.5373C239.846 20.6973 240.081 20.7773 240.39 20.7773ZM246.986 13.6253V10.9533H250.25V13.6253H246.986ZM246.218 23.4013V20.7773H246.922V17.1293H246.218V14.5053H250.602V20.7773H251.306V23.4013H246.218ZM256.517 23.6253C255.002 23.6253 253.818 23.2307 252.965 22.4413C252.112 21.6413 251.685 20.4787 251.685 18.9533C251.685 17.428 252.112 16.2707 252.965 15.4813C253.818 14.6813 255.002 14.2813 256.517 14.2813C258.021 14.2813 259.104 14.676 259.765 15.4653C260.437 16.244 260.773 17.2147 260.773 18.3773V19.5293H255.589V19.6253C255.589 20.02 255.706 20.3133 255.941 20.5053C256.176 20.6867 256.565 20.7773 257.109 20.7773C257.76 20.7773 258.378 20.7293 258.965 20.6333C259.552 20.5373 260.064 20.4147 260.501 20.2653V22.8253C260.128 23.028 259.578 23.2147 258.853 23.3853C258.138 23.5453 257.36 23.6253 256.517 23.6253ZM257.445 17.7693V17.5773C257.445 17.2147 257.365 16.9533 257.205 16.7933C257.056 16.6333 256.826 16.5533 256.517 16.5533C256.208 16.5533 255.973 16.6387 255.813 16.8093C255.664 16.9693 255.589 17.2253 255.589 17.5773V17.7693H257.445ZM271.873 20.7773V23.4013H266.817V20.7773H267.489V18.1533C267.489 17.8013 267.414 17.5453 267.265 17.3853C267.116 17.2147 266.892 17.1293 266.593 17.1293C265.953 17.1293 265.633 17.4707 265.633 18.1533V20.7773H266.305V23.4013H261.249V20.7773H261.953V17.1293H261.249V14.5053H265.633V15.7533C266.401 14.772 267.361 14.2813 268.513 14.2813C269.398 14.2813 270.06 14.5587 270.497 15.1133C270.945 15.668 271.169 16.4307 271.169 17.4013V20.7773H271.873ZM280.338 23.6253C279.25 23.6253 278.429 23.22 277.874 22.4093C277.33 21.5987 277.058 20.4467 277.058 18.9533C277.058 17.46 277.33 16.308 277.874 15.4973C278.429 14.6867 279.25 14.2813 280.338 14.2813C280.882 14.2813 281.362 14.4147 281.778 14.6813C282.205 14.948 282.552 15.252 282.818 15.5933V13.5773H281.874V10.9533H286.498V20.7773H287.202V23.4013H282.818V22.3133C282.552 22.6547 282.205 22.9587 281.778 23.2253C281.362 23.492 280.882 23.6253 280.338 23.6253ZM281.89 20.7773C282.2 20.7773 282.429 20.6973 282.578 20.5373C282.738 20.3667 282.818 20.1053 282.818 19.7533V18.1533C282.818 17.8013 282.738 17.5453 282.578 17.3853C282.429 17.2147 282.2 17.1293 281.89 17.1293C281.581 17.1293 281.346 17.2147 281.186 17.3853C281.037 17.5453 280.962 17.8013 280.962 18.1533V19.7533C280.962 20.1053 281.037 20.3667 281.186 20.5373C281.346 20.6973 281.581 20.7773 281.89 20.7773ZM298.246 20.7773V23.4013H293.862V22.1533C293.094 23.1347 292.134 23.6253 290.982 23.6253C290.096 23.6253 289.43 23.348 288.982 22.7933C288.544 22.2387 288.326 21.476 288.326 20.5053V17.1293H287.622V14.5053H292.006V19.7533C292.006 20.1053 292.08 20.3667 292.23 20.5373C292.39 20.6973 292.624 20.7773 292.934 20.7773C293.243 20.7773 293.472 20.6973 293.622 20.5373C293.782 20.3667 293.862 20.1053 293.862 19.7533V17.1293H292.998V14.5053H297.542V20.7773H298.246ZM240.479 35.7773V38.4013H235.423V35.7773H236.095V33.1533C236.095 32.8013 236.021 32.5453 235.871 32.3853C235.722 32.2147 235.498 32.1293 235.199 32.1293C234.559 32.1293 234.239 32.4707 234.239 33.1533V35.7773H234.911V38.4013H229.887V35.7773H230.559V33.1533C230.559 32.8013 230.485 32.5453 230.335 32.3853C230.186 32.2147 229.962 32.1293 229.663 32.1293C229.023 32.1293 228.703 32.4707 228.703 33.1533V35.7773H229.375V38.4013H224.319V35.7773H225.023V32.1293H224.319V29.5053H228.703V30.7533C229.471 29.772 230.431 29.2813 231.583 29.2813C232.234 29.2813 232.762 29.436 233.167 29.7453C233.583 30.044 233.877 30.4707 234.047 31.0253C234.431 30.4707 234.869 30.044 235.359 29.7453C235.861 29.4467 236.447 29.2973 237.119 29.2973C238.005 29.2973 238.666 29.5747 239.103 30.1293C239.551 30.684 239.775 31.4467 239.775 32.4173V35.7773H240.479ZM251.519 35.7773V38.4013H247.135V37.1533C246.367 38.1347 245.407 38.6253 244.255 38.6253C243.37 38.6253 242.703 38.348 242.255 37.7933C241.818 37.2387 241.599 36.476 241.599 35.5053V32.1293H240.895V29.5053H245.279V34.7533C245.279 35.1053 245.354 35.3667 245.503 35.5373C245.663 35.6973 245.898 35.7773 246.207 35.7773C246.516 35.7773 246.746 35.6973 246.895 35.5373C247.055 35.3667 247.135 35.1053 247.135 34.7533V32.1293H246.271V29.5053H250.815V35.7773H251.519ZM255.848 38.6253C254.504 38.6253 253.208 38.412 251.96 37.9853V35.6173H254.552V35.7773C254.552 36.2893 254.877 36.5453 255.528 36.5453C256.104 36.5453 256.392 36.348 256.392 35.9533C256.392 35.74 256.307 35.58 256.136 35.4733C255.976 35.3667 255.688 35.276 255.272 35.2013L254.472 35.0573C252.797 34.7587 251.96 33.8093 251.96 32.2093C251.96 31.2813 252.312 30.5613 253.016 30.0493C253.72 29.5373 254.669 29.2813 255.864 29.2813C257.197 29.2813 258.323 29.5053 259.24 29.9533V32.1773H256.808V32.0173C256.808 31.804 256.733 31.644 256.584 31.5373C256.445 31.42 256.237 31.3613 255.96 31.3613C255.427 31.3613 255.16 31.532 255.16 31.8733C255.16 32.0547 255.235 32.1933 255.384 32.2893C255.533 32.3853 255.805 32.476 256.2 32.5613L257.112 32.7373C258.061 32.9187 258.739 33.2547 259.144 33.7453C259.549 34.236 259.752 34.8653 259.752 35.6333C259.752 36.604 259.411 37.3453 258.728 37.8573C258.056 38.3693 257.096 38.6253 255.848 38.6253ZM265.025 38.6253C263.51 38.6253 262.326 38.2307 261.473 37.4413C260.619 36.6413 260.193 35.4787 260.193 33.9533C260.193 32.428 260.619 31.2707 261.473 30.4813C262.326 29.6813 263.51 29.2813 265.025 29.2813C266.529 29.2813 267.611 29.676 268.273 30.4653C268.945 31.244 269.281 32.2147 269.281 33.3773V34.5293H264.097V34.6253C264.097 35.02 264.214 35.3133 264.449 35.5053C264.683 35.6867 265.073 35.7773 265.617 35.7773C266.267 35.7773 266.886 35.7293 267.473 35.6333C268.059 35.5373 268.571 35.4147 269.009 35.2653V37.8253C268.635 38.028 268.086 38.2147 267.361 38.3853C266.646 38.5453 265.867 38.6253 265.025 38.6253ZM265.953 32.7693V32.5773C265.953 32.2147 265.873 31.9533 265.713 31.7933C265.563 31.6333 265.334 31.5533 265.025 31.5533C264.715 31.5533 264.481 31.6387 264.321 31.8093C264.171 31.9693 264.097 32.2253 264.097 32.5773V32.7693H265.953ZM263.633 28.5453V28.3053L265.377 25.8733H268.801V26.3053L266.193 28.5453H263.633ZM274.525 38.6253C273.01 38.6253 271.826 38.2307 270.973 37.4413C270.119 36.6413 269.693 35.4787 269.693 33.9533C269.693 32.428 270.119 31.2707 270.973 30.4813C271.826 29.6813 273.01 29.2813 274.525 29.2813C276.029 29.2813 277.111 29.676 277.773 30.4653C278.445 31.244 278.781 32.2147 278.781 33.3773V34.5293H273.597V34.6253C273.597 35.02 273.714 35.3133 273.949 35.5053C274.183 35.6867 274.573 35.7773 275.117 35.7773C275.767 35.7773 276.386 35.7293 276.973 35.6333C277.559 35.5373 278.071 35.4147 278.509 35.2653V37.8253C278.135 38.028 277.586 38.2147 276.861 38.3853C276.146 38.5453 275.367 38.6253 274.525 38.6253ZM275.453 32.7693V32.5773C275.453 32.2147 275.373 31.9533 275.213 31.7933C275.063 31.6333 274.834 31.5533 274.525 31.5533C274.215 31.5533 273.981 31.6387 273.821 31.8093C273.671 31.9693 273.597 32.2253 273.597 32.5773V32.7693H275.453Z" fill="white"/>
<g filter="url(#filter0_d_407_102)">
<mask id="path-3-inside-1_407_102" fill="white">
<path d="M4 84C4 67.4315 17.4315 54 34 54H304.334C315.195 54 324 62.8048 324 73.6661V73.6661C324 84.5275 315.195 93.3323 304.334 93.3323H4V84Z"/>
</mask>
<path d="M4 84C4 67.4315 17.4315 54 34 54H304.334C315.195 54 324 62.8048 324 73.6661V73.6661C324 84.5275 315.195 93.3323 304.334 93.3323H4V84Z" fill="#F3E2C7"/>
<path d="M2 84C2 66.3269 16.3269 52 34 52H305.334C316.747 52 326 61.2525 326 72.6661L322 73.6661C322 63.9094 314.091 56 304.334 56H34C18.536 56 6 68.536 6 84H2ZM324 93.3323H4H324ZM2 93.3323V84C2 66.3269 16.3269 52 34 52V56C18.536 56 6 68.536 6 84V93.3323H2ZM305.334 52C316.747 52 326 61.2525 326 72.6661C326 84.0797 316.747 93.3323 305.334 93.3323H304.334C314.091 93.3323 322 84.5275 322 73.6661C322 63.9094 314.091 56 304.334 56L305.334 52Z" fill="black" mask="url(#path-3-inside-1_407_102)"/>
</g>
<mask id="path-5-inside-2_407_102" fill="white">
<path d="M4 140H306C315.941 140 324 148.059 324 158V158C324 167.941 315.941 176 306 176H34C17.4315 176 4 162.569 4 146V140Z"/>
</mask>
<path d="M4 140H306C315.941 140 324 148.059 324 158V158C324 167.941 315.941 176 306 176H34C17.4315 176 4 162.569 4 146V140Z" fill="#F3E2C7"/>
<path d="M4 140H324H4ZM326 159.5C326 170.27 317.27 179 306.5 179H34C16.3269 179 2 164.673 2 147L6 146C6 160.912 18.536 173 34 173H306C314.837 173 322 166.284 322 158L326 159.5ZM34 179C16.3269 179 2 164.673 2 147V140H6V146C6 160.912 18.536 173 34 173V179ZM306.5 140C317.27 140 326 148.73 326 159.5C326 170.27 317.27 179 306.5 179L306 173C314.837 173 322 166.284 322 158C322 148.059 314.837 140 306 140H306.5Z" fill="black" mask="url(#path-5-inside-2_407_102)"/>
<mask id="path-7-inside-3_407_102" fill="white">
<path d="M4 86H294C310.569 86 324 99.4315 324 116V125H34C17.4315 125 4 111.569 4 95V86Z"/>
</mask>
<path d="M4 86H294C310.569 86 324 99.4315 324 116V125H34C17.4315 125 4 111.569 4 95V86Z" fill="#F3E2C7"/>
<path d="M4 86H324H4ZM324 125H4H324ZM34 125C16.3269 125 2 110.673 2 93V86H6V95C6 111.569 18.536 125 34 125ZM294 86C311.673 86 326 100.327 326 118V125H322V116C322 99.4315 309.464 86 294 86Z" fill="black" mask="url(#path-7-inside-3_407_102)"/>
<mask id="path-9-inside-4_407_102" fill="white">
<path d="M4 145.251C4 130.769 15.7398 119.029 30.2215 119.029H324V119.029C324 133.511 312.26 145.251 297.778 145.251H4V145.251Z"/>
</mask>
<path d="M4 145.251C4 130.769 15.7398 119.029 30.2215 119.029H324V119.029C324 133.511 312.26 145.251 297.778 145.251H4V145.251Z" fill="#F3E2C7"/>
<path d="M4 119.029H324H4ZM324 145.251H4H324ZM2 145.251C2 130.769 13.7398 119.029 28.2215 119.029H30.2215C16.8443 119.029 6 130.769 6 145.251H2ZM326 119.029C326 133.511 314.26 145.251 299.778 145.251H297.778C311.156 145.251 322 133.511 322 119.029H326Z" fill="black" mask="url(#path-9-inside-4_407_102)"/>
<path d="M185.117 36.6697L176.396 57.0546C176.238 57.4226 175.877 57.6613 175.476 57.6613H162.523C161.617 57.6613 161.178 56.5534 161.838 55.9328L183.512 35.5479C184.302 34.8055 185.543 35.6734 185.117 36.6697Z" fill="#F3E2C7" stroke="black" stroke-width="2"/>
<rect width="20" height="3.04724" transform="matrix(1 0 0 -1 160 58.8432)" fill="#F3E2C7"/>
<defs>
<filter id="filter0_d_407_102" x="0" y="54" width="328" height="47.3323" filterUnits="userSpaceOnUse" color-interpolation-filters="sRGB">
<feFlood flood-opacity="0" result="BackgroundImageFix"/>
<feColorMatrix in="SourceAlpha" type="matrix" values="0 0 0 0 0 0 0 0 0 0 0 0 0 0 0 0 0 0 127 0" result="hardAlpha"/>
<feOffset dy="4"/>
<feGaussianBlur stdDeviation="2"/>
<feComposite in2="hardAlpha" operator="out"/>
<feColorMatrix type="matrix" values="0 0 0 0 0 0 0 0 0 0 0 0 0 0 0 0 0 0 0.25 0"/>
<feBlend mode="normal" in2="BackgroundImageFix" result="effect1_dropShadow_407_102"/>
<feBlend mode="normal" in="SourceGraphic" in2="effect1_dropShadow_407_102" result="shape"/>
</filter>
<linearGradient id="paint0_linear_407_102" x1="189" y1="25.4013" x2="314" y2="25.4013" gradientUnits="userSpaceOnUse">
<stop stop-color="#581616"/>
</linearGradient>
</defs>
</svg>
