<svg width="328" height="176" viewBox="0 0 328 176" fill="none" xmlns="http://www.w3.org/2000/svg">
<rect x="190.5" y="1.5" width="122" height="47.8027" rx="8.5" fill="url(#paint0_linear_306_1183)"/>
<rect x="190.5" y="1.5" width="122" height="47.8027" rx="8.5" stroke="white" stroke-width="3"/>
<path d="M231.626 10.9533H236.97V13.5773H236.33L233.466 23.4013H228.282L225.418 13.5773H224.778V10.9533H230.922V13.5773H230.09L231.194 18.9373H231.354L232.458 13.5773H231.626V10.9533ZM238.22 13.6253V10.9533H241.484V13.6253H238.22ZM237.452 23.4013V20.7773H238.156V17.1293H237.452V14.5053H241.836V20.7773H242.54V23.4013H237.452ZM247.751 23.6253C246.237 23.6253 245.053 23.2307 244.199 22.4413C243.346 21.6413 242.919 20.4787 242.919 18.9533C242.919 17.428 243.346 16.2707 244.199 15.4813C245.053 14.6813 246.237 14.2813 247.751 14.2813C249.255 14.2813 250.338 14.676 250.999 15.4653C251.671 16.244 252.007 17.2147 252.007 18.3773V19.5293H246.823V19.6253C246.823 20.02 246.941 20.3133 247.175 20.5053C247.41 20.6867 247.799 20.7773 248.343 20.7773C248.994 20.7773 249.613 20.7293 250.199 20.6333C250.786 20.5373 251.298 20.4147 251.735 20.2653V22.8253C251.362 23.028 250.813 23.2147 250.087 23.3853C249.373 23.5453 248.594 23.6253 247.751 23.6253ZM248.679 17.7693V17.5773C248.679 17.2147 248.599 16.9533 248.439 16.7933C248.29 16.6333 248.061 16.5533 247.751 16.5533C247.442 16.5533 247.207 16.6387 247.047 16.8093C246.898 16.9693 246.823 17.2253 246.823 17.5773V17.7693H248.679ZM253.251 13.6253V10.9533H256.515V13.6253H253.251ZM252.483 23.4013V20.7773H253.187V17.1293H252.483V14.5053H256.867V20.7773H257.571V23.4013H252.483ZM258.015 23.4173V20.7773H258.719V13.5773H258.015V10.9533H262.399V20.7773H263.103V23.4173H258.015ZM263.608 23.4173V20.7773H264.312V13.5773H263.608V10.9533H267.992V20.7773H268.696V23.4173H263.608ZM273.97 23.6253C272.455 23.6253 271.271 23.2307 270.418 22.4413C269.565 21.6413 269.138 20.4787 269.138 18.9533C269.138 17.428 269.565 16.2707 270.418 15.4813C271.271 14.6813 272.455 14.2813 273.97 14.2813C275.474 14.2813 276.557 14.676 277.218 15.4653C277.89 16.244 278.226 17.2147 278.226 18.3773V19.5293H273.042V19.6253C273.042 20.02 273.159 20.3133 273.394 20.5053C273.629 20.6867 274.018 20.7773 274.562 20.7773C275.213 20.7773 275.831 20.7293 276.418 20.6333C277.005 20.5373 277.517 20.4147 277.954 20.2653V22.8253C277.581 23.028 277.031 23.2147 276.306 23.3853C275.591 23.5453 274.813 23.6253 273.97 23.6253ZM274.898 17.7693V17.5773C274.898 17.2147 274.818 16.9533 274.658 16.7933C274.509 16.6333 274.279 16.5533 273.97 16.5533C273.661 16.5533 273.426 16.6387 273.266 16.8093C273.117 16.9693 273.042 17.2253 273.042 17.5773V17.7693H274.898ZM218.574 38.6253C217.23 38.6253 215.934 38.412 214.686 37.9853V35.6173H217.278V35.7773C217.278 36.2893 217.604 36.5453 218.254 36.5453C218.83 36.5453 219.118 36.348 219.118 35.9533C219.118 35.74 219.033 35.58 218.862 35.4733C218.702 35.3667 218.414 35.276 217.998 35.2013L217.198 35.0573C215.524 34.7587 214.686 33.8093 214.686 32.2093C214.686 31.2813 215.038 30.5613 215.742 30.0493C216.446 29.5373 217.396 29.2813 218.59 29.2813C219.924 29.2813 221.049 29.5053 221.966 29.9533V32.1773H219.534V32.0173C219.534 31.804 219.46 31.644 219.31 31.5373C219.172 31.42 218.964 31.3613 218.686 31.3613C218.153 31.3613 217.886 31.532 217.886 31.8733C217.886 32.0547 217.961 32.1933 218.11 32.2893C218.26 32.3853 218.532 32.476 218.926 32.5613L219.838 32.7373C220.788 32.9187 221.465 33.2547 221.87 33.7453C222.276 34.236 222.478 34.8653 222.478 35.6333C222.478 36.604 222.137 37.3453 221.454 37.8573C220.782 38.3693 219.822 38.6253 218.574 38.6253ZM227.751 38.6253C226.237 38.6253 225.053 38.2307 224.199 37.4413C223.346 36.6413 222.919 35.4787 222.919 33.9533C222.919 32.428 223.346 31.2707 224.199 30.4813C225.053 29.6813 226.237 29.2813 227.751 29.2813C229.255 29.2813 230.338 29.676 230.999 30.4653C231.671 31.244 232.007 32.2147 232.007 33.3773V34.5293H226.823V34.6253C226.823 35.02 226.941 35.3133 227.175 35.5053C227.41 35.6867 227.799 35.7773 228.343 35.7773C228.994 35.7773 229.613 35.7293 230.199 35.6333C230.786 35.5373 231.298 35.4147 231.735 35.2653V37.8253C231.362 38.028 230.813 38.2147 230.087 38.3853C229.373 38.5453 228.594 38.6253 227.751 38.6253ZM228.679 32.7693V32.5773C228.679 32.2147 228.599 31.9533 228.439 31.7933C228.29 31.6333 228.061 31.5533 227.751 31.5533C227.442 31.5533 227.207 31.6387 227.047 31.8093C226.898 31.9693 226.823 32.2253 226.823 32.5773V32.7693H228.679ZM239.315 29.2813C239.529 29.2813 239.731 29.3027 239.923 29.3453C240.115 29.388 240.275 29.4413 240.403 29.5053V32.5613C239.966 32.38 239.497 32.2893 238.995 32.2893C238.323 32.2893 237.806 32.4653 237.443 32.8173C237.081 33.1693 236.899 33.692 236.899 34.3853V35.7773H238.339V38.4013H232.515V35.7773H233.219V32.1293H232.515V29.5053H236.899V30.6733C237.198 30.2253 237.539 29.884 237.923 29.6493C238.307 29.404 238.771 29.2813 239.315 29.2813ZM243.481 38.4013L241.465 32.1293H240.793V29.5053H245.737V32.1293H245.065L245.913 35.2973H246.073L246.921 32.1293H246.249V29.5053H250.889V32.1293H250.217L248.249 38.4013H243.481ZM260.514 35.7773V38.4013H256.29V37.3133C256.056 37.6547 255.725 37.9587 255.298 38.2253C254.882 38.492 254.37 38.6253 253.762 38.6253C252.962 38.6253 252.333 38.412 251.874 37.9853C251.416 37.5587 251.186 36.956 251.186 36.1773C251.186 34.1613 252.898 33.1267 256.322 33.0733C256.29 32.7107 256.152 32.4653 255.906 32.3373C255.661 32.1987 255.245 32.1293 254.658 32.1293C254.178 32.1293 253.661 32.1827 253.106 32.2893C252.562 32.3853 252.061 32.5187 251.602 32.6893V29.7453C252.168 29.6067 252.781 29.4947 253.442 29.4093C254.104 29.324 254.749 29.2813 255.378 29.2813C256.968 29.2813 258.104 29.5693 258.786 30.1453C259.469 30.7213 259.81 31.612 259.81 32.8173V35.7773H260.514ZM256.29 34.6573C255.81 34.6573 255.437 34.7213 255.17 34.8493C254.914 34.9773 254.786 35.1907 254.786 35.4893C254.786 35.6707 254.84 35.82 254.946 35.9373C255.064 36.044 255.224 36.0973 255.426 36.0973C255.704 36.0973 255.917 35.98 256.066 35.7453C256.216 35.5107 256.29 35.18 256.29 34.7533V34.6573ZM271.654 35.7773V38.4013H266.598V35.7773H267.27V33.1533C267.27 32.8013 267.196 32.5453 267.046 32.3853C266.897 32.2147 266.673 32.1293 266.374 32.1293C265.734 32.1293 265.414 32.4707 265.414 33.1533V35.7773H266.086V38.4013H261.03V35.7773H261.734V32.1293H261.03V29.5053H265.414V30.7533C266.182 29.772 267.142 29.2813 268.294 29.2813C269.18 29.2813 269.841 29.5587 270.278 30.1133C270.726 30.668 270.95 31.4307 270.95 32.4013V35.7773H271.654ZM276.123 38.6253C274.992 38.6253 274.139 38.3533 273.563 37.8093C272.997 37.2547 272.715 36.3267 272.715 35.0253V32.1293H272.011V29.5053C272.416 29.5053 272.72 29.404 272.923 29.2013C273.125 28.988 273.227 28.7 273.227 28.3373V27.6173H276.619V29.5053H278.779V32.1293H276.619V34.7533C276.619 35.1053 276.693 35.3667 276.843 35.5373C277.003 35.6973 277.237 35.7773 277.547 35.7773C277.952 35.7773 278.395 35.7293 278.875 35.6333V38.1453C278.576 38.2627 278.171 38.3693 277.659 38.4653C277.157 38.572 276.645 38.6253 276.123 38.6253ZM284.158 38.6253C282.643 38.6253 281.459 38.2307 280.606 37.4413C279.752 36.6413 279.326 35.4787 279.326 33.9533C279.326 32.428 279.752 31.2707 280.606 30.4813C281.459 29.6813 282.643 29.2813 284.158 29.2813C285.662 29.2813 286.744 29.676 287.406 30.4653C288.078 31.244 288.414 32.2147 288.414 33.3773V34.5293H283.23V34.6253C283.23 35.02 283.347 35.3133 283.582 35.5053C283.816 35.6867 284.206 35.7773 284.75 35.7773C285.4 35.7773 286.019 35.7293 286.606 35.6333C287.192 35.5373 287.704 35.4147 288.142 35.2653V37.8253C287.768 38.028 287.219 38.2147 286.494 38.3853C285.779 38.5453 285 38.6253 284.158 38.6253ZM285.086 32.7693V32.5773C285.086 32.2147 285.006 31.9533 284.846 31.7933C284.696 31.6333 284.467 31.5533 284.158 31.5533C283.848 31.5533 283.614 31.6387 283.454 31.8093C283.304 31.9693 283.23 32.2253 283.23 32.5773V32.7693H285.086Z" fill="white"/>
<g filter="url(#filter0_d_306_1183)">
<mask id="path-3-inside-1_306_1183" fill="white">
<path d="M4 84C4 67.4315 17.4315 54 34 54H304.334C315.195 54 324 62.8048 324 73.6661V73.6661C324 84.5275 315.195 93.3323 304.334 93.3323H4V84Z"/>
</mask>
<path d="M4 84C4 67.4315 17.4315 54 34 54H304.334C315.195 54 324 62.8048 324 73.6661V73.6661C324 84.5275 315.195 93.3323 304.334 93.3323H4V84Z" fill="#F3E2C7"/>
<path d="M2 84C2 66.3269 16.3269 52 34 52H305.334C316.747 52 326 61.2525 326 72.6661L322 73.6661C322 63.9094 314.091 56 304.334 56H34C18.536 56 6 68.536 6 84H2ZM324 93.3323H4H324ZM2 93.3323V84C2 66.3269 16.3269 52 34 52V56C18.536 56 6 68.536 6 84V93.3323H2ZM305.334 52C316.747 52 326 61.2525 326 72.6661C326 84.0797 316.747 93.3323 305.334 93.3323H304.334C314.091 93.3323 322 84.5275 322 73.6661C322 63.9094 314.091 56 304.334 56L305.334 52Z" fill="black" mask="url(#path-3-inside-1_306_1183)"/>
</g>
<mask id="path-5-inside-2_306_1183" fill="white">
<path d="M4 140H306C315.941 140 324 148.059 324 158V158C324 167.941 315.941 176 306 176H34C17.4315 176 4 162.569 4 146V140Z"/>
</mask>
<path d="M4 140H306C315.941 140 324 148.059 324 158V158C324 167.941 315.941 176 306 176H34C17.4315 176 4 162.569 4 146V140Z" fill="#F3E2C7"/>
<path d="M4 140H324H4ZM326 159.5C326 170.27 317.27 179 306.5 179H34C16.3269 179 2 164.673 2 147L6 146C6 160.912 18.536 173 34 173H306C314.837 173 322 166.284 322 158L326 159.5ZM34 179C16.3269 179 2 164.673 2 147V140H6V146C6 160.912 18.536 173 34 173V179ZM306.5 140C317.27 140 326 148.73 326 159.5C326 170.27 317.27 179 306.5 179L306 173C314.837 173 322 166.284 322 158C322 148.059 314.837 140 306 140H306.5Z" fill="black" mask="url(#path-5-inside-2_306_1183)"/>
<mask id="path-7-inside-3_306_1183" fill="white">
<path d="M4 86H294C310.569 86 324 99.4315 324 116V125H34C17.4315 125 4 111.569 4 95V86Z"/>
</mask>
<path d="M4 86H294C310.569 86 324 99.4315 324 116V125H34C17.4315 125 4 111.569 4 95V86Z" fill="#F3E2C7"/>
<path d="M4 86H324H4ZM324 125H4H324ZM34 125C16.3269 125 2 110.673 2 93V86H6V95C6 111.569 18.536 125 34 125ZM294 86C311.673 86 326 100.327 326 118V125H322V116C322 99.4315 309.464 86 294 86Z" fill="black" mask="url(#path-7-inside-3_306_1183)"/>
<mask id="path-9-inside-4_306_1183" fill="white">
<path d="M4 145.251C4 130.769 15.7398 119.029 30.2215 119.029H324V119.029C324 133.511 312.26 145.251 297.778 145.251H4V145.251Z"/>
</mask>
<path d="M4 145.251C4 130.769 15.7398 119.029 30.2215 119.029H324V119.029C324 133.511 312.26 145.251 297.778 145.251H4V145.251Z" fill="#F3E2C7"/>
<path d="M4 119.029H324H4ZM324 145.251H4H324ZM2 145.251C2 130.769 13.7398 119.029 28.2215 119.029H30.2215C16.8443 119.029 6 130.769 6 145.251H2ZM326 119.029C326 133.511 314.26 145.251 299.778 145.251H297.778C311.156 145.251 322 133.511 322 119.029H326Z" fill="black" mask="url(#path-9-inside-4_306_1183)"/>
<path d="M301.133 150.426C301.401 150.153 301.764 150 302.143 150C302.522 150 302.885 150.153 303.153 150.426L309.582 156.979C309.85 157.252 310 157.623 310 158.009C310 158.395 309.85 158.765 309.582 159.038L303.153 165.591C302.884 165.856 302.523 166.003 302.148 166C301.774 165.997 301.415 165.843 301.15 165.573C300.886 165.303 300.735 164.938 300.732 164.556C300.729 164.175 300.873 163.807 301.133 163.532L305 159.465H291.429C291.05 159.465 290.686 159.312 290.418 159.038C290.151 158.765 290 158.395 290 158.009C290 157.623 290.151 157.252 290.418 156.979C290.686 156.706 291.05 156.553 291.429 156.553H305L301.133 152.485C300.865 152.212 300.715 151.842 300.715 151.456C300.715 151.07 300.865 150.699 301.133 150.426Z" fill="black"/>
<path d="M185.117 36.6697L176.396 57.0546C176.238 57.4226 175.877 57.6613 175.476 57.6613H162.523C161.617 57.6613 161.178 56.5534 161.838 55.9328L183.512 35.5479C184.302 34.8055 185.543 35.6734 185.117 36.6697Z" fill="#F3E2C7" stroke="black" stroke-width="2"/>
<rect width="20" height="3.04724" transform="matrix(1 0 0 -1 160 58.8432)" fill="#F3E2C7"/>
<defs>
<filter id="filter0_d_306_1183" x="0" y="54" width="328" height="47.3323" filterUnits="userSpaceOnUse" color-interpolation-filters="sRGB">
<feFlood flood-opacity="0" result="BackgroundImageFix"/>
<feColorMatrix in="SourceAlpha" type="matrix" values="0 0 0 0 0 0 0 0 0 0 0 0 0 0 0 0 0 0 127 0" result="hardAlpha"/>
<feOffset dy="4"/>
<feGaussianBlur stdDeviation="2"/>
<feComposite in2="hardAlpha" operator="out"/>
<feColorMatrix type="matrix" values="0 0 0 0 0 0 0 0 0 0 0 0 0 0 0 0 0 0 0.25 0"/>
<feBlend mode="normal" in2="BackgroundImageFix" result="effect1_dropShadow_306_1183"/>
<feBlend mode="normal" in="SourceGraphic" in2="effect1_dropShadow_306_1183" result="shape"/>
</filter>
<linearGradient id="paint0_linear_306_1183" x1="189" y1="25.4013" x2="314" y2="25.4013" gradientUnits="userSpaceOnUse">
<stop stop-color="#581616"/>
</linearGradient>
</defs>
</svg>
