<svg width="328" height="166" viewBox="0 0 328 166" fill="none" xmlns="http://www.w3.org/2000/svg">
<rect x="187" y="0.802673" width="129" height="42.64" rx="10" fill="black"/>
<rect x="190.5" y="4.30267" width="122" height="35" rx="8.5" fill="url(#paint0_linear_163_3589)"/>
<rect x="190.5" y="4.30267" width="122" height="35" rx="8.5" stroke="#F9F1E7" stroke-width="3"/>
<path d="M232.86 15.3547H238.204V17.9787H237.564L234.7 27.8027H229.516L226.652 17.9787H226.012V15.3547H232.156V17.9787H231.324L232.428 23.3387H232.588L233.692 17.9787H232.86V15.3547ZM242.329 28.0267C240.815 28.0267 239.631 27.632 238.777 26.8427C237.924 26.0427 237.497 24.88 237.497 23.3547C237.497 21.8293 237.924 20.672 238.777 19.8827C239.631 19.0827 240.815 18.6827 242.329 18.6827C243.833 18.6827 244.916 19.0773 245.577 19.8667C246.249 20.6453 246.585 21.616 246.585 22.7787V23.9307H241.401V24.0267C241.401 24.4213 241.519 24.7147 241.753 24.9067C241.988 25.088 242.377 25.1787 242.921 25.1787C243.572 25.1787 244.191 25.1307 244.777 25.0347C245.364 24.9387 245.876 24.816 246.313 24.6667V27.2267C245.94 27.4293 245.391 27.616 244.665 27.7867C243.951 27.9467 243.172 28.0267 242.329 28.0267ZM243.257 22.1707V21.9787C243.257 21.616 243.177 21.3547 243.017 21.1947C242.868 21.0347 242.639 20.9547 242.329 20.9547C242.02 20.9547 241.785 21.04 241.625 21.2107C241.476 21.3707 241.401 21.6267 241.401 21.9787V22.1707H243.257ZM240.937 17.9467V17.7067L242.681 15.2747H246.105V15.7067L243.497 17.9467H240.937ZM257.685 25.1787V27.8027H252.629V25.1787H253.301V22.5547C253.301 22.2027 253.227 21.9467 253.077 21.7867C252.928 21.616 252.704 21.5307 252.405 21.5307C251.765 21.5307 251.445 21.872 251.445 22.5547V25.1787H252.117V27.8027H247.061V25.1787H247.765V21.5307H247.061V18.9067H251.445V20.1547C252.213 19.1733 253.173 18.6827 254.325 18.6827C255.211 18.6827 255.872 18.96 256.309 19.5147C256.757 20.0693 256.981 20.832 256.981 21.8027V25.1787H257.685ZM268.73 25.1787V27.8027H264.346V26.5547C263.578 27.536 262.618 28.0267 261.466 28.0267C260.581 28.0267 259.914 27.7493 259.466 27.1947C259.029 26.64 258.81 25.8773 258.81 24.9067V21.5307H258.106V18.9067H262.49V24.1547C262.49 24.5067 262.565 24.768 262.714 24.9387C262.874 25.0987 263.109 25.1787 263.418 25.1787C263.727 25.1787 263.957 25.0987 264.106 24.9387C264.266 24.768 264.346 24.5067 264.346 24.1547V21.5307H263.482V18.9067H268.026V25.1787H268.73ZM273.059 28.0267C271.715 28.0267 270.419 27.8133 269.171 27.3867V25.0187H271.763V25.1787C271.763 25.6907 272.088 25.9467 272.739 25.9467C273.315 25.9467 273.603 25.7493 273.603 25.3547C273.603 25.1413 273.517 24.9813 273.347 24.8747C273.187 24.768 272.899 24.6773 272.483 24.6027L271.683 24.4587C270.008 24.16 269.171 23.2107 269.171 21.6107C269.171 20.6827 269.523 19.9627 270.227 19.4507C270.931 18.9387 271.88 18.6827 273.075 18.6827C274.408 18.6827 275.533 18.9067 276.451 19.3547V21.5787H274.019V21.4187C274.019 21.2053 273.944 21.0453 273.795 20.9387C273.656 20.8213 273.448 20.7627 273.171 20.7627C272.637 20.7627 272.371 20.9333 272.371 21.2747C272.371 21.456 272.445 21.5947 272.595 21.6907C272.744 21.7867 273.016 21.8773 273.411 21.9627L274.323 22.1387C275.272 22.32 275.949 22.656 276.355 23.1467C276.76 23.6373 276.963 24.2667 276.963 25.0347C276.963 26.0053 276.621 26.7467 275.939 27.2587C275.267 27.7707 274.307 28.0267 273.059 28.0267Z" fill="white"/>
<g filter="url(#filter0_d_163_3589)">
<mask id="path-4-inside-1_163_3589" fill="white">
<path d="M4 74C4 57.4315 17.4315 44 34 44H304.334C315.195 44 324 52.8048 324 63.6661C324 74.5275 315.195 83.3323 304.334 83.3323H4V74Z"/>
</mask>
<path d="M4 74C4 57.4315 17.4315 44 34 44H304.334C315.195 44 324 52.8048 324 63.6661C324 74.5275 315.195 83.3323 304.334 83.3323H4V74Z" fill="#F3E2C7"/>
<path d="M2 74C2 56.3269 16.3269 42 34 42H305.334C316.747 42 326 51.2525 326 62.6661L322 63.6661C322 53.9094 314.091 46 304.334 46H34C18.536 46 6 58.536 6 74H2ZM324 83.3323H4H324ZM2 83.3323V74C2 56.3269 16.3269 42 34 42V46C18.536 46 6 58.536 6 74V83.3323H2ZM305.334 42C316.747 42 326 51.2525 326 62.6661C326 74.0797 316.747 83.3323 305.334 83.3323H304.334C314.091 83.3323 322 74.5275 322 63.6661C322 53.9094 314.091 46 304.334 46L305.334 42Z" fill="black" mask="url(#path-4-inside-1_163_3589)"/>
</g>
<mask id="path-6-inside-2_163_3589" fill="white">
<path d="M4 130H306C315.941 130 324 138.059 324 148C324 157.941 315.941 166 306 166H34C17.4315 166 4 152.569 4 136V130Z"/>
</mask>
<path d="M4 130H306C315.941 130 324 138.059 324 148C324 157.941 315.941 166 306 166H34C17.4315 166 4 152.569 4 136V130Z" fill="#F3E2C7"/>
<path d="M4 130H324H4ZM326 149.5C326 160.27 317.27 169 306.5 169H34C16.3269 169 2 154.673 2 137L6 136C6 150.912 18.536 163 34 163H306C314.837 163 322 156.284 322 148L326 149.5ZM34 169C16.3269 169 2 154.673 2 137V130H6V136C6 150.912 18.536 163 34 163V169ZM306.5 130C317.27 130 326 138.73 326 149.5C326 160.27 317.27 169 306.5 169L306 163C314.837 163 322 156.284 322 148C322 138.059 314.837 130 306 130H306.5Z" fill="black" mask="url(#path-6-inside-2_163_3589)"/>
<mask id="path-8-inside-3_163_3589" fill="white">
<path d="M4 76H294C310.569 76 324 89.4315 324 106V115H34C17.4315 115 4 101.569 4 85V76Z"/>
</mask>
<path d="M4 76H294C310.569 76 324 89.4315 324 106V115H34C17.4315 115 4 101.569 4 85V76Z" fill="#F3E2C7"/>
<path d="M4 76H324H4ZM324 115H4H324ZM34 115C16.3269 115 2 100.673 2 83V76H6V85C6 101.569 18.536 115 34 115ZM294 76C311.673 76 326 90.3269 326 108V115H322V106C322 89.4315 309.464 76 294 76Z" fill="black" mask="url(#path-8-inside-3_163_3589)"/>
<mask id="path-10-inside-4_163_3589" fill="white">
<path d="M4 135.251C4 120.769 15.7398 109.029 30.2215 109.029H324C324 123.511 312.26 135.251 297.778 135.251H4Z"/>
</mask>
<path d="M4 135.251C4 120.769 15.7398 109.029 30.2215 109.029H324C324 123.511 312.26 135.251 297.778 135.251H4Z" fill="#F3E2C7"/>
<path d="M4 109.029H324H4ZM324 135.251H4H324ZM2 135.251C2 120.769 13.7398 109.029 28.2215 109.029H30.2215C16.8443 109.029 6 120.769 6 135.251H2ZM326 109.029C326 123.511 314.26 135.251 299.778 135.251H297.778C311.156 135.251 322 123.511 322 109.029H326Z" fill="black" mask="url(#path-10-inside-4_163_3589)"/>
<path d="M301.133 140.426C301.401 140.153 301.764 140 302.143 140C302.522 140 302.885 140.153 303.153 140.426L309.582 146.979C309.85 147.252 310 147.623 310 148.009C310 148.395 309.85 148.765 309.582 149.038L303.153 155.591C302.884 155.856 302.523 156.003 302.148 156C301.774 155.997 301.415 155.843 301.15 155.573C300.886 155.303 300.735 154.938 300.732 154.556C300.729 154.175 300.873 153.807 301.133 153.532L305 149.465H291.429C291.05 149.465 290.686 149.312 290.418 149.038C290.151 148.765 290 148.395 290 148.009C290 147.623 290.151 147.252 290.418 146.979C290.686 146.706 291.05 146.553 291.429 146.553H305L301.133 142.485C300.865 142.212 300.715 141.842 300.715 141.456C300.715 141.07 300.865 140.699 301.133 140.426Z" fill="black"/>
<path d="M185.117 26.6697L176.396 47.0546C176.238 47.4226 175.877 47.6613 175.476 47.6613H162.523C161.617 47.6613 161.178 46.5534 161.838 45.9328L183.512 25.5479C184.302 24.8055 185.543 25.6734 185.117 26.6697Z" fill="#F3E2C7" stroke="black" stroke-width="2"/>
<rect width="20" height="3.04724" transform="matrix(1 0 0 -1 160 48.8432)" fill="#F3E2C7"/>
<defs>
<filter id="filter0_d_163_3589" x="0" y="44" width="328" height="47.3323" filterUnits="userSpaceOnUse" color-interpolation-filters="sRGB">
<feFlood flood-opacity="0" result="BackgroundImageFix"/>
<feColorMatrix in="SourceAlpha" type="matrix" values="0 0 0 0 0 0 0 0 0 0 0 0 0 0 0 0 0 0 127 0" result="hardAlpha"/>
<feOffset dy="4"/>
<feGaussianBlur stdDeviation="2"/>
<feComposite in2="hardAlpha" operator="out"/>
<feColorMatrix type="matrix" values="0 0 0 0 0 0 0 0 0 0 0 0 0 0 0 0 0 0 0.25 0"/>
<feBlend mode="normal" in2="BackgroundImageFix" result="effect1_dropShadow_163_3589"/>
<feBlend mode="normal" in="SourceGraphic" in2="effect1_dropShadow_163_3589" result="shape"/>
</filter>
<linearGradient id="paint0_linear_163_3589" x1="189" y1="21.8027" x2="314" y2="21.8027" gradientUnits="userSpaceOnUse">
<stop stop-color="#E08C30"/>
<stop offset="1" stop-color="#955410"/>
</linearGradient>
</defs>
</svg>
