<svg width="328" height="176" viewBox="0 0 328 176" fill="none" xmlns="http://www.w3.org/2000/svg">
<rect x="190.5" y="1.5" width="122" height="47.8027" rx="8.5" fill="url(#paint0_linear_163_3589)"/>
<rect x="190.5" y="1.5" width="122" height="47.8027" rx="8.5" stroke="white" stroke-width="3"/>
<path d="M232.86 18.9533H238.204V21.5773H237.564L234.7 31.4013H229.516L226.652 21.5773H226.012V18.9533H232.156V21.5773H231.324L232.428 26.9373H232.588L233.692 21.5773H232.86V18.9533ZM242.329 31.6253C240.815 31.6253 239.631 31.2307 238.777 30.4413C237.924 29.6413 237.497 28.4787 237.497 26.9533C237.497 25.428 237.924 24.2707 238.777 23.4813C239.631 22.6813 240.815 22.2813 242.329 22.2813C243.833 22.2813 244.916 22.676 245.577 23.4653C246.249 24.244 246.585 25.2147 246.585 26.3773V27.5293H241.401V27.6253C241.401 28.02 241.519 28.3133 241.753 28.5053C241.988 28.6867 242.377 28.7773 242.921 28.7773C243.572 28.7773 244.191 28.7293 244.777 28.6333C245.364 28.5373 245.876 28.4147 246.313 28.2653V30.8253C245.94 31.028 245.391 31.2147 244.665 31.3853C243.951 31.5453 243.172 31.6253 242.329 31.6253ZM243.257 25.7693V25.5773C243.257 25.2147 243.177 24.9533 243.017 24.7933C242.868 24.6333 242.639 24.5533 242.329 24.5533C242.02 24.5533 241.785 24.6387 241.625 24.8093C241.476 24.9693 241.401 25.2253 241.401 25.5773V25.7693H243.257ZM240.937 21.5453V21.3053L242.681 18.8733H246.105V19.3053L243.497 21.5453H240.937ZM257.685 28.7773V31.4013H252.629V28.7773H253.301V26.1533C253.301 25.8013 253.227 25.5453 253.077 25.3853C252.928 25.2147 252.704 25.1293 252.405 25.1293C251.765 25.1293 251.445 25.4707 251.445 26.1533V28.7773H252.117V31.4013H247.061V28.7773H247.765V25.1293H247.061V22.5053H251.445V23.7533C252.213 22.772 253.173 22.2813 254.325 22.2813C255.211 22.2813 255.872 22.5587 256.309 23.1133C256.757 23.668 256.981 24.4307 256.981 25.4013V28.7773H257.685ZM268.73 28.7773V31.4013H264.346V30.1533C263.578 31.1347 262.618 31.6253 261.466 31.6253C260.581 31.6253 259.914 31.348 259.466 30.7933C259.029 30.2387 258.81 29.476 258.81 28.5053V25.1293H258.106V22.5053H262.49V27.7533C262.49 28.1053 262.565 28.3667 262.714 28.5373C262.874 28.6973 263.109 28.7773 263.418 28.7773C263.727 28.7773 263.957 28.6973 264.106 28.5373C264.266 28.3667 264.346 28.1053 264.346 27.7533V25.1293H263.482V22.5053H268.026V28.7773H268.73ZM273.059 31.6253C271.715 31.6253 270.419 31.412 269.171 30.9853V28.6173H271.763V28.7773C271.763 29.2893 272.088 29.5453 272.739 29.5453C273.315 29.5453 273.603 29.348 273.603 28.9533C273.603 28.74 273.517 28.58 273.347 28.4733C273.187 28.3667 272.899 28.276 272.483 28.2013L271.683 28.0573C270.008 27.7587 269.171 26.8093 269.171 25.2093C269.171 24.2813 269.523 23.5613 270.227 23.0493C270.931 22.5373 271.88 22.2813 273.075 22.2813C274.408 22.2813 275.533 22.5053 276.451 22.9533V25.1773H274.019V25.0173C274.019 24.804 273.944 24.644 273.795 24.5373C273.656 24.42 273.448 24.3613 273.171 24.3613C272.637 24.3613 272.371 24.532 272.371 24.8733C272.371 25.0547 272.445 25.1933 272.595 25.2893C272.744 25.3853 273.016 25.476 273.411 25.5613L274.323 25.7373C275.272 25.9187 275.949 26.2547 276.355 26.7453C276.76 27.236 276.963 27.8653 276.963 28.6333C276.963 29.604 276.621 30.3453 275.939 30.8573C275.267 31.3693 274.307 31.6253 273.059 31.6253Z" fill="white"/>
<g filter="url(#filter0_d_163_3589)">
<mask id="path-3-inside-1_163_3589" fill="white">
<path d="M4 84C4 67.4315 17.4315 54 34 54H304.334C315.195 54 324 62.8048 324 73.6661V73.6661C324 84.5275 315.195 93.3323 304.334 93.3323H4V84Z"/>
</mask>
<path d="M4 84C4 67.4315 17.4315 54 34 54H304.334C315.195 54 324 62.8048 324 73.6661V73.6661C324 84.5275 315.195 93.3323 304.334 93.3323H4V84Z" fill="#F3E2C7"/>
<path d="M2 84C2 66.3269 16.3269 52 34 52H305.334C316.747 52 326 61.2525 326 72.6661L322 73.6661C322 63.9094 314.091 56 304.334 56H34C18.536 56 6 68.536 6 84H2ZM324 93.3323H4H324ZM2 93.3323V84C2 66.3269 16.3269 52 34 52V56C18.536 56 6 68.536 6 84V93.3323H2ZM305.334 52C316.747 52 326 61.2525 326 72.6661C326 84.0797 316.747 93.3323 305.334 93.3323H304.334C314.091 93.3323 322 84.5275 322 73.6661C322 63.9094 314.091 56 304.334 56L305.334 52Z" fill="black" mask="url(#path-3-inside-1_163_3589)"/>
</g>
<mask id="path-5-inside-2_163_3589" fill="white">
<path d="M4 140H306C315.941 140 324 148.059 324 158V158C324 167.941 315.941 176 306 176H34C17.4315 176 4 162.569 4 146V140Z"/>
</mask>
<path d="M4 140H306C315.941 140 324 148.059 324 158V158C324 167.941 315.941 176 306 176H34C17.4315 176 4 162.569 4 146V140Z" fill="#F3E2C7"/>
<path d="M4 140H324H4ZM326 159.5C326 170.27 317.27 179 306.5 179H34C16.3269 179 2 164.673 2 147L6 146C6 160.912 18.536 173 34 173H306C314.837 173 322 166.284 322 158L326 159.5ZM34 179C16.3269 179 2 164.673 2 147V140H6V146C6 160.912 18.536 173 34 173V179ZM306.5 140C317.27 140 326 148.73 326 159.5C326 170.27 317.27 179 306.5 179L306 173C314.837 173 322 166.284 322 158C322 148.059 314.837 140 306 140H306.5Z" fill="black" mask="url(#path-5-inside-2_163_3589)"/>
<mask id="path-7-inside-3_163_3589" fill="white">
<path d="M4 86H294C310.569 86 324 99.4315 324 116V125H34C17.4315 125 4 111.569 4 95V86Z"/>
</mask>
<path d="M4 86H294C310.569 86 324 99.4315 324 116V125H34C17.4315 125 4 111.569 4 95V86Z" fill="#F3E2C7"/>
<path d="M4 86H324H4ZM324 125H4H324ZM34 125C16.3269 125 2 110.673 2 93V86H6V95C6 111.569 18.536 125 34 125ZM294 86C311.673 86 326 100.327 326 118V125H322V116C322 99.4315 309.464 86 294 86Z" fill="black" mask="url(#path-7-inside-3_163_3589)"/>
<mask id="path-9-inside-4_163_3589" fill="white">
<path d="M4 145.251C4 130.769 15.7398 119.029 30.2215 119.029H324V119.029C324 133.511 312.26 145.251 297.778 145.251H4V145.251Z"/>
</mask>
<path d="M4 145.251C4 130.769 15.7398 119.029 30.2215 119.029H324V119.029C324 133.511 312.26 145.251 297.778 145.251H4V145.251Z" fill="#F3E2C7"/>
<path d="M4 119.029H324H4ZM324 145.251H4H324ZM2 145.251C2 130.769 13.7398 119.029 28.2215 119.029H30.2215C16.8443 119.029 6 130.769 6 145.251H2ZM326 119.029C326 133.511 314.26 145.251 299.778 145.251H297.778C311.156 145.251 322 133.511 322 119.029H326Z" fill="black" mask="url(#path-9-inside-4_163_3589)"/>
<path d="M301.133 150.426C301.401 150.153 301.764 150 302.143 150C302.522 150 302.885 150.153 303.153 150.426L309.582 156.979C309.85 157.252 310 157.623 310 158.009C310 158.395 309.85 158.765 309.582 159.038L303.153 165.591C302.884 165.856 302.523 166.003 302.148 166C301.774 165.997 301.415 165.843 301.15 165.573C300.886 165.303 300.735 164.938 300.732 164.556C300.729 164.175 300.873 163.807 301.133 163.532L305 159.465H291.429C291.05 159.465 290.686 159.312 290.418 159.038C290.151 158.765 290 158.395 290 158.009C290 157.623 290.151 157.252 290.418 156.979C290.686 156.706 291.05 156.553 291.429 156.553H305L301.133 152.485C300.865 152.212 300.715 151.842 300.715 151.456C300.715 151.07 300.865 150.699 301.133 150.426Z" fill="black"/>
<path d="M185.117 36.6697L176.396 57.0546C176.238 57.4226 175.877 57.6613 175.476 57.6613H162.523C161.617 57.6613 161.178 56.5534 161.838 55.9328L183.512 35.5479C184.302 34.8055 185.543 35.6734 185.117 36.6697Z" fill="#F3E2C7" stroke="black" stroke-width="2"/>
<rect width="20" height="3.04724" transform="matrix(1 0 0 -1 160 58.8432)" fill="#F3E2C7"/>
<defs>
<filter id="filter0_d_163_3589" x="0" y="54" width="328" height="47.3323" filterUnits="userSpaceOnUse" color-interpolation-filters="sRGB">
<feFlood flood-opacity="0" result="BackgroundImageFix"/>
<feColorMatrix in="SourceAlpha" type="matrix" values="0 0 0 0 0 0 0 0 0 0 0 0 0 0 0 0 0 0 127 0" result="hardAlpha"/>
<feOffset dy="4"/>
<feGaussianBlur stdDeviation="2"/>
<feComposite in2="hardAlpha" operator="out"/>
<feColorMatrix type="matrix" values="0 0 0 0 0 0 0 0 0 0 0 0 0 0 0 0 0 0 0.25 0"/>
<feBlend mode="normal" in2="BackgroundImageFix" result="effect1_dropShadow_163_3589"/>
<feBlend mode="normal" in="SourceGraphic" in2="effect1_dropShadow_163_3589" result="shape"/>
</filter>
<linearGradient id="paint0_linear_163_3589" x1="189" y1="25.4013" x2="314" y2="25.4013" gradientUnits="userSpaceOnUse">
<stop stop-color="#581616"/>
</linearGradient>
</defs>
</svg>
