<svg width="328" height="166" viewBox="0 0 328 166" fill="none" xmlns="http://www.w3.org/2000/svg">
<rect x="187" y="0.802673" width="129" height="42.64" rx="10" fill="black"/>
<rect x="190.5" y="4.30267" width="122" height="35" rx="8.5" fill="url(#paint0_linear_163_3555)"/>
<rect x="190.5" y="4.30267" width="122" height="35" rx="8.5" stroke="#F9F1E7" stroke-width="3"/>
<path d="M231.626 7.35467H236.97V9.97867H236.33L233.466 19.8027H228.282L225.418 9.97867H224.778V7.35467H230.922V9.97867H230.09L231.194 15.3387H231.354L232.458 9.97867H231.626V7.35467ZM238.22 10.0267V7.35467H241.484V10.0267H238.22ZM237.452 19.8027V17.1787H238.156V13.5307H237.452V10.9067H241.836V17.1787H242.54V19.8027H237.452ZM247.751 20.0267C246.237 20.0267 245.053 19.632 244.199 18.8427C243.346 18.0427 242.919 16.88 242.919 15.3547C242.919 13.8293 243.346 12.672 244.199 11.8827C245.053 11.0827 246.237 10.6827 247.751 10.6827C249.255 10.6827 250.338 11.0773 250.999 11.8667C251.671 12.6453 252.007 13.616 252.007 14.7787V15.9307H246.823V16.0267C246.823 16.4213 246.941 16.7147 247.175 16.9067C247.41 17.088 247.799 17.1787 248.343 17.1787C248.994 17.1787 249.613 17.1307 250.199 17.0347C250.786 16.9387 251.298 16.816 251.735 16.6667V19.2267C251.362 19.4293 250.813 19.616 250.087 19.7867C249.373 19.9467 248.594 20.0267 247.751 20.0267ZM248.679 14.1707V13.9787C248.679 13.616 248.599 13.3547 248.439 13.1947C248.29 13.0347 248.061 12.9547 247.751 12.9547C247.442 12.9547 247.207 13.04 247.047 13.2107C246.898 13.3707 246.823 13.6267 246.823 13.9787V14.1707H248.679ZM253.251 10.0267V7.35467H256.515V10.0267H253.251ZM252.483 19.8027V17.1787H253.187V13.5307H252.483V10.9067H256.867V17.1787H257.571V19.8027H252.483ZM258.015 19.8187V17.1787H258.719V9.97867H258.015V7.35467H262.399V17.1787H263.103V19.8187H258.015ZM263.608 19.8187V17.1787H264.312V9.97867H263.608V7.35467H267.992V17.1787H268.696V19.8187H263.608ZM273.97 20.0267C272.455 20.0267 271.271 19.632 270.418 18.8427C269.565 18.0427 269.138 16.88 269.138 15.3547C269.138 13.8293 269.565 12.672 270.418 11.8827C271.271 11.0827 272.455 10.6827 273.97 10.6827C275.474 10.6827 276.557 11.0773 277.218 11.8667C277.89 12.6453 278.226 13.616 278.226 14.7787V15.9307H273.042V16.0267C273.042 16.4213 273.159 16.7147 273.394 16.9067C273.629 17.088 274.018 17.1787 274.562 17.1787C275.213 17.1787 275.831 17.1307 276.418 17.0347C277.005 16.9387 277.517 16.816 277.954 16.6667V19.2267C277.581 19.4293 277.031 19.616 276.306 19.7867C275.591 19.9467 274.813 20.0267 273.97 20.0267ZM274.898 14.1707V13.9787C274.898 13.616 274.818 13.3547 274.658 13.1947C274.509 13.0347 274.279 12.9547 273.97 12.9547C273.661 12.9547 273.426 13.04 273.266 13.2107C273.117 13.3707 273.042 13.6267 273.042 13.9787V14.1707H274.898ZM218.574 35.0267C217.23 35.0267 215.934 34.8133 214.686 34.3867V32.0187H217.278V32.1787C217.278 32.6907 217.604 32.9467 218.254 32.9467C218.83 32.9467 219.118 32.7493 219.118 32.3547C219.118 32.1413 219.033 31.9813 218.862 31.8747C218.702 31.768 218.414 31.6773 217.998 31.6027L217.198 31.4587C215.524 31.16 214.686 30.2107 214.686 28.6107C214.686 27.6827 215.038 26.9627 215.742 26.4507C216.446 25.9387 217.396 25.6827 218.59 25.6827C219.924 25.6827 221.049 25.9067 221.966 26.3547V28.5787H219.534V28.4187C219.534 28.2053 219.46 28.0453 219.31 27.9387C219.172 27.8213 218.964 27.7627 218.686 27.7627C218.153 27.7627 217.886 27.9333 217.886 28.2747C217.886 28.456 217.961 28.5947 218.11 28.6907C218.26 28.7867 218.532 28.8773 218.926 28.9627L219.838 29.1387C220.788 29.32 221.465 29.656 221.87 30.1467C222.276 30.6373 222.478 31.2667 222.478 32.0347C222.478 33.0053 222.137 33.7467 221.454 34.2587C220.782 34.7707 219.822 35.0267 218.574 35.0267ZM227.751 35.0267C226.237 35.0267 225.053 34.632 224.199 33.8427C223.346 33.0427 222.919 31.88 222.919 30.3547C222.919 28.8293 223.346 27.672 224.199 26.8827C225.053 26.0827 226.237 25.6827 227.751 25.6827C229.255 25.6827 230.338 26.0773 230.999 26.8667C231.671 27.6453 232.007 28.616 232.007 29.7787V30.9307H226.823V31.0267C226.823 31.4213 226.941 31.7147 227.175 31.9067C227.41 32.088 227.799 32.1787 228.343 32.1787C228.994 32.1787 229.613 32.1307 230.199 32.0347C230.786 31.9387 231.298 31.816 231.735 31.6667V34.2267C231.362 34.4293 230.813 34.616 230.087 34.7867C229.373 34.9467 228.594 35.0267 227.751 35.0267ZM228.679 29.1707V28.9787C228.679 28.616 228.599 28.3547 228.439 28.1947C228.29 28.0347 228.061 27.9547 227.751 27.9547C227.442 27.9547 227.207 28.04 227.047 28.2107C226.898 28.3707 226.823 28.6267 226.823 28.9787V29.1707H228.679ZM239.315 25.6827C239.529 25.6827 239.731 25.704 239.923 25.7467C240.115 25.7893 240.275 25.8427 240.403 25.9067V28.9627C239.966 28.7813 239.497 28.6907 238.995 28.6907C238.323 28.6907 237.806 28.8667 237.443 29.2187C237.081 29.5707 236.899 30.0933 236.899 30.7867V32.1787H238.339V34.8027H232.515V32.1787H233.219V28.5307H232.515V25.9067H236.899V27.0747C237.198 26.6267 237.539 26.2853 237.923 26.0507C238.307 25.8053 238.771 25.6827 239.315 25.6827ZM243.481 34.8027L241.465 28.5307H240.793V25.9067H245.737V28.5307H245.065L245.913 31.6987H246.073L246.921 28.5307H246.249V25.9067H250.889V28.5307H250.217L248.249 34.8027H243.481ZM260.514 32.1787V34.8027H256.29V33.7147C256.056 34.056 255.725 34.36 255.298 34.6267C254.882 34.8933 254.37 35.0267 253.762 35.0267C252.962 35.0267 252.333 34.8133 251.874 34.3867C251.416 33.96 251.186 33.3573 251.186 32.5787C251.186 30.5627 252.898 29.528 256.322 29.4747C256.29 29.112 256.152 28.8667 255.906 28.7387C255.661 28.6 255.245 28.5307 254.658 28.5307C254.178 28.5307 253.661 28.584 253.106 28.6907C252.562 28.7867 252.061 28.92 251.602 29.0907V26.1467C252.168 26.008 252.781 25.896 253.442 25.8107C254.104 25.7253 254.749 25.6827 255.378 25.6827C256.968 25.6827 258.104 25.9707 258.786 26.5467C259.469 27.1227 259.81 28.0133 259.81 29.2187V32.1787H260.514ZM256.29 31.0587C255.81 31.0587 255.437 31.1227 255.17 31.2507C254.914 31.3787 254.786 31.592 254.786 31.8907C254.786 32.072 254.84 32.2213 254.946 32.3387C255.064 32.4453 255.224 32.4987 255.426 32.4987C255.704 32.4987 255.917 32.3813 256.066 32.1467C256.216 31.912 256.29 31.5813 256.29 31.1547V31.0587ZM271.654 32.1787V34.8027H266.598V32.1787H267.27V29.5547C267.27 29.2027 267.196 28.9467 267.046 28.7867C266.897 28.616 266.673 28.5307 266.374 28.5307C265.734 28.5307 265.414 28.872 265.414 29.5547V32.1787H266.086V34.8027H261.03V32.1787H261.734V28.5307H261.03V25.9067H265.414V27.1547C266.182 26.1733 267.142 25.6827 268.294 25.6827C269.18 25.6827 269.841 25.96 270.278 26.5147C270.726 27.0693 270.95 27.832 270.95 28.8027V32.1787H271.654ZM276.123 35.0267C274.992 35.0267 274.139 34.7547 273.563 34.2107C272.997 33.656 272.715 32.728 272.715 31.4267V28.5307H272.011V25.9067C272.416 25.9067 272.72 25.8053 272.923 25.6027C273.125 25.3893 273.227 25.1013 273.227 24.7387V24.0187H276.619V25.9067H278.779V28.5307H276.619V31.1547C276.619 31.5067 276.693 31.768 276.843 31.9387C277.003 32.0987 277.237 32.1787 277.547 32.1787C277.952 32.1787 278.395 32.1307 278.875 32.0347V34.5467C278.576 34.664 278.171 34.7707 277.659 34.8667C277.157 34.9733 276.645 35.0267 276.123 35.0267ZM284.158 35.0267C282.643 35.0267 281.459 34.632 280.606 33.8427C279.752 33.0427 279.326 31.88 279.326 30.3547C279.326 28.8293 279.752 27.672 280.606 26.8827C281.459 26.0827 282.643 25.6827 284.158 25.6827C285.662 25.6827 286.744 26.0773 287.406 26.8667C288.078 27.6453 288.414 28.616 288.414 29.7787V30.9307H283.23V31.0267C283.23 31.4213 283.347 31.7147 283.582 31.9067C283.816 32.088 284.206 32.1787 284.75 32.1787C285.4 32.1787 286.019 32.1307 286.606 32.0347C287.192 31.9387 287.704 31.816 288.142 31.6667V34.2267C287.768 34.4293 287.219 34.616 286.494 34.7867C285.779 34.9467 285 35.0267 284.158 35.0267ZM285.086 29.1707V28.9787C285.086 28.616 285.006 28.3547 284.846 28.1947C284.696 28.0347 284.467 27.9547 284.158 27.9547C283.848 27.9547 283.614 28.04 283.454 28.2107C283.304 28.3707 283.23 28.6267 283.23 28.9787V29.1707H285.086Z" fill="white"/>
<g filter="url(#filter0_d_163_3555)">
<mask id="path-4-inside-1_163_3555" fill="white">
<path d="M4 74C4 57.4315 17.4315 44 34 44H304.334C315.195 44 324 52.8048 324 63.6661C324 74.5275 315.195 83.3323 304.334 83.3323H4V74Z"/>
</mask>
<path d="M4 74C4 57.4315 17.4315 44 34 44H304.334C315.195 44 324 52.8048 324 63.6661C324 74.5275 315.195 83.3323 304.334 83.3323H4V74Z" fill="#F3E2C7"/>
<path d="M2 74C2 56.3269 16.3269 42 34 42H305.334C316.747 42 326 51.2525 326 62.6661L322 63.6661C322 53.9094 314.091 46 304.334 46H34C18.536 46 6 58.536 6 74H2ZM324 83.3323H4H324ZM2 83.3323V74C2 56.3269 16.3269 42 34 42V46C18.536 46 6 58.536 6 74V83.3323H2ZM305.334 42C316.747 42 326 51.2525 326 62.6661C326 74.0797 316.747 83.3323 305.334 83.3323H304.334C314.091 83.3323 322 74.5275 322 63.6661C322 53.9094 314.091 46 304.334 46L305.334 42Z" fill="black" mask="url(#path-4-inside-1_163_3555)"/>
</g>
<mask id="path-6-inside-2_163_3555" fill="white">
<path d="M4 130H306C315.941 130 324 138.059 324 148C324 157.941 315.941 166 306 166H34C17.4315 166 4 152.569 4 136V130Z"/>
</mask>
<path d="M4 130H306C315.941 130 324 138.059 324 148C324 157.941 315.941 166 306 166H34C17.4315 166 4 152.569 4 136V130Z" fill="#F3E2C7"/>
<path d="M4 130H324H4ZM326 149.5C326 160.27 317.27 169 306.5 169H34C16.3269 169 2 154.673 2 137L6 136C6 150.912 18.536 163 34 163H306C314.837 163 322 156.284 322 148L326 149.5ZM34 169C16.3269 169 2 154.673 2 137V130H6V136C6 150.912 18.536 163 34 163V169ZM306.5 130C317.27 130 326 138.73 326 149.5C326 160.27 317.27 169 306.5 169L306 163C314.837 163 322 156.284 322 148C322 138.059 314.837 130 306 130H306.5Z" fill="black" mask="url(#path-6-inside-2_163_3555)"/>
<mask id="path-8-inside-3_163_3555" fill="white">
<path d="M4 76H294C310.569 76 324 89.4315 324 106V115H34C17.4315 115 4 101.569 4 85V76Z"/>
</mask>
<path d="M4 76H294C310.569 76 324 89.4315 324 106V115H34C17.4315 115 4 101.569 4 85V76Z" fill="#F3E2C7"/>
<path d="M4 76H324H4ZM324 115H4H324ZM34 115C16.3269 115 2 100.673 2 83V76H6V85C6 101.569 18.536 115 34 115ZM294 76C311.673 76 326 90.3269 326 108V115H322V106C322 89.4315 309.464 76 294 76Z" fill="black" mask="url(#path-8-inside-3_163_3555)"/>
<mask id="path-10-inside-4_163_3555" fill="white">
<path d="M4 135.251C4 120.769 15.7398 109.029 30.2215 109.029H324C324 123.511 312.26 135.251 297.778 135.251H4Z"/>
</mask>
<path d="M4 135.251C4 120.769 15.7398 109.029 30.2215 109.029H324C324 123.511 312.26 135.251 297.778 135.251H4Z" fill="#F3E2C7"/>
<path d="M4 109.029H324H4ZM324 135.251H4H324ZM2 135.251C2 120.769 13.7398 109.029 28.2215 109.029H30.2215C16.8443 109.029 6 120.769 6 135.251H2ZM326 109.029C326 123.511 314.26 135.251 299.778 135.251H297.778C311.156 135.251 322 123.511 322 109.029H326Z" fill="black" mask="url(#path-10-inside-4_163_3555)"/>
<path d="M301.133 140.426C301.401 140.153 301.764 140 302.143 140C302.522 140 302.885 140.153 303.153 140.426L309.582 146.979C309.85 147.252 310 147.623 310 148.009C310 148.395 309.85 148.765 309.582 149.038L303.153 155.591C302.884 155.856 302.523 156.003 302.148 156C301.774 155.997 301.415 155.843 301.15 155.573C300.886 155.303 300.735 154.938 300.732 154.556C300.729 154.175 300.873 153.807 301.133 153.532L305 149.465H291.429C291.05 149.465 290.686 149.312 290.418 149.038C290.151 148.765 290 148.395 290 148.009C290 147.623 290.151 147.252 290.418 146.979C290.686 146.706 291.05 146.553 291.429 146.553H305L301.133 142.485C300.865 142.212 300.715 141.842 300.715 141.456C300.715 141.07 300.865 140.699 301.133 140.426Z" fill="black"/>
<path d="M185.117 26.6697L176.396 47.0546C176.238 47.4226 175.877 47.6613 175.476 47.6613H162.523C161.617 47.6613 161.178 46.5534 161.838 45.9328L183.512 25.5479C184.302 24.8055 185.543 25.6734 185.117 26.6697Z" fill="#F3E2C7" stroke="black" stroke-width="2"/>
<rect width="20" height="3.04724" transform="matrix(1 0 0 -1 160 48.8432)" fill="#F3E2C7"/>
<defs>
<filter id="filter0_d_163_3555" x="0" y="44" width="328" height="47.3323" filterUnits="userSpaceOnUse" color-interpolation-filters="sRGB">
<feFlood flood-opacity="0" result="BackgroundImageFix"/>
<feColorMatrix in="SourceAlpha" type="matrix" values="0 0 0 0 0 0 0 0 0 0 0 0 0 0 0 0 0 0 127 0" result="hardAlpha"/>
<feOffset dy="4"/>
<feGaussianBlur stdDeviation="2"/>
<feComposite in2="hardAlpha" operator="out"/>
<feColorMatrix type="matrix" values="0 0 0 0 0 0 0 0 0 0 0 0 0 0 0 0 0 0 0.25 0"/>
<feBlend mode="normal" in2="BackgroundImageFix" result="effect1_dropShadow_163_3555"/>
<feBlend mode="normal" in="SourceGraphic" in2="effect1_dropShadow_163_3555" result="shape"/>
</filter>
<linearGradient id="paint0_linear_163_3555" x1="189" y1="21.8027" x2="314" y2="21.8027" gradientUnits="userSpaceOnUse">
<stop stop-color="#E08C30"/>
<stop offset="1" stop-color="#955410"/>
</linearGradient>
</defs>
</svg>
