<svg width="328" height="166" viewBox="0 0 328 166" fill="none" xmlns="http://www.w3.org/2000/svg">
<rect x="187" y="0.802673" width="129" height="42.64" rx="10" fill="black"/>
<rect x="190.5" y="4.30267" width="122" height="35" rx="8.5" fill="url(#paint0_linear_163_3607)"/>
<rect x="190.5" y="4.30267" width="122" height="35" rx="8.5" stroke="#F9F1E7" stroke-width="3"/>
<path d="M231.875 27.8027V25.1787H232.675V17.9787H231.875V15.3547H237.955V17.9787H237.155V25.1787H237.955V27.8027H231.875ZM242.449 28.0267C241.105 28.0267 239.809 27.8133 238.561 27.3867V25.0187H241.153V25.1787C241.153 25.6907 241.479 25.9467 242.129 25.9467C242.705 25.9467 242.993 25.7493 242.993 25.3547C242.993 25.1413 242.908 24.9813 242.737 24.8747C242.577 24.768 242.289 24.6773 241.873 24.6027L241.073 24.4587C239.399 24.16 238.561 23.2107 238.561 21.6107C238.561 20.6827 238.913 19.9627 239.617 19.4507C240.321 18.9387 241.271 18.6827 242.465 18.6827C243.799 18.6827 244.924 18.9067 245.841 19.3547V21.5787H243.409V21.4187C243.409 21.2053 243.335 21.0453 243.185 20.9387C243.047 20.8213 242.839 20.7627 242.561 20.7627C242.028 20.7627 241.761 20.9333 241.761 21.2747C241.761 21.456 241.836 21.5947 241.985 21.6907C242.135 21.7867 242.407 21.8773 242.801 21.9627L243.713 22.1387C244.663 22.32 245.34 22.656 245.745 23.1467C246.151 23.6373 246.353 24.2667 246.353 25.0347C246.353 26.0053 246.012 26.7467 245.329 27.2587C244.657 27.7707 243.697 28.0267 242.449 28.0267ZM256.186 25.1787V27.8027H251.962V26.7147C251.728 27.056 251.397 27.36 250.97 27.6267C250.554 27.8933 250.042 28.0267 249.434 28.0267C248.634 28.0267 248.005 27.8133 247.546 27.3867C247.088 26.96 246.858 26.3573 246.858 25.5787C246.858 23.5627 248.57 22.528 251.994 22.4747C251.962 22.112 251.824 21.8667 251.578 21.7387C251.333 21.6 250.917 21.5307 250.33 21.5307C249.85 21.5307 249.333 21.584 248.778 21.6907C248.234 21.7867 247.733 21.92 247.274 22.0907V19.1467C247.84 19.008 248.453 18.896 249.114 18.8107C249.776 18.7253 250.421 18.6827 251.05 18.6827C252.64 18.6827 253.776 18.9707 254.458 19.5467C255.141 20.1227 255.482 21.0133 255.482 22.2187V25.1787H256.186ZM251.962 24.0587C251.482 24.0587 251.109 24.1227 250.842 24.2507C250.586 24.3787 250.458 24.592 250.458 24.8907C250.458 25.072 250.512 25.2213 250.618 25.3387C250.736 25.4453 250.896 25.4987 251.098 25.4987C251.376 25.4987 251.589 25.3813 251.738 25.1467C251.888 24.912 251.962 24.5813 251.962 24.1547V24.0587ZM256.702 27.8027V25.1787H257.406V21.5307H256.702V18.9067H261.086V25.1787H261.79V27.8027H256.702ZM255.71 17.7867V15.1147H258.382V17.7867H255.71ZM259.806 17.7867V15.1147H262.462V17.7867H259.806ZM267.001 28.0267C265.487 28.0267 264.303 27.632 263.449 26.8427C262.596 26.0427 262.169 24.88 262.169 23.3547C262.169 21.8293 262.596 20.672 263.449 19.8827C264.303 19.0827 265.487 18.6827 267.001 18.6827C268.505 18.6827 269.588 19.0773 270.249 19.8667C270.921 20.6453 271.257 21.616 271.257 22.7787V23.9307H266.073V24.0267C266.073 24.4213 266.191 24.7147 266.425 24.9067C266.66 25.088 267.049 25.1787 267.593 25.1787C268.244 25.1787 268.863 25.1307 269.449 25.0347C270.036 24.9387 270.548 24.816 270.985 24.6667V27.2267C270.612 27.4293 270.063 27.616 269.337 27.7867C268.623 27.9467 267.844 28.0267 267.001 28.0267ZM267.929 22.1707V21.9787C267.929 21.616 267.849 21.3547 267.689 21.1947C267.54 21.0347 267.311 20.9547 267.001 20.9547C266.692 20.9547 266.457 21.04 266.297 21.2107C266.148 21.3707 266.073 21.6267 266.073 21.9787V22.1707H267.929Z" fill="white"/>
<g filter="url(#filter0_d_163_3607)">
<mask id="path-4-inside-1_163_3607" fill="white">
<path d="M4 74C4 57.4315 17.4315 44 34 44H304.334C315.195 44 324 52.8048 324 63.6661C324 74.5275 315.195 83.3323 304.334 83.3323H4V74Z"/>
</mask>
<path d="M4 74C4 57.4315 17.4315 44 34 44H304.334C315.195 44 324 52.8048 324 63.6661C324 74.5275 315.195 83.3323 304.334 83.3323H4V74Z" fill="#F3E2C7"/>
<path d="M2 74C2 56.3269 16.3269 42 34 42H305.334C316.747 42 326 51.2525 326 62.6661L322 63.6661C322 53.9094 314.091 46 304.334 46H34C18.536 46 6 58.536 6 74H2ZM324 83.3323H4H324ZM2 83.3323V74C2 56.3269 16.3269 42 34 42V46C18.536 46 6 58.536 6 74V83.3323H2ZM305.334 42C316.747 42 326 51.2525 326 62.6661C326 74.0797 316.747 83.3323 305.334 83.3323H304.334C314.091 83.3323 322 74.5275 322 63.6661C322 53.9094 314.091 46 304.334 46L305.334 42Z" fill="black" mask="url(#path-4-inside-1_163_3607)"/>
</g>
<mask id="path-6-inside-2_163_3607" fill="white">
<path d="M4 130H306C315.941 130 324 138.059 324 148C324 157.941 315.941 166 306 166H34C17.4315 166 4 152.569 4 136V130Z"/>
</mask>
<path d="M4 130H306C315.941 130 324 138.059 324 148C324 157.941 315.941 166 306 166H34C17.4315 166 4 152.569 4 136V130Z" fill="#F3E2C7"/>
<path d="M4 130H324H4ZM326 149.5C326 160.27 317.27 169 306.5 169H34C16.3269 169 2 154.673 2 137L6 136C6 150.912 18.536 163 34 163H306C314.837 163 322 156.284 322 148L326 149.5ZM34 169C16.3269 169 2 154.673 2 137V130H6V136C6 150.912 18.536 163 34 163V169ZM306.5 130C317.27 130 326 138.73 326 149.5C326 160.27 317.27 169 306.5 169L306 163C314.837 163 322 156.284 322 148C322 138.059 314.837 130 306 130H306.5Z" fill="black" mask="url(#path-6-inside-2_163_3607)"/>
<mask id="path-8-inside-3_163_3607" fill="white">
<path d="M4 76H294C310.569 76 324 89.4315 324 106V115H34C17.4315 115 4 101.569 4 85V76Z"/>
</mask>
<path d="M4 76H294C310.569 76 324 89.4315 324 106V115H34C17.4315 115 4 101.569 4 85V76Z" fill="#F3E2C7"/>
<path d="M4 76H324H4ZM324 115H4H324ZM34 115C16.3269 115 2 100.673 2 83V76H6V85C6 101.569 18.536 115 34 115ZM294 76C311.673 76 326 90.3269 326 108V115H322V106C322 89.4315 309.464 76 294 76Z" fill="black" mask="url(#path-8-inside-3_163_3607)"/>
<mask id="path-10-inside-4_163_3607" fill="white">
<path d="M4 135.251C4 120.769 15.7398 109.029 30.2215 109.029H324C324 123.511 312.26 135.251 297.778 135.251H4Z"/>
</mask>
<path d="M4 135.251C4 120.769 15.7398 109.029 30.2215 109.029H324C324 123.511 312.26 135.251 297.778 135.251H4Z" fill="#F3E2C7"/>
<path d="M4 109.029H324H4ZM324 135.251H4H324ZM2 135.251C2 120.769 13.7398 109.029 28.2215 109.029H30.2215C16.8443 109.029 6 120.769 6 135.251H2ZM326 109.029C326 123.511 314.26 135.251 299.778 135.251H297.778C311.156 135.251 322 123.511 322 109.029H326Z" fill="black" mask="url(#path-10-inside-4_163_3607)"/>
<path d="M301.133 140.426C301.401 140.153 301.764 140 302.143 140C302.522 140 302.885 140.153 303.153 140.426L309.582 146.979C309.85 147.252 310 147.623 310 148.009C310 148.395 309.85 148.765 309.582 149.038L303.153 155.591C302.884 155.856 302.523 156.003 302.148 156C301.774 155.997 301.415 155.843 301.15 155.573C300.886 155.303 300.735 154.938 300.732 154.556C300.729 154.175 300.873 153.807 301.133 153.532L305 149.465H291.429C291.05 149.465 290.686 149.312 290.418 149.038C290.151 148.765 290 148.395 290 148.009C290 147.623 290.151 147.252 290.418 146.979C290.686 146.706 291.05 146.553 291.429 146.553H305L301.133 142.485C300.865 142.212 300.715 141.842 300.715 141.456C300.715 141.07 300.865 140.699 301.133 140.426Z" fill="black"/>
<path d="M185.117 26.6697L176.396 47.0546C176.238 47.4226 175.877 47.6613 175.476 47.6613H162.523C161.617 47.6613 161.178 46.5534 161.838 45.9328L183.512 25.5479C184.302 24.8055 185.543 25.6734 185.117 26.6697Z" fill="#F3E2C7" stroke="black" stroke-width="2"/>
<rect width="20" height="3.04724" transform="matrix(1 0 0 -1 160 48.8432)" fill="#F3E2C7"/>
<defs>
<filter id="filter0_d_163_3607" x="0" y="44" width="328" height="47.3323" filterUnits="userSpaceOnUse" color-interpolation-filters="sRGB">
<feFlood flood-opacity="0" result="BackgroundImageFix"/>
<feColorMatrix in="SourceAlpha" type="matrix" values="0 0 0 0 0 0 0 0 0 0 0 0 0 0 0 0 0 0 127 0" result="hardAlpha"/>
<feOffset dy="4"/>
<feGaussianBlur stdDeviation="2"/>
<feComposite in2="hardAlpha" operator="out"/>
<feColorMatrix type="matrix" values="0 0 0 0 0 0 0 0 0 0 0 0 0 0 0 0 0 0 0.25 0"/>
<feBlend mode="normal" in2="BackgroundImageFix" result="effect1_dropShadow_163_3607"/>
<feBlend mode="normal" in="SourceGraphic" in2="effect1_dropShadow_163_3607" result="shape"/>
</filter>
<linearGradient id="paint0_linear_163_3607" x1="189" y1="21.8027" x2="314" y2="21.8027" gradientUnits="userSpaceOnUse">
<stop stop-color="#E08C30"/>
<stop offset="1" stop-color="#955410"/>
</linearGradient>
</defs>
</svg>
