<svg width="59" height="65" viewBox="0 0 59 65" fill="none" xmlns="http://www.w3.org/2000/svg">
<path d="M3.856 44.304L3.76 44.496C3.664 44.4 3.664 44.112 3.568 43.632C3.184 41.616 2.416 39.792 1.264 37.968C0.688 37.104 0.592 36.336 0.88 35.76C1.168 35.088 1.552 34.8 2.8 33.552C4.048 32.304 4.336 31.824 4.72 31.344C4.816 30.96 4.816 30.96 4.816 29.904C4.816 29.232 4.816 28.848 4.72 28.56C4.432 27.984 3.76 27.024 2.608 25.584C2.416 25.2 1.84 24.624 1.648 24.432C0.592 23.088 0.592 21.84 1.552 20.784C1.936 20.496 2.896 19.92 2.896 19.92C2.896 19.92 2.8 20.016 2.608 20.208C1.552 21.168 1.648 22.416 2.896 23.952L4.432 25.584C5.776 27.12 6.256 27.6 6.544 28.176C7.696 30.672 6.832 33.456 4.432 34.224C3.376 34.704 2.608 35.28 2.32 35.952C2.032 36.624 2.32 37.488 2.896 38.544C3.76 39.6 3.952 40.176 4.048 41.328C4.144 42.384 4.144 43.344 3.856 44.304ZM27.28 64.656C26.224 64.752 25.168 64.752 24.304 64.656C22.288 64.368 20.848 63.504 19.984 62.064C18.928 60.24 18.832 57.648 19.696 54.288L20.176 52.752C20.56 51.312 20.272 51.6 21.328 51.504C22.864 51.216 23.92 51.12 24.4 50.64C24.784 50.352 25.072 49.968 25.936 48.816C27.088 47.664 26.992 47.76 26.512 46.992C26.128 46.224 25.168 44.4 24.496 43.536L24.112 42.864H23.728C23.344 42.864 22.96 42.864 22.48 42.768C20.272 42.576 18.928 41.904 18.448 40.848L18.256 40.368L18.16 38.928C18.16 37.104 18.16 37.104 17.68 36.336C17.392 35.952 17.296 35.568 17.584 35.088L17.776 34.8L17.104 35.28C15.568 36.432 14.416 37.488 13.648 38.544C12.88 39.6 12.592 40.176 12.208 42.384C11.824 44.496 11.44 45.36 10.96 47.088C8.848 52.176 6.352 53.328 4.048 50.736C3.184 49.776 2.32 48.528 1.648 46.896L1.264 46.128L1.456 45.936C1.744 45.648 2.32 45.456 3.184 45.456C3.664 45.456 4.144 45.552 4.624 45.648L5.296 45.744L5.392 46.32C5.68 47.184 5.968 47.664 6.448 47.856C7.504 48.24 8.464 47.28 9.424 45.072C9.712 44.592 10.096 43.44 10.672 41.808C11.728 38.256 13.84 35.856 17.104 34.8L17.776 34.608L17.584 34.512C17.104 34.224 16.72 33.072 16.72 31.824C16.72 31.152 16.72 30.96 16.24 30.96C15.568 30.864 15.088 30.672 14.704 30.384C14.32 30.096 14.128 29.904 14.128 29.616C14.128 28.944 15.184 26.832 16.72 24.816L17.392 23.952C17.392 23.568 16.336 22.704 16.336 21.936C16.336 21.072 16.72 20.208 17.392 19.344C17.776 18.672 17.968 18.384 18.064 18C18.064 17.712 17.872 17.424 17.392 17.232L15.952 16.368C15.856 16.272 15.568 16.272 15.088 16.176L11.152 15.6C9.424 15.312 8.56 15.216 8.56 15.12C8.56 15.12 9.04 15.024 9.808 15.024C13.264 14.928 15.664 14.16 17.008 12.72C17.392 12.336 17.68 11.952 17.776 11.472C18.448 9.456 19.312 7.824 20.56 6.576C23.056 4.17599 26.896 2.736 31.984 2.352H32.464L33.04 1.776C33.808 0.911997 34.096 0.815998 35.152 1.10399L37.072 1.68C41.488 2.832 44.176 3.792 45.232 4.464C46.288 5.232 45.136 6.096 45.52 7.536C45.52 8.20799 46.192 9.168 47.44 11.568C48.304 13.008 48.784 14.064 48.976 14.64C48.976 15.216 49.072 15.312 49.072 16.464C49.072 17.328 49.072 18 48.976 18.384C48.784 19.344 48.592 20.208 48.304 20.976C48.112 21.456 48.208 21.648 48.016 22.608V23.664L48.688 24.528C50.416 26.832 51.28 27.984 51.184 28.08C51.088 28.08 50.896 28.08 50.608 27.984C49.264 27.696 48.304 27.6 47.728 27.696C47.248 27.888 46.768 28.272 46.384 28.848C46.096 29.424 46 30 46 30.48V30.768L47.344 31.632L50.608 33.648L52.528 34.992V35.76L52.432 36.528L55.216 37.872C58.672 39.696 58.384 39.504 58.384 39.6C58.384 39.888 58.096 40.656 57.52 42.096C54.928 48.72 50.512 54.096 44.08 58.224C40.528 60.624 36.592 62.448 32.08 63.792C30.544 64.176 28.336 64.464 27.28 64.656Z" fill="white"/>
</svg>
