<svg width="230" height="188" viewBox="0 0 230 188" fill="none" xmlns="http://www.w3.org/2000/svg">
<path d="M189.125 131.147C189.521 131.532 190.154 131.523 190.539 131.127L196.814 124.676C197.199 124.28 197.19 123.647 196.794 123.261C196.398 122.876 195.765 122.885 195.38 123.281L189.803 129.016L184.068 123.438C183.672 123.053 183.039 123.062 182.654 123.458C182.269 123.854 182.277 124.487 182.673 124.872L189.125 131.147ZM37.5304 22.7339C38.2529 22.7527 38.9861 22.7761 39.7294 22.8043L39.8051 20.8058C39.054 20.7773 38.313 20.7536 37.5825 20.7346L37.5304 22.7339ZM44.2019 23.0248C45.6615 23.113 47.1534 23.2184 48.6746 23.342L48.8365 21.3486C47.3017 21.2239 45.796 21.1174 44.3225 21.0285L44.2019 23.0248ZM53.1468 23.7499C54.606 23.8973 56.0879 24.0609 57.5901 24.2412L57.8285 22.2555C56.3138 22.0736 54.8195 21.9087 53.3478 21.76L53.1468 23.7499ZM62.0208 24.8143C63.4822 25.0169 64.9598 25.2351 66.4515 25.4695L66.7619 23.4937C65.2581 23.2575 63.7687 23.0375 62.2954 22.8333L62.0208 24.8143ZM70.8793 26.2058C72.3367 26.4616 73.8054 26.7328 75.2836 27.0197L75.6647 25.0564C74.1747 24.7671 72.6942 24.4938 71.2251 24.2359L70.8793 26.2058ZM79.6639 27.911C81.1152 28.22 82.5738 28.5443 84.0379 28.8843L84.4903 26.9361C83.014 26.5933 81.5435 26.2664 80.0804 25.9549L79.6639 27.911ZM88.3997 29.9399C89.837 30.3021 91.278 30.6796 92.7213 31.0727L93.247 29.143C91.7912 28.7465 90.3378 28.3658 88.8884 28.0006L88.3997 29.9399ZM97.0291 32.2915C98.4579 32.7109 99.8874 33.1461 101.316 33.5972L101.918 31.69C100.476 31.2347 99.034 30.7957 97.5925 30.3725L97.0291 32.2915ZM105.566 34.9878C106.976 35.4657 108.384 35.9595 109.788 36.4696L110.471 34.5899C109.053 34.0746 107.631 33.576 106.208 33.0936L105.566 34.9878ZM113.977 38.0452C115.365 38.5852 116.748 39.1418 118.125 39.7152L118.894 37.8689C117.502 37.2894 116.105 36.7269 114.703 36.1813L113.977 38.0452ZM122.232 41.4849C123.593 42.0916 124.947 42.7155 126.291 43.3568L127.152 41.5516C125.792 40.9027 124.423 40.2717 123.046 39.6581L122.232 41.4849ZM130.299 45.3347C131.627 46.0127 132.944 46.7086 134.25 47.4227L135.209 45.6681C133.887 44.9447 132.553 44.2399 131.208 43.5535L130.299 45.3347ZM138.134 49.623C139.42 50.3771 140.692 51.1499 141.95 51.9417L143.016 50.2492C141.74 49.446 140.449 48.6623 139.146 47.8979L138.134 49.623ZM145.688 54.3819C146.921 55.2166 148.138 56.0709 149.336 56.945L150.515 55.329C149.297 54.4408 148.061 53.5731 146.809 52.7257L145.688 54.3819ZM152.891 59.6374C154.061 60.5582 155.211 61.4994 156.34 62.4616L157.637 60.9391C156.488 59.9599 155.317 59.0022 154.128 58.0658L152.891 59.6374ZM159.671 65.4173C160.762 66.4263 161.831 67.4566 162.875 68.5087L164.295 67.0997C163.23 66.0269 162.141 64.9768 161.029 63.9489L159.671 65.4173ZM165.94 71.7362C166.937 72.8343 167.908 73.9546 168.853 75.0975L170.394 73.8236C169.43 72.6563 168.438 71.5126 167.421 70.3919L165.94 71.7362ZM171.603 78.5937C172.489 79.7781 173.346 80.9854 174.174 82.2159L175.834 81.0992C174.987 79.8408 174.11 78.6064 173.204 77.3957L171.603 78.5937ZM176.56 85.9633C177.322 87.2308 178.053 88.5216 178.752 89.836L180.518 88.8967C179.802 87.5512 179.053 86.2301 178.274 84.9331L176.56 85.9633ZM180.73 93.8027C181.352 95.1367 181.942 96.4939 182.498 97.8745L184.353 97.1268C183.783 95.7132 183.179 94.3236 182.543 92.9577L180.73 93.8027ZM184.054 102.052C184.528 103.436 184.97 104.843 185.377 106.273L187.301 105.724C186.883 104.261 186.431 102.821 185.946 101.403L184.054 102.052ZM186.485 110.575C186.816 112.009 187.113 113.465 187.376 114.944L189.345 114.593C189.076 113.082 188.772 111.593 188.434 110.126L186.485 110.575ZM188.045 119.316C188.232 120.776 188.387 122.256 188.509 123.758L190.502 123.597C190.378 122.064 190.22 120.552 190.029 119.061L188.045 119.316ZM188.766 128.185C188.793 128.933 188.812 129.686 188.822 130.444L190.822 130.416C190.811 129.644 190.792 128.876 190.765 128.113L188.766 128.185Z" fill="white"/>
<path d="M115 140.5L109.226 150.5H120.774L115 140.5ZM116 163.279V149.5H114V163.279H116Z" fill="white"/>
<rect width="2.41546" height="25.6203" transform="matrix(0 -1 -1 0 202.634 137.978)" fill="#F69F13"/>
<rect y="12.3748" width="12.0773" height="92" transform="rotate(-90 0 12.3748)" fill="#581616"/>
<rect y="151.264" width="12.0773" height="92" transform="rotate(-90 0 151.264)" fill="#797979"/>
<rect y="0.297363" width="11.6456" height="150.966" fill="#797979"/>
<rect width="12.0773" height="92" transform="matrix(0 -1 -1 0 230 12.3748)" fill="#581616"/>
<rect width="12.0773" height="92" transform="matrix(0 -1 -1 0 230 151.264)" fill="#797979"/>
<rect width="11.6456" height="150.966" transform="matrix(-1 0 0 1 230 0.297363)" fill="#797979"/>
<ellipse cx="36.9748" cy="21.7346" rx="3.78481" ry="3.92513" fill="white"/>
<path d="M65.868 170.193C66.996 170.193 67.83 170.439 68.37 170.931C68.922 171.423 69.198 172.065 69.198 172.857C69.198 173.529 69.012 174.045 68.64 174.405C68.268 174.753 67.734 174.927 67.038 174.927C66.822 174.927 66.684 174.909 66.624 174.873C66.564 174.825 66.534 174.735 66.534 174.603C66.534 174.483 66.522 174.327 66.498 174.135C66.486 173.943 66.444 173.757 66.372 173.577C66.3 173.397 66.186 173.247 66.03 173.127C65.874 172.995 65.658 172.929 65.382 172.929C64.998 172.929 64.656 173.049 64.356 173.289C64.056 173.517 63.906 173.817 63.906 174.189C63.906 174.513 64.026 174.777 64.266 174.981C64.518 175.185 64.83 175.377 65.202 175.557C65.574 175.725 65.976 175.899 66.408 176.079C66.852 176.259 67.26 176.499 67.632 176.799C68.004 177.087 68.31 177.453 68.55 177.897C68.802 178.329 68.928 178.881 68.928 179.553C68.928 180.081 68.838 180.579 68.658 181.047C68.49 181.503 68.232 181.905 67.884 182.253C67.548 182.589 67.116 182.853 66.588 183.045C66.072 183.237 65.466 183.333 64.77 183.333C64.17 183.333 63.612 183.267 63.096 183.135C62.592 183.003 62.148 182.841 61.764 182.649C61.392 182.445 61.098 182.229 60.882 182.001C60.666 181.761 60.558 181.545 60.558 181.353C60.558 180.561 60.6 179.991 60.684 179.643C60.78 179.295 60.948 179.121 61.188 179.121C61.356 179.121 61.53 179.193 61.71 179.337C61.902 179.481 62.118 179.643 62.358 179.823C62.598 180.003 62.874 180.165 63.186 180.309C63.51 180.453 63.882 180.525 64.302 180.525C64.47 180.525 64.632 180.513 64.788 180.489C64.956 180.453 65.1 180.399 65.22 180.327C65.352 180.255 65.454 180.159 65.526 180.039C65.61 179.919 65.652 179.775 65.652 179.607C65.652 179.307 65.538 179.067 65.31 178.887C65.082 178.707 64.794 178.545 64.446 178.401C64.098 178.245 63.72 178.089 63.312 177.933C62.916 177.765 62.544 177.543 62.196 177.267C61.848 176.979 61.56 176.613 61.332 176.169C61.104 175.725 60.99 175.155 60.99 174.459C60.99 173.679 61.134 173.019 61.422 172.479C61.722 171.939 62.1 171.501 62.556 171.165C63.024 170.817 63.546 170.571 64.122 170.427C64.71 170.271 65.292 170.193 65.868 170.193ZM74.6343 183.333C74.1063 183.333 73.5783 183.267 73.0503 183.135C72.5343 183.003 72.0663 182.775 71.6463 182.451C71.2383 182.127 70.9023 181.695 70.6383 181.155C70.3743 180.615 70.2423 179.937 70.2423 179.121C70.2423 178.821 70.2663 178.461 70.3143 178.041C70.3623 177.621 70.4523 177.189 70.5843 176.745C70.7283 176.301 70.9203 175.863 71.1603 175.431C71.4123 174.987 71.7363 174.591 72.1323 174.243C72.5283 173.895 73.0083 173.613 73.5723 173.397C74.1363 173.181 74.8083 173.073 75.5883 173.073C76.2123 173.073 76.7403 173.145 77.1723 173.289C77.6043 173.433 77.9523 173.631 78.2163 173.883C78.4803 174.123 78.6723 174.405 78.7923 174.729C78.9123 175.053 78.9723 175.401 78.9723 175.773C78.9723 176.325 78.8583 176.793 78.6303 177.177C78.4143 177.561 78.1263 177.885 77.7663 178.149C77.4183 178.401 77.0283 178.599 76.5963 178.743C76.1643 178.887 75.7383 179.001 75.3183 179.085C74.8983 179.157 74.5083 179.205 74.1483 179.229C73.8003 179.241 73.5303 179.247 73.3383 179.247C73.3383 179.475 73.3683 179.703 73.4283 179.931C73.5003 180.147 73.6023 180.339 73.7343 180.507C73.8663 180.675 74.0403 180.813 74.2563 180.921C74.4723 181.029 74.7363 181.083 75.0483 181.083C75.3603 181.083 75.6003 181.035 75.7683 180.939C75.9483 180.831 76.0923 180.717 76.2003 180.597C76.3083 180.465 76.3983 180.351 76.4703 180.255C76.5543 180.147 76.6623 180.093 76.7943 180.093C76.8543 180.093 76.9563 180.111 77.1003 180.147C77.2563 180.171 77.4123 180.231 77.5683 180.327C77.7243 180.423 77.8623 180.555 77.9823 180.723C78.1023 180.891 78.1623 181.107 78.1623 181.371C78.1623 181.719 78.0543 182.019 77.8383 182.271C77.6223 182.523 77.3403 182.727 76.9923 182.883C76.6563 183.039 76.2783 183.153 75.8583 183.225C75.4383 183.297 75.0303 183.333 74.6343 183.333ZM74.9763 175.467C74.7123 175.467 74.4843 175.545 74.2923 175.701C74.1123 175.845 73.9563 176.031 73.8243 176.259C73.7043 176.487 73.6083 176.739 73.5363 177.015C73.4763 177.291 73.4283 177.555 73.3923 177.807C74.1363 177.795 74.7363 177.669 75.1923 177.429C75.6603 177.189 75.8943 176.847 75.8943 176.403C75.8943 176.163 75.8163 175.947 75.6603 175.755C75.5163 175.563 75.2883 175.467 74.9763 175.467ZM86.1944 181.569C86.1944 181.305 86.2124 180.963 86.2484 180.543C86.2964 180.111 86.3384 179.661 86.3744 179.193C86.4224 178.713 86.4644 178.251 86.5004 177.807C86.5484 177.363 86.5724 176.991 86.5724 176.691C86.5724 176.379 86.4944 176.103 86.3384 175.863C86.1944 175.611 85.9064 175.485 85.4744 175.485C85.0544 175.485 84.7064 175.587 84.4304 175.791C84.1544 175.995 83.9204 176.367 83.7284 176.907C83.5484 177.447 83.3984 178.191 83.2784 179.139C83.1584 180.087 83.0444 181.305 82.9364 182.793C82.9244 182.937 82.8944 183.033 82.8464 183.081C82.7984 183.129 82.6964 183.153 82.5404 183.153H81.8924C81.5204 183.153 81.2144 183.117 80.9744 183.045C80.7464 182.961 80.5604 182.847 80.4164 182.703C80.2844 182.559 80.1884 182.385 80.1284 182.181C80.0804 181.965 80.0564 181.719 80.0564 181.443C80.0564 181.263 80.0624 181.011 80.0744 180.687C80.0984 180.351 80.1344 179.895 80.1824 179.319C80.2304 178.731 80.2844 177.993 80.3444 177.105C80.4164 176.205 80.5004 175.095 80.5964 173.775C80.6084 173.511 80.6384 173.355 80.6864 173.307C80.7224 173.271 80.8184 173.253 80.9744 173.253H81.6764C82.0364 173.253 82.3304 173.295 82.5584 173.379C82.7984 173.463 82.9904 173.577 83.1344 173.721C83.2784 173.853 83.3804 174.015 83.4404 174.207C83.5004 174.387 83.5364 174.573 83.5484 174.765C83.9204 174.129 84.3464 173.691 84.8264 173.451C85.3064 173.199 85.9064 173.073 86.6264 173.073C87.1304 173.073 87.5684 173.127 87.9404 173.235C88.3124 173.343 88.6184 173.529 88.8584 173.793C89.1104 174.045 89.2964 174.381 89.4164 174.801C89.5364 175.209 89.5964 175.719 89.5964 176.331C89.5964 176.523 89.5844 176.799 89.5604 177.159C89.5364 177.519 89.5064 177.915 89.4704 178.347C89.4344 178.767 89.3924 179.211 89.3444 179.679C89.3084 180.135 89.2724 180.561 89.2364 180.957C89.2004 181.353 89.1704 181.701 89.1464 182.001C89.1224 182.301 89.1104 182.499 89.1104 182.595C89.1104 182.859 89.0804 183.021 89.0204 183.081C88.9604 183.129 88.8284 183.153 88.6244 183.153H88.0484C87.6644 183.153 87.3524 183.117 87.1124 183.045C86.8724 182.973 86.6864 182.871 86.5544 182.739C86.4224 182.607 86.3264 182.445 86.2664 182.253C86.2184 182.049 86.1944 181.821 86.1944 181.569ZM95.3949 173.073C96.4149 173.073 97.1649 173.277 97.6449 173.685C98.1249 174.081 98.3649 174.591 98.3649 175.215C98.3649 175.743 98.1969 176.145 97.8609 176.421C97.5369 176.697 97.0629 176.835 96.4389 176.835C96.2709 176.835 96.1569 176.817 96.0969 176.781C96.0369 176.745 96.0069 176.679 96.0069 176.583C96.0069 176.475 95.9949 176.355 95.9709 176.223C95.9589 176.079 95.9169 175.947 95.8449 175.827C95.7849 175.695 95.6829 175.587 95.5389 175.503C95.4069 175.419 95.2149 175.377 94.9629 175.377C94.6269 175.377 94.3569 175.461 94.1529 175.629C93.9489 175.785 93.8469 175.983 93.8469 176.223C93.8469 176.475 93.9489 176.679 94.1529 176.835C94.3689 176.979 94.6329 177.117 94.9449 177.249C95.2689 177.381 95.6169 177.519 95.9889 177.663C96.3609 177.795 96.7029 177.975 97.0149 178.203C97.3389 178.431 97.6029 178.719 97.8069 179.067C98.0229 179.403 98.1309 179.841 98.1309 180.381C98.1309 181.245 97.8249 181.953 97.2129 182.505C96.6009 183.057 95.6829 183.333 94.4589 183.333C94.1229 183.333 93.7329 183.303 93.2889 183.243C92.8569 183.195 92.4429 183.117 92.0469 183.009C91.6509 182.889 91.3149 182.733 91.0389 182.541C90.7749 182.349 90.6429 182.109 90.6429 181.821C90.6429 181.713 90.6609 181.581 90.6969 181.425C90.7449 181.269 90.8109 181.119 90.8949 180.975C90.9909 180.831 91.0989 180.711 91.2189 180.615C91.3509 180.507 91.5069 180.453 91.6869 180.453C91.8309 180.453 91.9629 180.489 92.0829 180.561C92.2029 180.633 92.3409 180.711 92.4969 180.795C92.6649 180.867 92.8689 180.939 93.1089 181.011C93.3489 181.083 93.6669 181.119 94.0629 181.119C94.3629 181.119 94.6269 181.083 94.8549 181.011C95.0949 180.939 95.2149 180.777 95.2149 180.525C95.2149 180.297 95.1189 180.117 94.9269 179.985C94.7349 179.841 94.4889 179.709 94.1889 179.589C93.9009 179.469 93.5829 179.343 93.2349 179.211C92.8989 179.067 92.5809 178.881 92.2809 178.653C91.9929 178.425 91.7529 178.137 91.5609 177.789C91.3689 177.429 91.2729 176.967 91.2729 176.403C91.2729 175.791 91.3929 175.275 91.6329 174.855C91.8849 174.423 92.2029 174.075 92.5869 173.811C92.9829 173.547 93.4269 173.361 93.9189 173.253C94.4109 173.133 94.9029 173.073 95.3949 173.073ZM106.817 183.333C106.349 183.333 105.899 183.249 105.467 183.081C105.047 182.913 104.675 182.649 104.351 182.289C104.039 181.929 103.787 181.473 103.595 180.921C103.415 180.369 103.325 179.703 103.325 178.923C103.325 178.575 103.349 178.191 103.397 177.771C103.445 177.339 103.529 176.907 103.649 176.475C103.769 176.043 103.937 175.623 104.153 175.215C104.369 174.807 104.639 174.447 104.963 174.135C105.299 173.811 105.695 173.553 106.151 173.361C106.619 173.169 107.165 173.073 107.789 173.073C108.389 173.073 108.869 173.181 109.229 173.397C109.601 173.601 109.835 173.961 109.931 174.477C109.955 174.009 109.979 173.601 110.003 173.253C110.027 172.905 110.045 172.581 110.057 172.281C110.081 171.981 110.105 171.681 110.129 171.381C110.153 171.081 110.177 170.739 110.201 170.355C110.213 170.091 110.243 169.935 110.291 169.887C110.315 169.863 110.345 169.851 110.381 169.851C110.417 169.839 110.483 169.833 110.579 169.833H111.281C111.641 169.833 111.941 169.875 112.181 169.959C112.421 170.043 112.613 170.157 112.757 170.301C112.901 170.445 113.003 170.613 113.063 170.805C113.123 170.985 113.153 171.177 113.153 171.381C113.153 171.381 113.141 171.531 113.117 171.831C113.093 172.131 113.063 172.533 113.027 173.037C112.991 173.529 112.949 174.093 112.901 174.729C112.853 175.365 112.805 176.025 112.757 176.709C112.709 177.381 112.661 178.053 112.613 178.725C112.565 179.385 112.517 179.997 112.469 180.561C112.421 181.113 112.379 181.593 112.343 182.001C112.319 182.397 112.301 182.661 112.289 182.793C112.265 182.937 112.235 183.033 112.199 183.081C112.163 183.129 112.061 183.153 111.893 183.153H111.245C110.993 183.153 110.753 183.135 110.525 183.099C110.309 183.051 110.117 182.979 109.949 182.883C109.793 182.775 109.667 182.637 109.571 182.469C109.487 182.289 109.445 182.061 109.445 181.785C109.229 182.241 108.899 182.613 108.455 182.901C108.023 183.189 107.477 183.333 106.817 183.333ZM108.383 175.467C107.771 175.467 107.315 175.737 107.015 176.277C106.727 176.805 106.583 177.519 106.583 178.419C106.583 178.731 106.601 179.037 106.637 179.337C106.685 179.637 106.763 179.907 106.871 180.147C106.979 180.387 107.123 180.579 107.303 180.723C107.495 180.867 107.735 180.939 108.023 180.939C108.539 180.939 108.971 180.687 109.319 180.183C109.667 179.679 109.841 178.887 109.841 177.807C109.841 177.507 109.823 177.219 109.787 176.943C109.751 176.655 109.679 176.403 109.571 176.187C109.463 175.971 109.313 175.797 109.121 175.665C108.929 175.533 108.683 175.467 108.383 175.467ZM118.632 183.333C118.104 183.333 117.576 183.267 117.048 183.135C116.532 183.003 116.064 182.775 115.644 182.451C115.236 182.127 114.9 181.695 114.636 181.155C114.372 180.615 114.24 179.937 114.24 179.121C114.24 178.821 114.264 178.461 114.312 178.041C114.36 177.621 114.45 177.189 114.582 176.745C114.726 176.301 114.918 175.863 115.158 175.431C115.41 174.987 115.734 174.591 116.13 174.243C116.526 173.895 117.006 173.613 117.57 173.397C118.134 173.181 118.806 173.073 119.586 173.073C120.21 173.073 120.738 173.145 121.17 173.289C121.602 173.433 121.95 173.631 122.214 173.883C122.478 174.123 122.67 174.405 122.79 174.729C122.91 175.053 122.97 175.401 122.97 175.773C122.97 176.325 122.856 176.793 122.628 177.177C122.412 177.561 122.124 177.885 121.764 178.149C121.416 178.401 121.026 178.599 120.594 178.743C120.162 178.887 119.736 179.001 119.316 179.085C118.896 179.157 118.506 179.205 118.146 179.229C117.798 179.241 117.528 179.247 117.336 179.247C117.336 179.475 117.366 179.703 117.426 179.931C117.498 180.147 117.6 180.339 117.732 180.507C117.864 180.675 118.038 180.813 118.254 180.921C118.47 181.029 118.734 181.083 119.046 181.083C119.358 181.083 119.598 181.035 119.766 180.939C119.946 180.831 120.09 180.717 120.198 180.597C120.306 180.465 120.396 180.351 120.468 180.255C120.552 180.147 120.66 180.093 120.792 180.093C120.852 180.093 120.954 180.111 121.098 180.147C121.254 180.171 121.41 180.231 121.566 180.327C121.722 180.423 121.86 180.555 121.98 180.723C122.1 180.891 122.16 181.107 122.16 181.371C122.16 181.719 122.052 182.019 121.836 182.271C121.62 182.523 121.338 182.727 120.99 182.883C120.654 183.039 120.276 183.153 119.856 183.225C119.436 183.297 119.028 183.333 118.632 183.333ZM118.974 175.467C118.71 175.467 118.482 175.545 118.29 175.701C118.11 175.845 117.954 176.031 117.822 176.259C117.702 176.487 117.606 176.739 117.534 177.015C117.474 177.291 117.426 177.555 117.39 177.807C118.134 177.795 118.734 177.669 119.19 177.429C119.658 177.189 119.892 176.847 119.892 176.403C119.892 176.163 119.814 175.947 119.658 175.755C119.514 175.563 119.286 175.467 118.974 175.467ZM131.622 180.867C131.766 180.363 131.898 179.865 132.018 179.373C132.15 178.881 132.276 178.359 132.396 177.807C132.528 177.243 132.666 176.631 132.81 175.971C132.966 175.299 133.146 174.537 133.35 173.685C133.386 173.517 133.44 173.409 133.512 173.361C133.584 173.301 133.74 173.271 133.98 173.271C134.16 173.271 134.4 173.277 134.7 173.289C135 173.301 135.294 173.343 135.582 173.415C135.87 173.487 136.116 173.595 136.32 173.739C136.536 173.883 136.644 174.081 136.644 174.333C136.644 174.537 136.572 174.867 136.428 175.323C136.284 175.779 136.098 176.301 135.87 176.889C135.642 177.465 135.384 178.071 135.096 178.707C134.82 179.343 134.55 179.943 134.286 180.507C134.022 181.071 133.776 181.569 133.548 182.001C133.32 182.421 133.152 182.715 133.044 182.883C132.948 183.015 132.864 183.093 132.792 183.117C132.72 183.141 132.6 183.153 132.432 183.153H130.83C130.578 183.153 130.368 183.111 130.2 183.027C130.044 182.931 129.912 182.811 129.804 182.667C129.696 182.523 129.606 182.361 129.534 182.181C129.462 181.989 129.396 181.791 129.336 181.587C128.988 180.387 128.682 179.361 128.418 178.509C128.166 177.645 127.95 176.925 127.77 176.349C127.59 175.773 127.446 175.317 127.338 174.981C127.23 174.633 127.146 174.369 127.086 174.189C127.026 173.997 126.984 173.871 126.96 173.811C126.936 173.739 126.924 173.691 126.924 173.667C126.936 173.583 126.996 173.493 127.104 173.397C127.212 173.301 127.35 173.253 127.518 173.253C128.07 173.253 128.538 173.277 128.922 173.325C129.318 173.361 129.642 173.433 129.894 173.541C130.158 173.649 130.356 173.799 130.488 173.991C130.632 174.183 130.734 174.435 130.794 174.747C130.806 174.831 130.83 174.999 130.866 175.251C130.902 175.503 130.938 175.809 130.974 176.169C131.022 176.517 131.076 176.907 131.136 177.339C131.196 177.759 131.25 178.185 131.298 178.617C131.358 179.037 131.412 179.445 131.46 179.841C131.52 180.237 131.574 180.579 131.622 180.867ZM139.426 183.153C139.054 183.153 138.748 183.117 138.508 183.045C138.28 182.961 138.094 182.847 137.95 182.703C137.818 182.559 137.722 182.385 137.662 182.181C137.614 181.965 137.59 181.719 137.59 181.443C137.59 181.263 137.596 181.011 137.608 180.687C137.632 180.351 137.668 179.895 137.716 179.319C137.764 178.731 137.818 177.993 137.878 177.105C137.95 176.205 138.034 175.095 138.13 173.775C138.142 173.511 138.172 173.355 138.22 173.307C138.256 173.271 138.352 173.253 138.508 173.253H139.21C139.582 173.253 139.882 173.289 140.11 173.361C140.35 173.433 140.536 173.541 140.668 173.685C140.812 173.829 140.908 174.003 140.956 174.207C141.016 174.411 141.046 174.639 141.046 174.891C141.046 175.071 141.034 175.341 141.01 175.701C140.986 176.061 140.95 176.553 140.902 177.177C140.866 177.789 140.812 178.557 140.74 179.481C140.668 180.393 140.578 181.497 140.47 182.793C140.458 182.937 140.428 183.033 140.38 183.081C140.332 183.129 140.23 183.153 140.074 183.153H139.426ZM138.148 171.129C138.148 170.649 138.322 170.271 138.67 169.995C139.018 169.719 139.486 169.581 140.074 169.581C140.59 169.581 140.962 169.689 141.19 169.905C141.43 170.109 141.55 170.385 141.55 170.733C141.55 171.177 141.382 171.549 141.046 171.849C140.722 172.137 140.242 172.281 139.606 172.281C138.634 172.281 138.148 171.897 138.148 171.129ZM146.828 173.073C147.848 173.073 148.598 173.277 149.078 173.685C149.558 174.081 149.798 174.591 149.798 175.215C149.798 175.743 149.63 176.145 149.294 176.421C148.97 176.697 148.496 176.835 147.872 176.835C147.704 176.835 147.59 176.817 147.53 176.781C147.47 176.745 147.44 176.679 147.44 176.583C147.44 176.475 147.428 176.355 147.404 176.223C147.392 176.079 147.35 175.947 147.278 175.827C147.218 175.695 147.116 175.587 146.972 175.503C146.84 175.419 146.648 175.377 146.396 175.377C146.06 175.377 145.79 175.461 145.586 175.629C145.382 175.785 145.28 175.983 145.28 176.223C145.28 176.475 145.382 176.679 145.586 176.835C145.802 176.979 146.066 177.117 146.378 177.249C146.702 177.381 147.05 177.519 147.422 177.663C147.794 177.795 148.136 177.975 148.448 178.203C148.772 178.431 149.036 178.719 149.24 179.067C149.456 179.403 149.564 179.841 149.564 180.381C149.564 181.245 149.258 181.953 148.646 182.505C148.034 183.057 147.116 183.333 145.892 183.333C145.556 183.333 145.166 183.303 144.722 183.243C144.29 183.195 143.876 183.117 143.48 183.009C143.084 182.889 142.748 182.733 142.472 182.541C142.208 182.349 142.076 182.109 142.076 181.821C142.076 181.713 142.094 181.581 142.13 181.425C142.178 181.269 142.244 181.119 142.328 180.975C142.424 180.831 142.532 180.711 142.652 180.615C142.784 180.507 142.94 180.453 143.12 180.453C143.264 180.453 143.396 180.489 143.516 180.561C143.636 180.633 143.774 180.711 143.93 180.795C144.098 180.867 144.302 180.939 144.542 181.011C144.782 181.083 145.1 181.119 145.496 181.119C145.796 181.119 146.06 181.083 146.288 181.011C146.528 180.939 146.648 180.777 146.648 180.525C146.648 180.297 146.552 180.117 146.36 179.985C146.168 179.841 145.922 179.709 145.622 179.589C145.334 179.469 145.016 179.343 144.668 179.211C144.332 179.067 144.014 178.881 143.714 178.653C143.426 178.425 143.186 178.137 142.994 177.789C142.802 177.429 142.706 176.967 142.706 176.403C142.706 175.791 142.826 175.275 143.066 174.855C143.318 174.423 143.636 174.075 144.02 173.811C144.416 173.547 144.86 173.361 145.352 173.253C145.844 173.133 146.336 173.073 146.828 173.073ZM152.944 183.153C152.572 183.153 152.266 183.117 152.026 183.045C151.798 182.961 151.612 182.847 151.468 182.703C151.336 182.559 151.24 182.385 151.18 182.181C151.132 181.965 151.108 181.719 151.108 181.443C151.108 181.263 151.114 181.011 151.126 180.687C151.15 180.351 151.186 179.895 151.234 179.319C151.282 178.731 151.336 177.993 151.396 177.105C151.468 176.205 151.552 175.095 151.648 173.775C151.66 173.511 151.69 173.355 151.738 173.307C151.774 173.271 151.87 173.253 152.026 173.253H152.728C153.1 173.253 153.4 173.289 153.628 173.361C153.868 173.433 154.054 173.541 154.186 173.685C154.33 173.829 154.426 174.003 154.474 174.207C154.534 174.411 154.564 174.639 154.564 174.891C154.564 175.071 154.552 175.341 154.528 175.701C154.504 176.061 154.468 176.553 154.42 177.177C154.384 177.789 154.33 178.557 154.258 179.481C154.186 180.393 154.096 181.497 153.988 182.793C153.976 182.937 153.946 183.033 153.898 183.081C153.85 183.129 153.748 183.153 153.592 183.153H152.944ZM151.666 171.129C151.666 170.649 151.84 170.271 152.188 169.995C152.536 169.719 153.004 169.581 153.592 169.581C154.108 169.581 154.48 169.689 154.708 169.905C154.948 170.109 155.068 170.385 155.068 170.733C155.068 171.177 154.9 171.549 154.564 171.849C154.24 172.137 153.76 172.281 153.124 172.281C152.152 172.281 151.666 171.897 151.666 171.129ZM160.022 175.683C159.986 176.139 159.944 176.589 159.896 177.033C159.86 177.477 159.824 177.897 159.788 178.293C159.752 178.689 159.722 179.043 159.698 179.355C159.686 179.667 159.68 179.907 159.68 180.075C159.68 180.387 159.716 180.597 159.788 180.705C159.86 180.801 159.98 180.849 160.148 180.849C160.28 180.849 160.394 180.825 160.49 180.777C160.586 180.729 160.676 180.675 160.76 180.615C160.844 180.555 160.916 180.501 160.976 180.453C161.048 180.405 161.126 180.381 161.21 180.381C161.294 180.381 161.372 180.429 161.444 180.525C161.516 180.621 161.552 180.843 161.552 181.191C161.552 181.851 161.372 182.373 161.012 182.757C160.652 183.141 160.034 183.333 159.158 183.333C158.294 183.333 157.652 183.135 157.232 182.739C156.824 182.331 156.62 181.713 156.62 180.885C156.62 180.705 156.626 180.495 156.638 180.255C156.662 180.003 156.692 179.679 156.728 179.283C156.764 178.887 156.806 178.401 156.854 177.825C156.914 177.249 156.974 176.535 157.034 175.683H156.08C155.984 175.683 155.924 175.665 155.9 175.629C155.888 175.581 155.882 175.515 155.882 175.431L155.936 174.513C155.948 174.357 155.966 174.207 155.99 174.063C156.026 173.907 156.086 173.769 156.17 173.649C156.266 173.529 156.398 173.433 156.566 173.361C156.734 173.289 156.956 173.253 157.232 173.253C157.316 173.037 157.412 172.779 157.52 172.479C157.628 172.179 157.736 171.891 157.844 171.615C157.952 171.327 158.054 171.087 158.15 170.895C158.258 170.703 158.354 170.607 158.438 170.607H158.96C159.464 170.607 159.812 170.763 160.004 171.075C160.196 171.387 160.292 171.759 160.292 172.191C160.292 172.431 160.274 172.785 160.238 173.253H162.128C162.32 173.253 162.416 173.337 162.416 173.505L162.344 174.477C162.32 174.837 162.218 175.131 162.038 175.359C161.87 175.575 161.516 175.683 160.976 175.683H160.022ZM167.376 183.333C166.848 183.333 166.32 183.267 165.792 183.135C165.276 183.003 164.808 182.775 164.388 182.451C163.98 182.127 163.644 181.695 163.38 181.155C163.116 180.615 162.984 179.937 162.984 179.121C162.984 178.821 163.008 178.461 163.056 178.041C163.104 177.621 163.194 177.189 163.326 176.745C163.47 176.301 163.662 175.863 163.902 175.431C164.154 174.987 164.478 174.591 164.874 174.243C165.27 173.895 165.75 173.613 166.314 173.397C166.878 173.181 167.55 173.073 168.33 173.073C168.954 173.073 169.482 173.145 169.914 173.289C170.346 173.433 170.694 173.631 170.958 173.883C171.222 174.123 171.414 174.405 171.534 174.729C171.654 175.053 171.714 175.401 171.714 175.773C171.714 176.325 171.6 176.793 171.372 177.177C171.156 177.561 170.868 177.885 170.508 178.149C170.16 178.401 169.77 178.599 169.338 178.743C168.906 178.887 168.48 179.001 168.06 179.085C167.64 179.157 167.25 179.205 166.89 179.229C166.542 179.241 166.272 179.247 166.08 179.247C166.08 179.475 166.11 179.703 166.17 179.931C166.242 180.147 166.344 180.339 166.476 180.507C166.608 180.675 166.782 180.813 166.998 180.921C167.214 181.029 167.478 181.083 167.79 181.083C168.102 181.083 168.342 181.035 168.51 180.939C168.69 180.831 168.834 180.717 168.942 180.597C169.05 180.465 169.14 180.351 169.212 180.255C169.296 180.147 169.404 180.093 169.536 180.093C169.596 180.093 169.698 180.111 169.842 180.147C169.998 180.171 170.154 180.231 170.31 180.327C170.466 180.423 170.604 180.555 170.724 180.723C170.844 180.891 170.904 181.107 170.904 181.371C170.904 181.719 170.796 182.019 170.58 182.271C170.364 182.523 170.082 182.727 169.734 182.883C169.398 183.039 169.02 183.153 168.6 183.225C168.18 183.297 167.772 183.333 167.376 183.333ZM167.718 175.467C167.454 175.467 167.226 175.545 167.034 175.701C166.854 175.845 166.698 176.031 166.566 176.259C166.446 176.487 166.35 176.739 166.278 177.015C166.218 177.291 166.17 177.555 166.134 177.807C166.878 177.795 167.478 177.669 167.934 177.429C168.402 177.189 168.636 176.847 168.636 176.403C168.636 176.163 168.558 175.947 168.402 175.755C168.258 175.563 168.03 175.467 167.718 175.467Z" fill="white"/>
</svg>
