<svg width="230" height="181" viewBox="0 0 230 181" fill="none" xmlns="http://www.w3.org/2000/svg">
<path d="M115 135.267L109.226 145.267H120.774L115 135.267ZM116 160.23V144.267H114V160.23H116Z" fill="white"/>
<path d="M20.84 49.702C20.2918 49.7694 19.902 50.2684 19.9694 50.8165L21.067 59.7494C21.1344 60.2975 21.6334 60.6873 22.1815 60.6199C22.7297 60.5526 23.1195 60.0536 23.0521 59.5054L22.0764 51.5652L30.0167 50.5895C30.5649 50.5221 30.9546 50.0231 30.8873 49.475C30.8199 48.9268 30.3209 48.537 29.7728 48.6044L20.84 49.702ZM20.4646 109.187C21.2514 109.119 22.0203 108.943 22.7661 108.67L22.0774 106.792C21.4889 107.008 20.8941 107.143 20.2946 107.194L20.4646 109.187ZM26.6275 106.244C27.6611 105.301 28.6223 104.163 29.4999 102.871L27.8456 101.747C27.0409 102.931 26.1793 103.945 25.2794 104.767L26.6275 106.244ZM31.6407 99.0792C32.2323 97.8202 32.7651 96.4741 33.2318 95.059L31.3324 94.4326C30.8892 95.7765 30.3857 97.0473 29.8306 98.2286L31.6407 99.0792ZM34.3654 90.9063C34.6671 89.5349 34.9105 88.1194 35.0902 86.6725L33.1054 86.426C32.9333 87.8122 32.7003 89.1665 32.4121 90.4767L34.3654 90.9063ZM35.4274 82.393C35.4755 80.9767 35.4615 79.542 35.3804 78.0997L33.3835 78.2119C33.4612 79.5931 33.4746 80.9676 33.4285 82.3252L35.4274 82.393ZM34.9408 73.8258C34.7283 72.4155 34.4473 71.0072 34.0929 69.6107L32.1544 70.1026C32.4919 71.4328 32.7601 72.7763 32.9631 74.1239L34.9408 73.8258ZM32.8165 65.4972C32.3195 64.1544 31.7466 62.8325 31.0932 61.5412L29.3086 62.4441C29.9264 63.6651 30.4692 64.9171 30.9409 66.1915L32.8165 65.4972ZM28.9139 57.8086C28.1203 56.6223 27.2467 55.4742 26.2889 54.3732L24.78 55.6858C25.681 56.7216 26.5036 57.8026 27.2515 58.9206L28.9139 57.8086ZM23.2444 51.2959C22.7087 50.8197 22.1532 50.3562 21.5775 49.9065L20.3463 51.4826C20.8886 51.9062 21.4115 52.3425 21.9156 52.7907L23.2444 51.2959Z" fill="white"/>
<rect x="13.3923" y="42.231" width="2.32912" height="17.5114" fill="#F69F13"/>
<rect y="12.4615" width="11.6742" height="92.0001" transform="rotate(-90 0 12.4615)" fill="#581616"/>
<rect y="146.715" width="11.6742" height="92.0001" transform="rotate(-90 0 146.715)" fill="#797979"/>
<rect y="0.787109" width="11.6456" height="145.928" fill="#797979"/>
<rect width="11.6742" height="92.0001" transform="matrix(0 -1 -1 0 230 12.4615)" fill="#581616"/>
<rect width="11.6742" height="92.0001" transform="matrix(0 -1 -1 0 230 146.715)" fill="#797979"/>
<rect width="11.6456" height="145.928" transform="matrix(-1 0 0 1 230 0.787109)" fill="#797979"/>
<ellipse cx="17.7594" cy="109.65" rx="3.78481" ry="3.79413" fill="white"/>
<path d="M69.4446 165.479C70.4912 165.479 71.265 165.708 71.766 166.164C72.2782 166.621 72.5343 167.216 72.5343 167.951C72.5343 168.575 72.3617 169.053 72.0165 169.388C71.6714 169.71 71.1759 169.872 70.5301 169.872C70.3297 169.872 70.2017 169.855 70.146 169.822C70.0903 169.777 70.0625 169.694 70.0625 169.571C70.0625 169.46 70.0514 169.315 70.0291 169.137C70.018 168.959 69.979 168.786 69.9122 168.619C69.8454 168.452 69.7396 168.313 69.5949 168.202C69.4501 168.079 69.2497 168.018 68.9936 168.018C68.6373 168.018 68.32 168.129 68.0417 168.352C67.7633 168.564 67.6241 168.842 67.6241 169.187C67.6241 169.488 67.7355 169.733 67.9582 169.922C68.192 170.111 68.4815 170.289 68.8266 170.456C69.1718 170.612 69.5448 170.774 69.9456 170.941C70.3576 171.108 70.7361 171.33 71.0813 171.609C71.4264 171.876 71.7104 172.216 71.933 172.628C72.1669 173.028 72.2838 173.541 72.2838 174.164C72.2838 174.654 72.2003 175.116 72.0332 175.55C71.8774 175.973 71.638 176.346 71.3151 176.669C71.0033 176.981 70.6025 177.226 70.1126 177.404C69.6338 177.582 69.0716 177.671 68.4258 177.671C67.8691 177.671 67.3514 177.61 66.8726 177.488C66.405 177.365 65.993 177.215 65.6367 177.037C65.2916 176.847 65.0188 176.647 64.8184 176.435C64.6179 176.213 64.5177 176.012 64.5177 175.834C64.5177 175.099 64.5567 174.57 64.6346 174.248C64.7237 173.925 64.8796 173.763 65.1023 173.763C65.2582 173.763 65.4196 173.83 65.5866 173.964C65.7648 174.097 65.9652 174.248 66.1878 174.415C66.4105 174.582 66.6666 174.732 66.9561 174.865C67.2567 174.999 67.6019 175.066 67.9916 175.066C68.1474 175.066 68.2978 175.055 68.4425 175.033C68.5984 174.999 68.732 174.949 68.8433 174.882C68.9658 174.815 69.0604 174.726 69.1272 174.615C69.2052 174.504 69.2442 174.37 69.2442 174.214C69.2442 173.936 69.1384 173.713 68.9268 173.546C68.7153 173.379 68.4481 173.229 68.1252 173.095C67.8023 172.95 67.4516 172.806 67.073 172.661C66.7056 172.505 66.3604 172.299 66.0375 172.043C65.7146 171.776 65.4474 171.436 65.2359 171.024C65.0243 170.612 64.9186 170.083 64.9186 169.438C64.9186 168.714 65.0522 168.102 65.3194 167.6C65.5977 167.099 65.9485 166.693 66.3716 166.381C66.8058 166.058 67.2901 165.83 67.8246 165.697C68.3701 165.552 68.9101 165.479 69.4446 165.479ZM77.5783 177.671C77.0884 177.671 76.5985 177.61 76.1086 177.488C75.6298 177.365 75.1956 177.154 74.8059 176.853C74.4273 176.552 74.1156 176.151 73.8706 175.65C73.6257 175.149 73.5032 174.52 73.5032 173.763C73.5032 173.485 73.5255 173.151 73.57 172.761C73.6145 172.371 73.6981 171.971 73.8205 171.559C73.9541 171.147 74.1323 170.74 74.355 170.339C74.5888 169.928 74.8894 169.56 75.2568 169.237C75.6242 168.914 76.0696 168.653 76.5929 168.452C77.1162 168.252 77.7397 168.152 78.4634 168.152C79.0424 168.152 79.5323 168.218 79.9331 168.352C80.334 168.486 80.6569 168.669 80.9018 168.903C81.1468 169.126 81.3249 169.388 81.4362 169.688C81.5476 169.989 81.6033 170.312 81.6033 170.657C81.6033 171.169 81.4975 171.603 81.2859 171.959C81.0855 172.316 80.8183 172.616 80.4843 172.861C80.1614 173.095 79.7995 173.279 79.3987 173.412C78.9979 173.546 78.6026 173.652 78.2129 173.73C77.8232 173.797 77.4614 173.841 77.1274 173.863C76.8045 173.875 76.5539 173.88 76.3758 173.88C76.3758 174.092 76.4036 174.303 76.4593 174.515C76.5261 174.715 76.6208 174.893 76.7432 175.049C76.8657 175.205 77.0271 175.333 77.2276 175.433C77.428 175.534 77.6729 175.584 77.9624 175.584C78.2519 175.584 78.4746 175.539 78.6305 175.45C78.7975 175.35 78.9311 175.244 79.0313 175.133C79.1315 175.01 79.215 174.904 79.2818 174.815C79.3597 174.715 79.4599 174.665 79.5824 174.665C79.6381 174.665 79.7327 174.682 79.8663 174.715C80.0111 174.737 80.1558 174.793 80.3006 174.882C80.4453 174.971 80.5734 175.094 80.6847 175.25C80.796 175.405 80.8517 175.606 80.8517 175.851C80.8517 176.174 80.7515 176.452 80.5511 176.686C80.3507 176.92 80.089 177.109 79.7661 177.254C79.4544 177.398 79.1037 177.504 78.714 177.571C78.3243 177.638 77.9457 177.671 77.5783 177.671ZM77.8956 170.373C77.6507 170.373 77.4391 170.445 77.261 170.59C77.0939 170.724 76.9492 170.896 76.8267 171.108C76.7154 171.319 76.6263 171.553 76.5595 171.809C76.5038 172.065 76.4593 172.31 76.4259 172.544C77.1162 172.533 77.6729 172.416 78.096 172.193C78.5302 171.971 78.7474 171.653 78.7474 171.241C78.7474 171.019 78.675 170.818 78.5302 170.64C78.3966 170.462 78.1851 170.373 77.8956 170.373ZM88.3042 176.035C88.3042 175.79 88.3209 175.472 88.3543 175.083C88.3988 174.682 88.4378 174.264 88.4712 173.83C88.5157 173.385 88.5547 172.956 88.5881 172.544C88.6327 172.132 88.6549 171.787 88.6549 171.509C88.6549 171.219 88.5825 170.963 88.4378 170.74C88.3042 170.506 88.037 170.39 87.6362 170.39C87.2465 170.39 86.9236 170.484 86.6675 170.674C86.4114 170.863 86.1943 171.208 86.0161 171.709C85.8491 172.21 85.71 172.9 85.5986 173.78C85.4873 174.66 85.3815 175.79 85.2813 177.17C85.2702 177.304 85.2423 177.393 85.1978 177.437C85.1532 177.482 85.0586 177.504 84.9139 177.504H84.3126C83.9675 177.504 83.6835 177.471 83.4609 177.404C83.2493 177.326 83.0767 177.22 82.9431 177.087C82.8207 176.953 82.7316 176.792 82.6759 176.602C82.6314 176.402 82.6091 176.174 82.6091 175.918C82.6091 175.751 82.6147 175.517 82.6258 175.216C82.6481 174.904 82.6815 174.481 82.726 173.947C82.7706 173.401 82.8207 172.717 82.8763 171.893C82.9431 171.058 83.0211 170.028 83.1101 168.803C83.1213 168.558 83.1491 168.413 83.1936 168.369C83.2271 168.335 83.3161 168.319 83.4609 168.319H84.1122C84.4462 168.319 84.719 168.358 84.9306 168.436C85.1532 168.513 85.3314 168.619 85.465 168.753C85.5986 168.875 85.6933 169.026 85.7489 169.204C85.8046 169.371 85.838 169.543 85.8491 169.722C86.1943 169.131 86.5895 168.725 87.0349 168.502C87.4803 168.269 88.037 168.152 88.705 168.152C89.1727 168.152 89.579 168.202 89.9242 168.302C90.2694 168.402 90.5533 168.575 90.776 168.82C91.0098 169.053 91.1824 169.365 91.2937 169.755C91.405 170.134 91.4607 170.607 91.4607 171.175C91.4607 171.353 91.4496 171.609 91.4273 171.943C91.405 172.277 91.3772 172.644 91.3438 173.045C91.3104 173.435 91.2714 173.847 91.2269 174.281C91.1935 174.704 91.1601 175.099 91.1267 175.467C91.0933 175.834 91.0654 176.157 91.0432 176.435C91.0209 176.714 91.0098 176.897 91.0098 176.987C91.0098 177.231 90.9819 177.382 90.9263 177.437C90.8706 177.482 90.7481 177.504 90.5588 177.504H90.0244C89.6681 177.504 89.3786 177.471 89.156 177.404C88.9333 177.337 88.7607 177.243 88.6382 177.12C88.5157 176.998 88.4267 176.847 88.371 176.669C88.3265 176.48 88.3042 176.268 88.3042 176.035ZM96.8408 168.152C97.7872 168.152 98.4831 168.341 98.9285 168.719C99.3738 169.087 99.5965 169.56 99.5965 170.139C99.5965 170.629 99.4406 171.002 99.1289 171.258C98.8283 171.514 98.3885 171.642 97.8095 171.642C97.6536 171.642 97.5478 171.625 97.4922 171.592C97.4365 171.559 97.4087 171.497 97.4087 171.408C97.4087 171.308 97.3975 171.197 97.3753 171.074C97.3641 170.941 97.3252 170.818 97.2584 170.707C97.2027 170.584 97.108 170.484 96.9744 170.406C96.852 170.328 96.6738 170.289 96.44 170.289C96.1282 170.289 95.8777 170.367 95.6884 170.523C95.4992 170.668 95.4045 170.852 95.4045 171.074C95.4045 171.308 95.4992 171.497 95.6884 171.642C95.8889 171.776 96.1338 171.904 96.4233 172.026C96.7239 172.149 97.0468 172.277 97.392 172.41C97.7371 172.533 98.0544 172.7 98.3439 172.911C98.6445 173.123 98.8895 173.39 99.0788 173.713C99.2792 174.025 99.3794 174.431 99.3794 174.932C99.3794 175.734 99.0955 176.391 98.5276 176.903C97.9598 177.415 97.108 177.671 95.9724 177.671C95.6606 177.671 95.2988 177.643 94.8868 177.588C94.486 177.543 94.1018 177.471 93.7344 177.371C93.367 177.259 93.0552 177.115 92.7991 176.936C92.5542 176.758 92.4317 176.536 92.4317 176.268C92.4317 176.168 92.4484 176.046 92.4818 175.901C92.5264 175.756 92.5876 175.617 92.6655 175.483C92.7546 175.35 92.8548 175.238 92.9662 175.149C93.0886 175.049 93.2334 174.999 93.4004 174.999C93.534 174.999 93.6565 175.033 93.7678 175.099C93.8792 175.166 94.0072 175.238 94.1519 175.316C94.3078 175.383 94.4971 175.45 94.7198 175.517C94.9425 175.584 95.2375 175.617 95.6049 175.617C95.8833 175.617 96.1282 175.584 96.3398 175.517C96.5625 175.45 96.6738 175.3 96.6738 175.066C96.6738 174.854 96.5847 174.687 96.4066 174.565C96.2284 174.431 96.0002 174.309 95.7218 174.197C95.4546 174.086 95.1596 173.969 94.8367 173.847C94.5249 173.713 94.2299 173.541 93.9515 173.329C93.6843 173.117 93.4616 172.85 93.2835 172.527C93.1053 172.193 93.0163 171.765 93.0163 171.241C93.0163 170.674 93.1276 170.195 93.3503 169.805C93.5841 169.404 93.8792 169.081 94.2354 168.836C94.6029 168.591 95.0148 168.419 95.4713 168.319C95.9278 168.207 96.3843 168.152 96.8408 168.152ZM107.439 177.671C107.005 177.671 106.587 177.593 106.186 177.437C105.797 177.282 105.451 177.037 105.151 176.703C104.861 176.369 104.628 175.945 104.449 175.433C104.282 174.921 104.199 174.303 104.199 173.58C104.199 173.257 104.221 172.9 104.266 172.511C104.31 172.11 104.388 171.709 104.499 171.308C104.611 170.907 104.767 170.518 104.967 170.139C105.168 169.761 105.418 169.426 105.719 169.137C106.03 168.836 106.398 168.597 106.821 168.419C107.255 168.241 107.762 168.152 108.341 168.152C108.897 168.152 109.343 168.252 109.677 168.452C110.022 168.642 110.239 168.976 110.328 169.454C110.35 169.02 110.373 168.642 110.395 168.319C110.417 167.996 110.434 167.695 110.445 167.417C110.467 167.138 110.49 166.86 110.512 166.582C110.534 166.303 110.556 165.986 110.579 165.63C110.59 165.385 110.618 165.24 110.662 165.196C110.684 165.173 110.712 165.162 110.746 165.162C110.779 165.151 110.84 165.145 110.929 165.145H111.581C111.915 165.145 112.193 165.184 112.416 165.262C112.638 165.34 112.817 165.446 112.95 165.58C113.084 165.713 113.178 165.869 113.234 166.047C113.29 166.214 113.318 166.392 113.318 166.582C113.318 166.582 113.307 166.721 113.284 166.999C113.262 167.278 113.234 167.651 113.201 168.118C113.167 168.575 113.128 169.098 113.084 169.688C113.039 170.278 112.995 170.891 112.95 171.525C112.906 172.149 112.861 172.772 112.817 173.396C112.772 174.008 112.728 174.576 112.683 175.099C112.638 175.611 112.6 176.057 112.566 176.435C112.544 176.803 112.527 177.048 112.516 177.17C112.494 177.304 112.466 177.393 112.433 177.437C112.399 177.482 112.304 177.504 112.149 177.504H111.547C111.314 177.504 111.091 177.488 110.879 177.454C110.679 177.41 110.501 177.343 110.345 177.254C110.2 177.154 110.083 177.026 109.994 176.87C109.916 176.703 109.877 176.491 109.877 176.235C109.677 176.658 109.371 177.003 108.959 177.27C108.558 177.538 108.051 177.671 107.439 177.671ZM108.892 170.373C108.324 170.373 107.901 170.623 107.623 171.124C107.355 171.614 107.222 172.277 107.222 173.112C107.222 173.401 107.238 173.685 107.272 173.964C107.316 174.242 107.389 174.493 107.489 174.715C107.589 174.938 107.723 175.116 107.89 175.25C108.068 175.383 108.291 175.45 108.558 175.45C109.037 175.45 109.437 175.216 109.76 174.749C110.083 174.281 110.245 173.546 110.245 172.544C110.245 172.266 110.228 171.998 110.195 171.742C110.161 171.475 110.094 171.241 109.994 171.041C109.894 170.841 109.755 170.679 109.577 170.557C109.398 170.434 109.17 170.373 108.892 170.373ZM118.401 177.671C117.912 177.671 117.422 177.61 116.932 177.488C116.453 177.365 116.019 177.154 115.629 176.853C115.251 176.552 114.939 176.151 114.694 175.65C114.449 175.149 114.326 174.52 114.326 173.763C114.326 173.485 114.349 173.151 114.393 172.761C114.438 172.371 114.521 171.971 114.644 171.559C114.777 171.147 114.955 170.74 115.178 170.339C115.412 169.928 115.713 169.56 116.08 169.237C116.447 168.914 116.893 168.653 117.416 168.452C117.939 168.252 118.563 168.152 119.287 168.152C119.866 168.152 120.355 168.218 120.756 168.352C121.157 168.486 121.48 168.669 121.725 168.903C121.97 169.126 122.148 169.388 122.259 169.688C122.371 169.989 122.426 170.312 122.426 170.657C122.426 171.169 122.321 171.603 122.109 171.959C121.909 172.316 121.641 172.616 121.307 172.861C120.985 173.095 120.623 173.279 120.222 173.412C119.821 173.546 119.426 173.652 119.036 173.73C118.646 173.797 118.285 173.841 117.951 173.863C117.628 173.875 117.377 173.88 117.199 173.88C117.199 174.092 117.227 174.303 117.282 174.515C117.349 174.715 117.444 174.893 117.566 175.049C117.689 175.205 117.85 175.333 118.051 175.433C118.251 175.534 118.496 175.584 118.786 175.584C119.075 175.584 119.298 175.539 119.454 175.45C119.621 175.35 119.754 175.244 119.854 175.133C119.955 175.01 120.038 174.904 120.105 174.815C120.183 174.715 120.283 174.665 120.406 174.665C120.461 174.665 120.556 174.682 120.69 174.715C120.834 174.737 120.979 174.793 121.124 174.882C121.268 174.971 121.397 175.094 121.508 175.25C121.619 175.405 121.675 175.606 121.675 175.851C121.675 176.174 121.575 176.452 121.374 176.686C121.174 176.92 120.912 177.109 120.589 177.254C120.278 177.398 119.927 177.504 119.537 177.571C119.147 177.638 118.769 177.671 118.401 177.671ZM118.719 170.373C118.474 170.373 118.262 170.445 118.084 170.59C117.917 170.724 117.772 170.896 117.65 171.108C117.539 171.319 117.45 171.553 117.383 171.809C117.327 172.065 117.282 172.31 117.249 172.544C117.939 172.533 118.496 172.416 118.919 172.193C119.353 171.971 119.571 171.653 119.571 171.241C119.571 171.019 119.498 170.818 119.353 170.64C119.22 170.462 119.008 170.373 118.719 170.373ZM130.454 175.383C130.587 174.916 130.71 174.454 130.821 173.997C130.943 173.541 131.06 173.056 131.172 172.544C131.294 172.021 131.422 171.453 131.556 170.841C131.701 170.217 131.868 169.51 132.057 168.719C132.09 168.564 132.14 168.463 132.207 168.419C132.274 168.363 132.419 168.335 132.641 168.335C132.808 168.335 133.031 168.341 133.309 168.352C133.588 168.363 133.861 168.402 134.128 168.469C134.395 168.536 134.623 168.636 134.813 168.77C135.013 168.903 135.113 169.087 135.113 169.321C135.113 169.51 135.046 169.816 134.913 170.239C134.779 170.662 134.607 171.147 134.395 171.692C134.183 172.227 133.944 172.789 133.677 173.379C133.421 173.969 133.17 174.526 132.925 175.049C132.68 175.573 132.452 176.035 132.241 176.435C132.029 176.825 131.873 177.098 131.773 177.254C131.684 177.376 131.606 177.449 131.539 177.471C131.472 177.493 131.361 177.504 131.205 177.504H129.719C129.485 177.504 129.29 177.465 129.134 177.387C128.989 177.298 128.867 177.187 128.767 177.053C128.667 176.92 128.583 176.769 128.516 176.602C128.449 176.424 128.388 176.241 128.333 176.051C128.01 174.938 127.726 173.986 127.481 173.195C127.247 172.394 127.047 171.726 126.88 171.191C126.712 170.657 126.579 170.234 126.479 169.922C126.378 169.599 126.301 169.354 126.245 169.187C126.189 169.009 126.15 168.892 126.128 168.836C126.106 168.77 126.095 168.725 126.095 168.703C126.106 168.625 126.161 168.541 126.262 168.452C126.362 168.363 126.49 168.319 126.646 168.319C127.158 168.319 127.592 168.341 127.948 168.385C128.316 168.419 128.616 168.486 128.85 168.586C129.095 168.686 129.279 168.825 129.401 169.003C129.535 169.182 129.63 169.415 129.685 169.705C129.696 169.783 129.719 169.939 129.752 170.172C129.786 170.406 129.819 170.69 129.852 171.024C129.897 171.347 129.947 171.709 130.003 172.11C130.058 172.499 130.108 172.895 130.153 173.296C130.209 173.685 130.259 174.064 130.303 174.431C130.359 174.799 130.409 175.116 130.454 175.383ZM137.695 177.504C137.35 177.504 137.066 177.471 136.843 177.404C136.631 177.326 136.459 177.22 136.325 177.087C136.203 176.953 136.114 176.792 136.058 176.602C136.013 176.402 135.991 176.174 135.991 175.918C135.991 175.751 135.997 175.517 136.008 175.216C136.03 174.904 136.064 174.481 136.108 173.947C136.153 173.401 136.203 172.717 136.258 171.893C136.325 171.058 136.403 170.028 136.492 168.803C136.503 168.558 136.531 168.413 136.576 168.369C136.609 168.335 136.698 168.319 136.843 168.319H137.494C137.839 168.319 138.118 168.352 138.329 168.419C138.552 168.486 138.725 168.586 138.847 168.719C138.981 168.853 139.07 169.015 139.114 169.204C139.17 169.393 139.198 169.605 139.198 169.838C139.198 170.005 139.187 170.256 139.164 170.59C139.142 170.924 139.109 171.381 139.064 171.959C139.031 172.527 138.981 173.24 138.914 174.097C138.847 174.943 138.764 175.968 138.663 177.17C138.652 177.304 138.624 177.393 138.58 177.437C138.535 177.482 138.441 177.504 138.296 177.504H137.695ZM136.509 166.348C136.509 165.903 136.67 165.552 136.993 165.296C137.316 165.04 137.75 164.912 138.296 164.912C138.775 164.912 139.12 165.012 139.331 165.212C139.554 165.402 139.665 165.658 139.665 165.98C139.665 166.392 139.51 166.738 139.198 167.016C138.897 167.283 138.452 167.417 137.862 167.417C136.96 167.417 136.509 167.06 136.509 166.348ZM144.563 168.152C145.509 168.152 146.205 168.341 146.651 168.719C147.096 169.087 147.319 169.56 147.319 170.139C147.319 170.629 147.163 171.002 146.851 171.258C146.55 171.514 146.111 171.642 145.532 171.642C145.376 171.642 145.27 171.625 145.214 171.592C145.159 171.559 145.131 171.497 145.131 171.408C145.131 171.308 145.12 171.197 145.097 171.074C145.086 170.941 145.047 170.818 144.981 170.707C144.925 170.584 144.83 170.484 144.697 170.406C144.574 170.328 144.396 170.289 144.162 170.289C143.85 170.289 143.6 170.367 143.411 170.523C143.221 170.668 143.127 170.852 143.127 171.074C143.127 171.308 143.221 171.497 143.411 171.642C143.611 171.776 143.856 171.904 144.145 172.026C144.446 172.149 144.769 172.277 145.114 172.41C145.459 172.533 145.777 172.7 146.066 172.911C146.367 173.123 146.612 173.39 146.801 173.713C147.001 174.025 147.102 174.431 147.102 174.932C147.102 175.734 146.818 176.391 146.25 176.903C145.682 177.415 144.83 177.671 143.695 177.671C143.383 177.671 143.021 177.643 142.609 177.588C142.208 177.543 141.824 177.471 141.457 177.371C141.089 177.259 140.777 177.115 140.521 176.936C140.276 176.758 140.154 176.536 140.154 176.268C140.154 176.168 140.171 176.046 140.204 175.901C140.249 175.756 140.31 175.617 140.388 175.483C140.477 175.35 140.577 175.238 140.688 175.149C140.811 175.049 140.956 174.999 141.123 174.999C141.256 174.999 141.379 175.033 141.49 175.099C141.601 175.166 141.729 175.238 141.874 175.316C142.03 175.383 142.219 175.45 142.442 175.517C142.665 175.584 142.96 175.617 143.327 175.617C143.605 175.617 143.85 175.584 144.062 175.517C144.285 175.45 144.396 175.3 144.396 175.066C144.396 174.854 144.307 174.687 144.129 174.565C143.951 174.431 143.722 174.309 143.444 174.197C143.177 174.086 142.882 173.969 142.559 173.847C142.247 173.713 141.952 173.541 141.674 173.329C141.406 173.117 141.184 172.85 141.006 172.527C140.828 172.193 140.738 171.765 140.738 171.241C140.738 170.674 140.85 170.195 141.072 169.805C141.306 169.404 141.601 169.081 141.958 168.836C142.325 168.591 142.737 168.419 143.194 168.319C143.65 168.207 144.107 168.152 144.563 168.152ZM150.237 177.504C149.892 177.504 149.608 177.471 149.385 177.404C149.174 177.326 149.001 177.22 148.867 177.087C148.745 176.953 148.656 176.792 148.6 176.602C148.556 176.402 148.533 176.174 148.533 175.918C148.533 175.751 148.539 175.517 148.55 175.216C148.572 174.904 148.606 174.481 148.65 173.947C148.695 173.401 148.745 172.717 148.801 171.893C148.867 171.058 148.945 170.028 149.034 168.803C149.045 168.558 149.073 168.413 149.118 168.369C149.151 168.335 149.24 168.319 149.385 168.319H150.036C150.382 168.319 150.66 168.352 150.871 168.419C151.094 168.486 151.267 168.586 151.389 168.719C151.523 168.853 151.612 169.015 151.656 169.204C151.712 169.393 151.74 169.605 151.74 169.838C151.74 170.005 151.729 170.256 151.707 170.59C151.684 170.924 151.651 171.381 151.606 171.959C151.573 172.527 151.523 173.24 151.456 174.097C151.389 174.943 151.306 175.968 151.205 177.17C151.194 177.304 151.167 177.393 151.122 177.437C151.077 177.482 150.983 177.504 150.838 177.504H150.237ZM149.051 166.348C149.051 165.903 149.212 165.552 149.535 165.296C149.858 165.04 150.292 164.912 150.838 164.912C151.317 164.912 151.662 165.012 151.874 165.212C152.096 165.402 152.208 165.658 152.208 165.98C152.208 166.392 152.052 166.738 151.74 167.016C151.439 167.283 150.994 167.417 150.404 167.417C149.502 167.417 149.051 167.06 149.051 166.348ZM156.805 170.573C156.771 170.996 156.732 171.414 156.688 171.826C156.654 172.238 156.621 172.628 156.587 172.995C156.554 173.362 156.526 173.691 156.504 173.98C156.493 174.27 156.487 174.493 156.487 174.648C156.487 174.938 156.521 175.133 156.587 175.233C156.654 175.322 156.766 175.367 156.921 175.367C157.044 175.367 157.15 175.344 157.239 175.3C157.328 175.255 157.411 175.205 157.489 175.149C157.567 175.094 157.634 175.044 157.69 174.999C157.757 174.955 157.829 174.932 157.907 174.932C157.985 174.932 158.057 174.977 158.124 175.066C158.191 175.155 158.224 175.361 158.224 175.684C158.224 176.296 158.057 176.781 157.723 177.137C157.389 177.493 156.816 177.671 156.003 177.671C155.201 177.671 154.606 177.488 154.216 177.12C153.837 176.742 153.648 176.168 153.648 175.4C153.648 175.233 153.654 175.038 153.665 174.815C153.687 174.582 153.715 174.281 153.748 173.914C153.782 173.546 153.821 173.095 153.865 172.561C153.921 172.026 153.976 171.364 154.032 170.573H153.147C153.058 170.573 153.002 170.557 152.98 170.523C152.969 170.479 152.963 170.417 152.963 170.339L153.013 169.488C153.025 169.343 153.041 169.204 153.063 169.07C153.097 168.925 153.153 168.797 153.231 168.686C153.32 168.575 153.442 168.486 153.598 168.419C153.754 168.352 153.96 168.319 154.216 168.319C154.294 168.118 154.383 167.879 154.483 167.6C154.583 167.322 154.684 167.055 154.784 166.799C154.884 166.532 154.979 166.309 155.068 166.131C155.168 165.953 155.257 165.864 155.335 165.864H155.819C156.287 165.864 156.61 166.008 156.788 166.298C156.966 166.587 157.055 166.932 157.055 167.333C157.055 167.556 157.038 167.884 157.005 168.319H158.759C158.937 168.319 159.026 168.397 159.026 168.552L158.959 169.454C158.937 169.788 158.842 170.061 158.675 170.273C158.519 170.473 158.191 170.573 157.69 170.573H156.805ZM163.628 177.671C163.138 177.671 162.648 177.61 162.159 177.488C161.68 177.365 161.246 177.154 160.856 176.853C160.477 176.552 160.166 176.151 159.921 175.65C159.676 175.149 159.553 174.52 159.553 173.763C159.553 173.485 159.575 173.151 159.62 172.761C159.665 172.371 159.748 171.971 159.871 171.559C160.004 171.147 160.182 170.74 160.405 170.339C160.639 169.928 160.939 169.56 161.307 169.237C161.674 168.914 162.12 168.653 162.643 168.452C163.166 168.252 163.79 168.152 164.513 168.152C165.092 168.152 165.582 168.218 165.983 168.352C166.384 168.486 166.707 168.669 166.952 168.903C167.197 169.126 167.375 169.388 167.486 169.688C167.598 169.989 167.653 170.312 167.653 170.657C167.653 171.169 167.547 171.603 167.336 171.959C167.136 172.316 166.868 172.616 166.534 172.861C166.211 173.095 165.85 173.279 165.449 173.412C165.048 173.546 164.653 173.652 164.263 173.73C163.873 173.797 163.511 173.841 163.177 173.863C162.854 173.875 162.604 173.88 162.426 173.88C162.426 174.092 162.454 174.303 162.509 174.515C162.576 174.715 162.671 174.893 162.793 175.049C162.916 175.205 163.077 175.333 163.278 175.433C163.478 175.534 163.723 175.584 164.012 175.584C164.302 175.584 164.525 175.539 164.68 175.45C164.847 175.35 164.981 175.244 165.081 175.133C165.181 175.01 165.265 174.904 165.332 174.815C165.41 174.715 165.51 174.665 165.632 174.665C165.688 174.665 165.783 174.682 165.916 174.715C166.061 174.737 166.206 174.793 166.351 174.882C166.495 174.971 166.623 175.094 166.735 175.25C166.846 175.405 166.902 175.606 166.902 175.851C166.902 176.174 166.801 176.452 166.601 176.686C166.401 176.92 166.139 177.109 165.816 177.254C165.504 177.398 165.154 177.504 164.764 177.571C164.374 177.638 163.996 177.671 163.628 177.671ZM163.946 170.373C163.701 170.373 163.489 170.445 163.311 170.59C163.144 170.724 162.999 170.896 162.877 171.108C162.765 171.319 162.676 171.553 162.609 171.809C162.554 172.065 162.509 172.31 162.476 172.544C163.166 172.533 163.723 172.416 164.146 172.193C164.58 171.971 164.797 171.653 164.797 171.241C164.797 171.019 164.725 170.818 164.58 170.64C164.447 170.462 164.235 170.373 163.946 170.373Z" fill="white"/>
</svg>
