<svg width="230" height="181" viewBox="0 0 230 181" fill="none" xmlns="http://www.w3.org/2000/svg">
<path d="M115 136L109.226 146H120.774L115 136ZM116 161.009V145H114V161.009H116Z" fill="white"/>
<path d="M21.4361 103.633C21.0594 104.014 21.0631 104.629 21.4444 105.006L27.6586 111.146C28.0399 111.522 28.6545 111.519 29.0313 111.137C29.408 110.756 29.4043 110.141 29.023 109.765L23.4993 104.307L28.957 98.7832C29.3337 98.4018 29.3301 97.7873 28.9487 97.4105C28.5674 97.0337 27.9528 97.0374 27.576 97.4187L21.4361 103.633ZM22.1324 105.286C22.7976 105.282 23.4582 105.279 24.1145 105.279L24.1121 103.337C23.4527 103.338 22.789 103.34 22.1208 103.345L22.1324 105.286ZM27.9995 105.293C29.3254 105.304 30.6324 105.322 31.9209 105.346L31.9576 103.405C30.6623 103.381 29.3485 103.363 28.0161 103.351L27.9995 105.293ZM35.7977 105.44C37.1207 105.48 38.4232 105.526 39.7055 105.579L39.7857 103.639C38.4959 103.586 37.1859 103.539 35.8555 103.5L35.7977 105.44ZM43.608 105.764C44.9203 105.835 46.2103 105.913 47.4783 105.997L47.6077 104.06C46.3311 103.975 45.0327 103.897 43.7122 103.826L43.608 105.764ZM51.3704 106.284C52.6935 106.391 53.9912 106.506 55.264 106.628L55.4496 104.696C54.167 104.573 52.8595 104.457 51.5269 104.349L51.3704 106.284ZM59.1339 107.031C60.4456 107.179 61.729 107.334 62.9846 107.498L63.235 105.573C61.968 105.408 60.6734 105.251 59.3507 105.102L59.1339 107.031ZM66.8309 108.034C68.1481 108.231 69.4323 108.437 70.6841 108.65L71.0107 106.737C69.7454 106.521 68.4479 106.313 67.1177 106.114L66.8309 108.034ZM74.5145 109.348C75.8216 109.602 77.0901 109.865 78.3209 110.137L78.7389 108.241C77.4918 107.966 76.2073 107.7 74.8846 107.443L74.5145 109.348ZM82.0995 111.025C83.3933 111.348 84.6407 111.681 85.843 112.023L86.3734 110.155C85.1508 109.808 83.8836 109.47 82.5706 109.141L82.0995 111.025ZM89.5398 113.143C90.8209 113.557 92.0434 113.981 93.2093 114.412L93.8828 112.591C92.6907 112.15 91.4426 111.718 90.1368 111.296L89.5398 113.143ZM96.8049 115.84C98.0418 116.367 99.2022 116.903 100.289 117.444L101.154 115.706C100.031 115.147 98.8366 114.596 97.5666 114.054L96.8049 115.84ZM103.676 119.278C104.852 119.973 105.917 120.672 106.876 121.366L108.014 119.793C107.003 119.062 105.889 118.331 104.664 117.607L103.676 119.278ZM109.801 123.76C110.821 124.714 111.645 125.643 112.296 126.53L113.861 125.382C113.131 124.387 112.225 123.368 111.128 122.342L109.801 123.76ZM113.992 129.687C114.191 130.289 114.294 130.844 114.322 131.345L116.26 131.239C116.222 130.55 116.082 129.826 115.836 129.08L113.992 129.687Z" fill="white"/>
<rect x="13.9747" y="96.483" width="2.32911" height="14.5036" fill="#F69F13"/>
<rect x="1.52588e-05" y="12.3623" width="11.6029" height="92" transform="rotate(-90 1.52588e-05 12.3623)" fill="#581616"/>
<rect x="1.52588e-05" y="145.795" width="11.6029" height="92" transform="rotate(-90 1.52588e-05 145.795)" fill="#797979"/>
<rect x="1.52588e-05" y="0.759277" width="11.6456" height="145.036" fill="#797979"/>
<rect width="11.6029" height="92" transform="matrix(0 -1 -1 0 230 12.3623)" fill="#581616"/>
<rect width="11.6029" height="92" transform="matrix(0 -1 -1 0 230 145.795)" fill="#797979"/>
<rect width="11.6456" height="145.036" transform="matrix(-1 0 0 1 230 0.759399)" fill="#797979"/>
<ellipse cx="115" cy="130.434" rx="3.78481" ry="3.77093" fill="white"/>
<path d="M66.6958 163.884C67.7907 163.884 68.6002 164.122 69.1243 164.6C69.6601 165.078 69.928 165.701 69.928 166.469C69.928 167.122 69.7475 167.623 69.3864 167.972C69.0253 168.31 68.507 168.479 67.8314 168.479C67.6218 168.479 67.4878 168.461 67.4296 168.426C67.3713 168.38 67.3422 168.292 67.3422 168.164C67.3422 168.048 67.3306 167.896 67.3073 167.71C67.2956 167.524 67.2549 167.343 67.185 167.168C67.1151 166.994 67.0044 166.848 66.853 166.732C66.7016 166.603 66.4919 166.539 66.224 166.539C65.8513 166.539 65.5193 166.656 65.2281 166.889C64.9369 167.11 64.7913 167.401 64.7913 167.762C64.7913 168.077 64.9078 168.333 65.1408 168.531C65.3854 168.729 65.6882 168.916 66.0493 169.09C66.4104 169.253 66.8006 169.422 67.2199 169.597C67.6509 169.772 68.0469 170.005 68.408 170.296C68.7691 170.575 69.0661 170.931 69.299 171.362C69.5436 171.781 69.6659 172.317 69.6659 172.969C69.6659 173.481 69.5786 173.965 69.4039 174.419C69.2408 174.862 68.9904 175.252 68.6526 175.59C68.3264 175.916 67.9071 176.172 67.3946 176.358C66.8938 176.545 66.3056 176.638 65.63 176.638C65.0476 176.638 64.506 176.574 64.0051 176.446C63.5159 176.318 63.085 176.16 62.7122 175.974C62.3511 175.776 62.0658 175.566 61.8561 175.345C61.6465 175.112 61.5416 174.902 61.5416 174.716C61.5416 173.947 61.5824 173.394 61.6639 173.056C61.7571 172.718 61.9202 172.55 62.1531 172.55C62.3162 172.55 62.4851 172.619 62.6598 172.759C62.8462 172.899 63.0558 173.056 63.2888 173.231C63.5217 173.406 63.7896 173.563 64.0925 173.703C64.407 173.843 64.7681 173.912 65.1757 173.912C65.3388 173.912 65.496 173.901 65.6475 173.877C65.8105 173.843 65.9503 173.79 66.0668 173.72C66.1949 173.65 66.2939 173.557 66.3638 173.441C66.4453 173.324 66.4861 173.184 66.4861 173.021C66.4861 172.73 66.3754 172.497 66.1541 172.322C65.9328 172.148 65.6533 171.991 65.3155 171.851C64.9777 171.699 64.6108 171.548 64.2148 171.396C63.8304 171.233 63.4693 171.018 63.1315 170.75C62.7938 170.47 62.5142 170.115 62.2929 169.684C62.0716 169.253 61.9609 168.7 61.9609 168.024C61.9609 167.267 62.1007 166.627 62.3803 166.103C62.6715 165.578 63.0384 165.153 63.481 164.827C63.9352 164.489 64.4419 164.251 65.001 164.111C65.5718 163.959 66.1367 163.884 66.6958 163.884ZM75.2047 176.638C74.6922 176.638 74.1797 176.574 73.6672 176.446C73.1664 176.318 72.7121 176.096 72.3044 175.782C71.9084 175.467 71.5823 175.048 71.326 174.524C71.0698 174 70.9416 173.342 70.9416 172.55C70.9416 172.258 70.9649 171.909 71.0115 171.501C71.0581 171.094 71.1455 170.674 71.2736 170.243C71.4134 169.812 71.5997 169.387 71.8327 168.968C72.0773 168.537 72.3918 168.153 72.7762 167.815C73.1605 167.477 73.6265 167.203 74.1739 166.994C74.7213 166.784 75.3736 166.679 76.1307 166.679C76.7364 166.679 77.2489 166.749 77.6682 166.889C78.0876 167.029 78.4253 167.221 78.6816 167.465C78.9378 167.698 79.1242 167.972 79.2407 168.287C79.3572 168.601 79.4154 168.939 79.4154 169.3C79.4154 169.836 79.3047 170.29 79.0834 170.663C78.8738 171.035 78.5942 171.35 78.2448 171.606C77.907 171.851 77.5285 172.043 77.1091 172.183C76.6898 172.322 76.2763 172.433 75.8687 172.515C75.461 172.585 75.0824 172.631 74.733 172.654C74.3952 172.666 74.1331 172.672 73.9468 172.672C73.9468 172.893 73.9759 173.115 74.0341 173.336C74.104 173.545 74.203 173.732 74.3311 173.895C74.4593 174.058 74.6282 174.192 74.8378 174.297C75.0475 174.402 75.3037 174.454 75.6066 174.454C75.9094 174.454 76.1424 174.407 76.3054 174.314C76.4802 174.209 76.6199 174.099 76.7248 173.982C76.8296 173.854 76.917 173.744 76.9868 173.65C77.0684 173.545 77.1732 173.493 77.3013 173.493C77.3596 173.493 77.4586 173.511 77.5983 173.545C77.7498 173.569 77.9012 173.627 78.0526 173.72C78.204 173.813 78.338 173.942 78.4545 174.105C78.5709 174.268 78.6292 174.477 78.6292 174.734C78.6292 175.071 78.5243 175.363 78.3147 175.607C78.105 175.852 77.8313 176.05 77.4935 176.201C77.1674 176.353 76.8005 176.463 76.3928 176.533C75.9851 176.603 75.5891 176.638 75.2047 176.638ZM75.5367 169.003C75.2804 169.003 75.0591 169.079 74.8728 169.23C74.6981 169.37 74.5466 169.55 74.4185 169.772C74.302 169.993 74.2088 170.238 74.139 170.505C74.0807 170.773 74.0341 171.03 73.9992 171.274C74.7213 171.263 75.3037 171.14 75.7463 170.907C76.2006 170.674 76.4277 170.342 76.4277 169.911C76.4277 169.678 76.352 169.469 76.2006 169.282C76.0608 169.096 75.8395 169.003 75.5367 169.003ZM86.4255 174.926C86.4255 174.67 86.443 174.338 86.4779 173.93C86.5245 173.511 86.5653 173.074 86.6002 172.619C86.6468 172.154 86.6876 171.705 86.7225 171.274C86.7691 170.843 86.7924 170.482 86.7924 170.191C86.7924 169.888 86.7167 169.62 86.5653 169.387C86.4255 169.143 86.1459 169.02 85.7266 169.02C85.319 169.02 84.9812 169.119 84.7133 169.317C84.4454 169.515 84.2182 169.876 84.0319 170.401C83.8572 170.925 83.7116 171.647 83.5951 172.567C83.4786 173.487 83.3679 174.67 83.2631 176.114C83.2515 176.254 83.2224 176.347 83.1758 176.393C83.1292 176.44 83.0302 176.463 82.8787 176.463H82.2498C81.8887 176.463 81.5917 176.428 81.3587 176.358C81.1374 176.277 80.9569 176.166 80.8171 176.026C80.689 175.887 80.5958 175.718 80.5375 175.52C80.4909 175.31 80.4677 175.071 80.4677 174.803C80.4677 174.629 80.4735 174.384 80.4851 174.07C80.5084 173.744 80.5434 173.301 80.59 172.742C80.6365 172.171 80.689 171.455 80.7472 170.593C80.8171 169.719 80.8986 168.642 80.9918 167.361C81.0035 167.104 81.0326 166.953 81.0792 166.906C81.1141 166.871 81.2073 166.854 81.3587 166.854H82.0401C82.3895 166.854 82.6749 166.895 82.8962 166.976C83.1292 167.058 83.3155 167.168 83.4553 167.308C83.5951 167.436 83.6941 167.593 83.7523 167.78C83.8106 167.955 83.8455 168.135 83.8572 168.321C84.2182 167.704 84.6317 167.279 85.0976 167.046C85.5636 166.801 86.1459 166.679 86.8448 166.679C87.334 166.679 87.7592 166.732 88.1202 166.836C88.4813 166.941 88.7783 167.122 89.0113 167.378C89.2559 167.623 89.4364 167.949 89.5529 168.356C89.6694 168.752 89.7276 169.247 89.7276 169.841C89.7276 170.028 89.716 170.296 89.6927 170.645C89.6694 170.995 89.6403 171.379 89.6053 171.798C89.5704 172.206 89.5296 172.637 89.483 173.091C89.4481 173.534 89.4131 173.947 89.3782 174.332C89.3433 174.716 89.3141 175.054 89.2908 175.345C89.2675 175.636 89.2559 175.828 89.2559 175.922C89.2559 176.178 89.2268 176.335 89.1685 176.393C89.1103 176.44 88.9822 176.463 88.7842 176.463H88.2251C87.8523 176.463 87.5495 176.428 87.3165 176.358C87.0836 176.289 86.903 176.19 86.7749 176.061C86.6468 175.933 86.5536 175.776 86.4954 175.59C86.4488 175.392 86.4255 175.17 86.4255 174.926ZM95.356 166.679C96.346 166.679 97.074 166.877 97.5399 167.273C98.0058 167.658 98.2388 168.153 98.2388 168.758C98.2388 169.271 98.0757 169.661 97.7496 169.929C97.4351 170.197 96.975 170.331 96.3693 170.331C96.2063 170.331 96.0956 170.313 96.0374 170.278C95.9791 170.243 95.95 170.179 95.95 170.086C95.95 169.981 95.9384 169.865 95.9151 169.737C95.9034 169.597 95.8626 169.469 95.7928 169.352C95.7345 169.224 95.6355 169.119 95.4957 169.038C95.3676 168.956 95.1812 168.916 94.9366 168.916C94.6105 168.916 94.3484 168.997 94.1504 169.16C93.9524 169.312 93.8534 169.504 93.8534 169.737C93.8534 169.981 93.9524 170.179 94.1504 170.331C94.3601 170.47 94.6163 170.604 94.9192 170.733C95.2337 170.861 95.5714 170.995 95.9325 171.134C96.2936 171.263 96.6256 171.437 96.9284 171.659C97.2429 171.88 97.4992 172.159 97.6972 172.497C97.9068 172.823 98.0117 173.248 98.0117 173.773C98.0117 174.611 97.7146 175.298 97.1206 175.834C96.5266 176.37 95.6355 176.638 94.4474 176.638C94.1213 176.638 93.7427 176.609 93.3118 176.551C92.8925 176.504 92.4906 176.428 92.1062 176.323C91.7219 176.207 91.3957 176.056 91.1278 175.869C90.8716 175.683 90.7434 175.45 90.7434 175.17C90.7434 175.066 90.7609 174.937 90.7959 174.786C90.8425 174.635 90.9065 174.489 90.988 174.349C91.0812 174.209 91.1861 174.093 91.3025 174C91.4307 173.895 91.5821 173.843 91.7568 173.843C91.8966 173.843 92.0247 173.877 92.1412 173.947C92.2577 174.017 92.3916 174.093 92.543 174.174C92.7061 174.244 92.9041 174.314 93.1371 174.384C93.37 174.454 93.6787 174.489 94.0631 174.489C94.3543 174.489 94.6105 174.454 94.8318 174.384C95.0648 174.314 95.1812 174.157 95.1812 173.912C95.1812 173.691 95.0881 173.516 94.9017 173.388C94.7153 173.248 94.4766 173.12 94.1854 173.004C93.9058 172.887 93.5971 172.765 93.2594 172.637C92.9332 172.497 92.6246 172.317 92.3334 172.095C92.0538 171.874 91.8209 171.594 91.6345 171.257C91.4481 170.907 91.355 170.459 91.355 169.911C91.355 169.317 91.4714 168.816 91.7044 168.409C91.949 167.99 92.2577 167.652 92.6304 167.395C93.0148 167.139 93.4457 166.959 93.9233 166.854C94.4008 166.737 94.8784 166.679 95.356 166.679ZM106.443 176.638C105.989 176.638 105.552 176.556 105.133 176.393C104.725 176.23 104.364 175.974 104.049 175.625C103.746 175.275 103.502 174.833 103.316 174.297C103.141 173.761 103.053 173.115 103.053 172.357C103.053 172.02 103.077 171.647 103.123 171.239C103.17 170.82 103.251 170.401 103.368 169.981C103.484 169.562 103.647 169.154 103.857 168.758C104.067 168.362 104.329 168.013 104.643 167.71C104.97 167.395 105.354 167.145 105.797 166.959C106.251 166.772 106.781 166.679 107.386 166.679C107.969 166.679 108.435 166.784 108.784 166.994C109.145 167.192 109.372 167.541 109.466 168.042C109.489 167.588 109.512 167.192 109.535 166.854C109.559 166.516 109.576 166.202 109.588 165.91C109.611 165.619 109.634 165.328 109.658 165.037C109.681 164.746 109.704 164.414 109.728 164.041C109.739 163.785 109.768 163.633 109.815 163.587C109.838 163.563 109.867 163.552 109.902 163.552C109.937 163.54 110.001 163.534 110.095 163.534H110.776C111.125 163.534 111.417 163.575 111.65 163.657C111.882 163.738 112.069 163.849 112.209 163.988C112.348 164.128 112.447 164.291 112.506 164.478C112.564 164.652 112.593 164.839 112.593 165.037C112.593 165.037 112.581 165.182 112.558 165.474C112.535 165.765 112.506 166.155 112.471 166.644C112.436 167.122 112.395 167.669 112.348 168.287C112.302 168.904 112.255 169.544 112.209 170.208C112.162 170.861 112.115 171.513 112.069 172.165C112.022 172.806 111.976 173.4 111.929 173.947C111.882 174.483 111.842 174.949 111.807 175.345C111.783 175.729 111.766 175.986 111.754 176.114C111.731 176.254 111.702 176.347 111.667 176.393C111.632 176.44 111.533 176.463 111.37 176.463H110.741C110.496 176.463 110.263 176.446 110.042 176.411C109.832 176.364 109.646 176.294 109.483 176.201C109.332 176.096 109.209 175.962 109.116 175.799C109.035 175.625 108.994 175.403 108.994 175.135C108.784 175.578 108.464 175.939 108.033 176.219C107.614 176.498 107.084 176.638 106.443 176.638ZM107.963 169.003C107.369 169.003 106.926 169.265 106.635 169.789C106.356 170.302 106.216 170.995 106.216 171.868C106.216 172.171 106.233 172.468 106.268 172.759C106.315 173.05 106.391 173.313 106.495 173.545C106.6 173.778 106.74 173.965 106.915 174.105C107.101 174.244 107.334 174.314 107.614 174.314C108.114 174.314 108.534 174.07 108.872 173.58C109.209 173.091 109.378 172.322 109.378 171.274C109.378 170.983 109.361 170.703 109.326 170.436C109.291 170.156 109.221 169.911 109.116 169.702C109.011 169.492 108.866 169.323 108.679 169.195C108.493 169.067 108.254 169.003 107.963 169.003ZM117.911 176.638C117.399 176.638 116.886 176.574 116.374 176.446C115.873 176.318 115.419 176.096 115.011 175.782C114.615 175.467 114.289 175.048 114.033 174.524C113.776 174 113.648 173.342 113.648 172.55C113.648 172.258 113.672 171.909 113.718 171.501C113.765 171.094 113.852 170.674 113.98 170.243C114.12 169.812 114.306 169.387 114.539 168.968C114.784 168.537 115.098 168.153 115.483 167.815C115.867 167.477 116.333 167.203 116.88 166.994C117.428 166.784 118.08 166.679 118.837 166.679C119.443 166.679 119.956 166.749 120.375 166.889C120.794 167.029 121.132 167.221 121.388 167.465C121.644 167.698 121.831 167.972 121.947 168.287C122.064 168.601 122.122 168.939 122.122 169.3C122.122 169.836 122.011 170.29 121.79 170.663C121.58 171.035 121.301 171.35 120.951 171.606C120.614 171.851 120.235 172.043 119.816 172.183C119.396 172.322 118.983 172.433 118.575 172.515C118.168 172.585 117.789 172.631 117.44 172.654C117.102 172.666 116.84 172.672 116.653 172.672C116.653 172.893 116.682 173.115 116.741 173.336C116.811 173.545 116.91 173.732 117.038 173.895C117.166 174.058 117.335 174.192 117.544 174.297C117.754 174.402 118.01 174.454 118.313 174.454C118.616 174.454 118.849 174.407 119.012 174.314C119.187 174.209 119.327 174.099 119.431 173.982C119.536 173.854 119.624 173.744 119.693 173.65C119.775 173.545 119.88 173.493 120.008 173.493C120.066 173.493 120.165 173.511 120.305 173.545C120.456 173.569 120.608 173.627 120.759 173.72C120.911 173.813 121.045 173.942 121.161 174.105C121.278 174.268 121.336 174.477 121.336 174.734C121.336 175.071 121.231 175.363 121.021 175.607C120.812 175.852 120.538 176.05 120.2 176.201C119.874 176.353 119.507 176.463 119.099 176.533C118.692 176.603 118.296 176.638 117.911 176.638ZM118.243 169.003C117.987 169.003 117.766 169.079 117.579 169.23C117.405 169.37 117.253 169.55 117.125 169.772C117.009 169.993 116.915 170.238 116.846 170.505C116.787 170.773 116.741 171.03 116.706 171.274C117.428 171.263 118.01 171.14 118.453 170.907C118.907 170.674 119.134 170.342 119.134 169.911C119.134 169.678 119.059 169.469 118.907 169.282C118.767 169.096 118.546 169.003 118.243 169.003ZM130.519 174.244C130.659 173.755 130.787 173.272 130.904 172.794C131.032 172.317 131.154 171.81 131.271 171.274C131.399 170.727 131.533 170.133 131.673 169.492C131.824 168.84 131.999 168.1 132.197 167.273C132.232 167.11 132.284 167.005 132.354 166.959C132.424 166.9 132.575 166.871 132.808 166.871C132.983 166.871 133.216 166.877 133.507 166.889C133.798 166.9 134.084 166.941 134.363 167.011C134.643 167.081 134.882 167.186 135.08 167.326C135.289 167.465 135.394 167.658 135.394 167.902C135.394 168.1 135.324 168.42 135.184 168.863C135.045 169.306 134.864 169.812 134.643 170.383C134.421 170.942 134.171 171.53 133.891 172.148C133.624 172.765 133.361 173.347 133.105 173.895C132.849 174.442 132.61 174.926 132.389 175.345C132.168 175.753 132.005 176.038 131.9 176.201C131.807 176.329 131.725 176.405 131.655 176.428C131.585 176.452 131.469 176.463 131.306 176.463H129.751C129.506 176.463 129.302 176.422 129.139 176.341C128.988 176.248 128.86 176.131 128.755 175.992C128.65 175.852 128.563 175.695 128.493 175.52C128.423 175.333 128.359 175.141 128.301 174.943C127.963 173.778 127.666 172.783 127.409 171.956C127.165 171.117 126.955 170.418 126.781 169.859C126.606 169.3 126.466 168.857 126.361 168.531C126.256 168.193 126.175 167.937 126.117 167.762C126.058 167.576 126.018 167.454 125.994 167.395C125.971 167.326 125.959 167.279 125.959 167.256C125.971 167.174 126.029 167.087 126.134 166.994C126.239 166.9 126.373 166.854 126.536 166.854C127.072 166.854 127.526 166.877 127.899 166.924C128.283 166.959 128.598 167.029 128.842 167.133C129.098 167.238 129.291 167.384 129.419 167.57C129.558 167.757 129.658 168.001 129.716 168.304C129.727 168.386 129.751 168.549 129.786 168.793C129.821 169.038 129.856 169.335 129.89 169.684C129.937 170.022 129.989 170.401 130.048 170.82C130.106 171.228 130.158 171.641 130.205 172.06C130.263 172.468 130.316 172.864 130.362 173.248C130.42 173.633 130.473 173.965 130.519 174.244ZM138.095 176.463C137.734 176.463 137.437 176.428 137.204 176.358C136.982 176.277 136.802 176.166 136.662 176.026C136.534 175.887 136.441 175.718 136.382 175.52C136.336 175.31 136.313 175.071 136.313 174.803C136.313 174.629 136.318 174.384 136.33 174.07C136.353 173.744 136.388 173.301 136.435 172.742C136.481 172.171 136.534 171.455 136.592 170.593C136.662 169.719 136.743 168.642 136.837 167.361C136.848 167.104 136.877 166.953 136.924 166.906C136.959 166.871 137.052 166.854 137.204 166.854H137.885C138.246 166.854 138.537 166.889 138.759 166.959C138.992 167.029 139.172 167.133 139.3 167.273C139.44 167.413 139.533 167.582 139.58 167.78C139.638 167.978 139.667 168.199 139.667 168.444C139.667 168.618 139.655 168.881 139.632 169.23C139.609 169.579 139.574 170.057 139.527 170.663C139.492 171.257 139.44 172.002 139.37 172.899C139.3 173.784 139.213 174.856 139.108 176.114C139.096 176.254 139.067 176.347 139.021 176.393C138.974 176.44 138.875 176.463 138.724 176.463H138.095ZM136.854 164.792C136.854 164.326 137.023 163.959 137.361 163.691C137.699 163.424 138.153 163.29 138.724 163.29C139.224 163.29 139.586 163.394 139.807 163.604C140.04 163.802 140.156 164.07 140.156 164.408C140.156 164.839 139.993 165.2 139.667 165.491C139.353 165.771 138.887 165.91 138.269 165.91C137.326 165.91 136.854 165.538 136.854 164.792ZM145.28 166.679C146.27 166.679 146.998 166.877 147.464 167.273C147.93 167.658 148.163 168.153 148.163 168.758C148.163 169.271 148 169.661 147.673 169.929C147.359 170.197 146.899 170.331 146.293 170.331C146.13 170.331 146.019 170.313 145.961 170.278C145.903 170.243 145.874 170.179 145.874 170.086C145.874 169.981 145.862 169.865 145.839 169.737C145.827 169.597 145.787 169.469 145.717 169.352C145.658 169.224 145.559 169.119 145.42 169.038C145.291 168.956 145.105 168.916 144.861 168.916C144.534 168.916 144.272 168.997 144.074 169.16C143.876 169.312 143.777 169.504 143.777 169.737C143.777 169.981 143.876 170.179 144.074 170.331C144.284 170.47 144.54 170.604 144.843 170.733C145.158 170.861 145.495 170.995 145.856 171.134C146.217 171.263 146.549 171.437 146.852 171.659C147.167 171.88 147.423 172.159 147.621 172.497C147.831 172.823 147.936 173.248 147.936 173.773C147.936 174.611 147.639 175.298 147.044 175.834C146.45 176.37 145.559 176.638 144.371 176.638C144.045 176.638 143.667 176.609 143.236 176.551C142.816 176.504 142.414 176.428 142.03 176.323C141.646 176.207 141.32 176.056 141.052 175.869C140.795 175.683 140.667 175.45 140.667 175.17C140.667 175.066 140.685 174.937 140.72 174.786C140.766 174.635 140.83 174.489 140.912 174.349C141.005 174.209 141.11 174.093 141.226 174C141.355 173.895 141.506 173.843 141.681 173.843C141.82 173.843 141.949 173.877 142.065 173.947C142.182 174.017 142.315 174.093 142.467 174.174C142.63 174.244 142.828 174.314 143.061 174.384C143.294 174.454 143.603 174.489 143.987 174.489C144.278 174.489 144.534 174.454 144.756 174.384C144.989 174.314 145.105 174.157 145.105 173.912C145.105 173.691 145.012 173.516 144.826 173.388C144.639 173.248 144.4 173.12 144.109 173.004C143.83 172.887 143.521 172.765 143.183 172.637C142.857 172.497 142.548 172.317 142.257 172.095C141.978 171.874 141.745 171.594 141.558 171.257C141.372 170.907 141.279 170.459 141.279 169.911C141.279 169.317 141.395 168.816 141.628 168.409C141.873 167.99 142.182 167.652 142.554 167.395C142.939 167.139 143.37 166.959 143.847 166.854C144.325 166.737 144.802 166.679 145.28 166.679ZM151.215 176.463C150.854 176.463 150.557 176.428 150.324 176.358C150.103 176.277 149.923 176.166 149.783 176.026C149.655 175.887 149.561 175.718 149.503 175.52C149.457 175.31 149.433 175.071 149.433 174.803C149.433 174.629 149.439 174.384 149.451 174.07C149.474 173.744 149.509 173.301 149.556 172.742C149.602 172.171 149.655 171.455 149.713 170.593C149.783 169.719 149.864 168.642 149.957 167.361C149.969 167.104 149.998 166.953 150.045 166.906C150.08 166.871 150.173 166.854 150.324 166.854H151.006C151.367 166.854 151.658 166.889 151.879 166.959C152.112 167.029 152.293 167.133 152.421 167.273C152.561 167.413 152.654 167.582 152.701 167.78C152.759 167.978 152.788 168.199 152.788 168.444C152.788 168.618 152.776 168.881 152.753 169.23C152.73 169.579 152.695 170.057 152.648 170.663C152.613 171.257 152.561 172.002 152.491 172.899C152.421 173.784 152.334 174.856 152.229 176.114C152.217 176.254 152.188 176.347 152.141 176.393C152.095 176.44 151.996 176.463 151.844 176.463H151.215ZM149.975 164.792C149.975 164.326 150.144 163.959 150.482 163.691C150.819 163.424 151.274 163.29 151.844 163.29C152.345 163.29 152.706 163.394 152.928 163.604C153.161 163.802 153.277 164.07 153.277 164.408C153.277 164.839 153.114 165.2 152.788 165.491C152.473 165.771 152.007 165.91 151.39 165.91C150.447 165.91 149.975 165.538 149.975 164.792ZM158.086 169.213C158.051 169.655 158.01 170.092 157.964 170.523C157.929 170.954 157.894 171.362 157.859 171.746C157.824 172.13 157.795 172.474 157.772 172.777C157.76 173.08 157.754 173.313 157.754 173.476C157.754 173.778 157.789 173.982 157.859 174.087C157.929 174.18 158.045 174.227 158.208 174.227C158.337 174.227 158.447 174.204 158.54 174.157C158.634 174.11 158.721 174.058 158.803 174C158.884 173.942 158.954 173.889 159.012 173.843C159.082 173.796 159.158 173.773 159.239 173.773C159.321 173.773 159.397 173.819 159.466 173.912C159.536 174.006 159.571 174.221 159.571 174.559C159.571 175.199 159.397 175.706 159.047 176.079C158.698 176.452 158.098 176.638 157.248 176.638C156.409 176.638 155.786 176.446 155.378 176.061C154.982 175.665 154.784 175.066 154.784 174.262C154.784 174.087 154.79 173.883 154.801 173.65C154.825 173.406 154.854 173.091 154.889 172.707C154.924 172.322 154.965 171.851 155.011 171.292C155.069 170.733 155.128 170.04 155.186 169.213H154.26C154.167 169.213 154.108 169.195 154.085 169.16C154.074 169.114 154.068 169.049 154.068 168.968L154.12 168.077C154.132 167.925 154.149 167.78 154.173 167.64C154.207 167.489 154.266 167.355 154.347 167.238C154.44 167.122 154.569 167.029 154.732 166.959C154.895 166.889 155.11 166.854 155.378 166.854C155.46 166.644 155.553 166.394 155.658 166.103C155.762 165.811 155.867 165.532 155.972 165.264C156.077 164.984 156.176 164.751 156.269 164.565C156.374 164.379 156.467 164.286 156.549 164.286H157.055C157.545 164.286 157.882 164.437 158.069 164.74C158.255 165.043 158.348 165.404 158.348 165.823C158.348 166.056 158.331 166.4 158.296 166.854H160.13C160.317 166.854 160.41 166.935 160.41 167.098L160.34 168.042C160.317 168.391 160.218 168.677 160.043 168.898C159.88 169.108 159.536 169.213 159.012 169.213H158.086ZM165.225 176.638C164.712 176.638 164.2 176.574 163.687 176.446C163.186 176.318 162.732 176.096 162.324 175.782C161.928 175.467 161.602 175.048 161.346 174.524C161.09 174 160.962 173.342 160.962 172.55C160.962 172.258 160.985 171.909 161.032 171.501C161.078 171.094 161.165 170.674 161.294 170.243C161.433 169.812 161.62 169.387 161.853 168.968C162.097 168.537 162.412 168.153 162.796 167.815C163.181 167.477 163.646 167.203 164.194 166.994C164.741 166.784 165.394 166.679 166.151 166.679C166.756 166.679 167.269 166.749 167.688 166.889C168.108 167.029 168.445 167.221 168.702 167.465C168.958 167.698 169.144 167.972 169.261 168.287C169.377 168.601 169.435 168.939 169.435 169.3C169.435 169.836 169.325 170.29 169.103 170.663C168.894 171.035 168.614 171.35 168.265 171.606C167.927 171.851 167.548 172.043 167.129 172.183C166.71 172.322 166.296 172.433 165.889 172.515C165.481 172.585 165.102 172.631 164.753 172.654C164.415 172.666 164.153 172.672 163.967 172.672C163.967 172.893 163.996 173.115 164.054 173.336C164.124 173.545 164.223 173.732 164.351 173.895C164.479 174.058 164.648 174.192 164.858 174.297C165.067 174.402 165.324 174.454 165.627 174.454C165.929 174.454 166.162 174.407 166.325 174.314C166.5 174.209 166.64 174.099 166.745 173.982C166.85 173.854 166.937 173.744 167.007 173.65C167.088 173.545 167.193 173.493 167.321 173.493C167.38 173.493 167.479 173.511 167.618 173.545C167.77 173.569 167.921 173.627 168.073 173.72C168.224 173.813 168.358 173.942 168.474 174.105C168.591 174.268 168.649 174.477 168.649 174.734C168.649 175.071 168.544 175.363 168.335 175.607C168.125 175.852 167.851 176.05 167.513 176.201C167.187 176.353 166.82 176.463 166.413 176.533C166.005 176.603 165.609 176.638 165.225 176.638ZM165.557 169.003C165.3 169.003 165.079 169.079 164.893 169.23C164.718 169.37 164.567 169.55 164.438 169.772C164.322 169.993 164.229 170.238 164.159 170.505C164.101 170.773 164.054 171.03 164.019 171.274C164.741 171.263 165.324 171.14 165.766 170.907C166.221 170.674 166.448 170.342 166.448 169.911C166.448 169.678 166.372 169.469 166.221 169.282C166.081 169.096 165.86 169.003 165.557 169.003Z" fill="white"/>
</svg>
