<svg width="230" height="183" viewBox="0 0 230 183" fill="none" xmlns="http://www.w3.org/2000/svg">
<path d="M36.2259 21.3157C35.8353 20.9252 35.2022 20.9252 34.8116 21.3157L28.4477 27.6797C28.0572 28.0702 28.0572 28.7034 28.4477 29.0939C28.8382 29.4844 29.4714 29.4844 29.8619 29.0939L35.5188 23.437L41.1756 29.0939C41.5661 29.4844 42.1993 29.4844 42.5898 29.0939C42.9803 28.7034 42.9803 28.0702 42.5898 27.6797L36.2259 21.3157ZM21 57.5228C21.7778 57.5228 22.5247 57.4403 23.2406 57.2802L22.8041 55.3284C22.2356 55.4555 21.6353 55.5228 21 55.5228V57.5228ZM27.2754 55.3401C28.3896 54.4677 29.3644 53.3732 30.2179 52.1239L28.5664 50.9957C27.8043 52.1114 26.9642 53.0437 26.0425 53.7653L27.2754 55.3401ZM32.2556 48.3905C32.8002 47.1523 33.2783 45.8319 33.6976 44.4584L31.7847 43.8745C31.3845 45.1856 30.9327 46.4306 30.4249 47.5853L32.2556 48.3905ZM34.7369 40.4386C35.027 39.1035 35.2744 37.7415 35.484 36.3736L33.5071 36.0706C33.303 37.4025 33.0629 38.7237 32.7825 40.0139L34.7369 40.4386ZM36.0038 32.2842C36.1463 30.8959 36.2549 29.5214 36.3348 28.1825L34.3383 28.0633C34.26 29.3761 34.1536 30.7222 34.0142 32.08L36.0038 32.2842ZM36.4981 24.0733C36.5122 23.3698 36.5188 22.685 36.5188 22.0228H34.5188C34.5188 22.6718 34.5123 23.3433 34.4985 24.0332L36.4981 24.0733Z" fill="white"/>
<path d="M115.905 135.625L110.132 145.625H121.679L115.905 135.625ZM116.905 158.404V144.625H114.905V158.404H116.905Z" fill="white"/>
<rect x="44.2534" y="13.9989" width="2.34365" height="17.4684" transform="rotate(90 44.2534 13.9989)" fill="#F69F13"/>
<rect y="12.2412" width="11.7183" height="92" transform="rotate(-90 0 12.2412)" fill="#581616"/>
<rect y="147.001" width="11.7183" height="92" transform="rotate(-90 0 147.001)" fill="#797979"/>
<rect y="0.522827" width="11.6456" height="146.478" fill="#797979"/>
<rect width="11.7183" height="92" transform="matrix(0 -1 -1 0 230 12.2412)" fill="#581616"/>
<rect width="11.7183" height="92" transform="matrix(0 -1 -1 0 230 147.001)" fill="#797979"/>
<rect width="11.6456" height="146.478" transform="matrix(-1 0 0 1 230 0.522827)" fill="#797979"/>
<ellipse cx="18.3419" cy="56.4775" rx="3.78481" ry="3.80844" fill="white"/>
<path d="M71.0648 165.517C72.1928 165.517 73.0268 165.763 73.5668 166.255C74.1188 166.747 74.3948 167.389 74.3948 168.181C74.3948 168.853 74.2088 169.369 73.8368 169.729C73.4648 170.077 72.9308 170.251 72.2348 170.251C72.0188 170.251 71.8808 170.233 71.8208 170.197C71.7608 170.149 71.7308 170.059 71.7308 169.927C71.7308 169.807 71.7188 169.651 71.6948 169.459C71.6828 169.267 71.6408 169.081 71.5688 168.901C71.4968 168.721 71.3828 168.571 71.2268 168.451C71.0708 168.319 70.8548 168.253 70.5788 168.253C70.1948 168.253 69.8528 168.373 69.5528 168.613C69.2528 168.841 69.1028 169.141 69.1028 169.513C69.1028 169.837 69.2228 170.101 69.4628 170.305C69.7148 170.509 70.0268 170.701 70.3988 170.881C70.7708 171.049 71.1728 171.223 71.6048 171.403C72.0488 171.583 72.4568 171.823 72.8288 172.123C73.2008 172.411 73.5068 172.777 73.7468 173.221C73.9988 173.653 74.1248 174.205 74.1248 174.877C74.1248 175.405 74.0348 175.903 73.8548 176.371C73.6868 176.827 73.4288 177.229 73.0808 177.577C72.7448 177.913 72.3128 178.177 71.7848 178.369C71.2688 178.561 70.6628 178.657 69.9668 178.657C69.3668 178.657 68.8088 178.591 68.2928 178.459C67.7888 178.327 67.3448 178.165 66.9608 177.973C66.5888 177.769 66.2948 177.553 66.0788 177.325C65.8628 177.085 65.7548 176.869 65.7548 176.677C65.7548 175.885 65.7968 175.315 65.8808 174.967C65.9768 174.619 66.1448 174.445 66.3848 174.445C66.5528 174.445 66.7268 174.517 66.9068 174.661C67.0988 174.805 67.3148 174.967 67.5548 175.147C67.7948 175.327 68.0708 175.489 68.3828 175.633C68.7068 175.777 69.0788 175.849 69.4988 175.849C69.6668 175.849 69.8288 175.837 69.9848 175.813C70.1528 175.777 70.2968 175.723 70.4168 175.651C70.5488 175.579 70.6508 175.483 70.7228 175.363C70.8068 175.243 70.8488 175.099 70.8488 174.931C70.8488 174.631 70.7348 174.391 70.5068 174.211C70.2788 174.031 69.9908 173.869 69.6428 173.725C69.2948 173.569 68.9168 173.413 68.5088 173.257C68.1128 173.089 67.7408 172.867 67.3928 172.591C67.0448 172.303 66.7568 171.937 66.5288 171.493C66.3008 171.049 66.1868 170.479 66.1868 169.783C66.1868 169.003 66.3308 168.343 66.6188 167.803C66.9188 167.263 67.2968 166.825 67.7528 166.489C68.2208 166.141 68.7428 165.895 69.3188 165.751C69.9068 165.595 70.4888 165.517 71.0648 165.517ZM79.8311 178.657C79.3031 178.657 78.7751 178.591 78.2471 178.459C77.7311 178.327 77.2631 178.099 76.8431 177.775C76.4351 177.451 76.0991 177.019 75.8351 176.479C75.5711 175.939 75.4391 175.261 75.4391 174.445C75.4391 174.145 75.4631 173.785 75.5111 173.365C75.5591 172.945 75.6491 172.513 75.7811 172.069C75.9251 171.625 76.1171 171.187 76.3571 170.755C76.6091 170.311 76.9331 169.915 77.3291 169.567C77.7251 169.219 78.2051 168.937 78.7691 168.721C79.3331 168.505 80.0051 168.397 80.7851 168.397C81.4091 168.397 81.9371 168.469 82.3691 168.613C82.8011 168.757 83.1491 168.955 83.4131 169.207C83.6771 169.447 83.8691 169.729 83.9891 170.053C84.1091 170.377 84.1691 170.725 84.1691 171.097C84.1691 171.649 84.0551 172.117 83.8271 172.501C83.6111 172.885 83.3231 173.209 82.9631 173.473C82.6151 173.725 82.2251 173.923 81.7931 174.067C81.3611 174.211 80.9351 174.325 80.5151 174.409C80.0951 174.481 79.7051 174.529 79.3451 174.553C78.9971 174.565 78.7271 174.571 78.5351 174.571C78.5351 174.799 78.5651 175.027 78.6251 175.255C78.6971 175.471 78.7991 175.663 78.9311 175.831C79.0631 175.999 79.2371 176.137 79.4531 176.245C79.6691 176.353 79.9331 176.407 80.2451 176.407C80.5571 176.407 80.7971 176.359 80.9651 176.263C81.1451 176.155 81.2891 176.041 81.3971 175.921C81.5051 175.789 81.5951 175.675 81.6671 175.579C81.7511 175.471 81.8591 175.417 81.9911 175.417C82.0511 175.417 82.1531 175.435 82.2971 175.471C82.4531 175.495 82.6091 175.555 82.7651 175.651C82.9211 175.747 83.0591 175.879 83.1791 176.047C83.2991 176.215 83.3591 176.431 83.3591 176.695C83.3591 177.043 83.2511 177.343 83.0351 177.595C82.8191 177.847 82.5371 178.051 82.1891 178.207C81.8531 178.363 81.4751 178.477 81.0551 178.549C80.6351 178.621 80.2271 178.657 79.8311 178.657ZM80.1731 170.791C79.9091 170.791 79.6811 170.869 79.4891 171.025C79.3091 171.169 79.1531 171.355 79.0211 171.583C78.9011 171.811 78.8051 172.063 78.7331 172.339C78.6731 172.615 78.6251 172.879 78.5891 173.131C79.3331 173.119 79.9331 172.993 80.3891 172.753C80.8571 172.513 81.0911 172.171 81.0911 171.727C81.0911 171.487 81.0131 171.271 80.8571 171.079C80.7131 170.887 80.4851 170.791 80.1731 170.791ZM91.3911 176.893C91.3911 176.629 91.4091 176.287 91.4451 175.867C91.4931 175.435 91.5351 174.985 91.5711 174.517C91.6191 174.037 91.6611 173.575 91.6971 173.131C91.7451 172.687 91.7691 172.315 91.7691 172.015C91.7691 171.703 91.6911 171.427 91.5351 171.187C91.3911 170.935 91.1031 170.809 90.6711 170.809C90.2511 170.809 89.9031 170.911 89.6271 171.115C89.3511 171.319 89.1171 171.691 88.9251 172.231C88.7451 172.771 88.5951 173.515 88.4751 174.463C88.3551 175.411 88.2411 176.629 88.1331 178.117C88.1211 178.261 88.0911 178.357 88.0431 178.405C87.9951 178.453 87.8931 178.477 87.7371 178.477H87.0891C86.7171 178.477 86.4111 178.441 86.1711 178.369C85.9431 178.285 85.7571 178.171 85.6131 178.027C85.4811 177.883 85.3851 177.709 85.3251 177.505C85.2771 177.289 85.2531 177.043 85.2531 176.767C85.2531 176.587 85.2591 176.335 85.2711 176.011C85.2951 175.675 85.3311 175.219 85.3791 174.643C85.4271 174.055 85.4811 173.317 85.5411 172.429C85.6131 171.529 85.6971 170.419 85.7931 169.099C85.8051 168.835 85.8351 168.679 85.8831 168.631C85.9191 168.595 86.0151 168.577 86.1711 168.577H86.8731C87.2331 168.577 87.5271 168.619 87.7551 168.703C87.9951 168.787 88.1871 168.901 88.3311 169.045C88.4751 169.177 88.5771 169.339 88.6371 169.531C88.6971 169.711 88.7331 169.897 88.7451 170.089C89.1171 169.453 89.5431 169.015 90.0231 168.775C90.5031 168.523 91.1031 168.397 91.8231 168.397C92.3271 168.397 92.7651 168.451 93.1371 168.559C93.5091 168.667 93.8151 168.853 94.0551 169.117C94.3071 169.369 94.4931 169.705 94.6131 170.125C94.7331 170.533 94.7931 171.043 94.7931 171.655C94.7931 171.847 94.7811 172.123 94.7571 172.483C94.7331 172.843 94.7031 173.239 94.6671 173.671C94.6311 174.091 94.5891 174.535 94.5411 175.003C94.5051 175.459 94.4691 175.885 94.4331 176.281C94.3971 176.677 94.3671 177.025 94.3431 177.325C94.3191 177.625 94.3071 177.823 94.3071 177.919C94.3071 178.183 94.2771 178.345 94.2171 178.405C94.1571 178.453 94.0251 178.477 93.8211 178.477H93.2451C92.8611 178.477 92.5491 178.441 92.3091 178.369C92.0691 178.297 91.8831 178.195 91.7511 178.063C91.6191 177.931 91.5231 177.769 91.4631 177.577C91.4151 177.373 91.3911 177.145 91.3911 176.893ZM100.592 168.397C101.612 168.397 102.362 168.601 102.842 169.009C103.322 169.405 103.562 169.915 103.562 170.539C103.562 171.067 103.394 171.469 103.058 171.745C102.734 172.021 102.26 172.159 101.636 172.159C101.468 172.159 101.354 172.141 101.294 172.105C101.234 172.069 101.204 172.003 101.204 171.907C101.204 171.799 101.192 171.679 101.168 171.547C101.156 171.403 101.114 171.271 101.042 171.151C100.982 171.019 100.88 170.911 100.736 170.827C100.604 170.743 100.412 170.701 100.16 170.701C99.8237 170.701 99.5537 170.785 99.3497 170.953C99.1457 171.109 99.0437 171.307 99.0437 171.547C99.0437 171.799 99.1457 172.003 99.3497 172.159C99.5657 172.303 99.8297 172.441 100.142 172.573C100.466 172.705 100.814 172.843 101.186 172.987C101.558 173.119 101.9 173.299 102.212 173.527C102.536 173.755 102.8 174.043 103.004 174.391C103.22 174.727 103.328 175.165 103.328 175.705C103.328 176.569 103.022 177.277 102.41 177.829C101.798 178.381 100.88 178.657 99.6557 178.657C99.3197 178.657 98.9297 178.627 98.4857 178.567C98.0537 178.519 97.6397 178.441 97.2437 178.333C96.8477 178.213 96.5117 178.057 96.2357 177.865C95.9717 177.673 95.8397 177.433 95.8397 177.145C95.8397 177.037 95.8577 176.905 95.8937 176.749C95.9417 176.593 96.0077 176.443 96.0917 176.299C96.1877 176.155 96.2957 176.035 96.4157 175.939C96.5477 175.831 96.7037 175.777 96.8837 175.777C97.0277 175.777 97.1597 175.813 97.2797 175.885C97.3997 175.957 97.5377 176.035 97.6937 176.119C97.8617 176.191 98.0657 176.263 98.3057 176.335C98.5457 176.407 98.8637 176.443 99.2597 176.443C99.5597 176.443 99.8237 176.407 100.052 176.335C100.292 176.263 100.412 176.101 100.412 175.849C100.412 175.621 100.316 175.441 100.124 175.309C99.9317 175.165 99.6857 175.033 99.3857 174.913C99.0977 174.793 98.7797 174.667 98.4317 174.535C98.0957 174.391 97.7777 174.205 97.4777 173.977C97.1897 173.749 96.9497 173.461 96.7577 173.113C96.5657 172.753 96.4697 172.291 96.4697 171.727C96.4697 171.115 96.5897 170.599 96.8297 170.179C97.0817 169.747 97.3997 169.399 97.7837 169.135C98.1797 168.871 98.6237 168.685 99.1157 168.577C99.6077 168.457 100.1 168.397 100.592 168.397ZM112.014 178.657C111.546 178.657 111.096 178.573 110.664 178.405C110.244 178.237 109.872 177.973 109.548 177.613C109.236 177.253 108.984 176.797 108.792 176.245C108.612 175.693 108.522 175.027 108.522 174.247C108.522 173.899 108.546 173.515 108.594 173.095C108.642 172.663 108.726 172.231 108.846 171.799C108.966 171.367 109.134 170.947 109.35 170.539C109.566 170.131 109.836 169.771 110.16 169.459C110.496 169.135 110.892 168.877 111.348 168.685C111.816 168.493 112.362 168.397 112.986 168.397C113.586 168.397 114.066 168.505 114.426 168.721C114.798 168.925 115.032 169.285 115.128 169.801C115.152 169.333 115.176 168.925 115.2 168.577C115.224 168.229 115.242 167.905 115.254 167.605C115.278 167.305 115.302 167.005 115.326 166.705C115.35 166.405 115.374 166.063 115.398 165.679C115.41 165.415 115.44 165.259 115.488 165.211C115.512 165.187 115.542 165.175 115.578 165.175C115.614 165.163 115.68 165.157 115.776 165.157H116.478C116.838 165.157 117.138 165.199 117.378 165.283C117.618 165.367 117.81 165.481 117.954 165.625C118.098 165.769 118.2 165.937 118.26 166.129C118.32 166.309 118.35 166.501 118.35 166.705C118.35 166.705 118.338 166.855 118.314 167.155C118.29 167.455 118.26 167.857 118.224 168.361C118.188 168.853 118.146 169.417 118.098 170.053C118.05 170.689 118.002 171.349 117.954 172.033C117.906 172.705 117.858 173.377 117.81 174.049C117.762 174.709 117.714 175.321 117.666 175.885C117.618 176.437 117.576 176.917 117.54 177.325C117.516 177.721 117.498 177.985 117.486 178.117C117.462 178.261 117.432 178.357 117.396 178.405C117.36 178.453 117.258 178.477 117.09 178.477H116.442C116.19 178.477 115.95 178.459 115.722 178.423C115.506 178.375 115.314 178.303 115.146 178.207C114.99 178.099 114.864 177.961 114.768 177.793C114.684 177.613 114.642 177.385 114.642 177.109C114.426 177.565 114.096 177.937 113.652 178.225C113.22 178.513 112.674 178.657 112.014 178.657ZM113.58 170.791C112.968 170.791 112.512 171.061 112.212 171.601C111.924 172.129 111.78 172.843 111.78 173.743C111.78 174.055 111.798 174.361 111.834 174.661C111.882 174.961 111.96 175.231 112.068 175.471C112.176 175.711 112.32 175.903 112.5 176.047C112.692 176.191 112.932 176.263 113.22 176.263C113.736 176.263 114.168 176.011 114.516 175.507C114.864 175.003 115.038 174.211 115.038 173.131C115.038 172.831 115.02 172.543 114.984 172.267C114.948 171.979 114.876 171.727 114.768 171.511C114.66 171.295 114.51 171.121 114.318 170.989C114.126 170.857 113.88 170.791 113.58 170.791ZM123.829 178.657C123.301 178.657 122.773 178.591 122.245 178.459C121.729 178.327 121.261 178.099 120.841 177.775C120.433 177.451 120.097 177.019 119.833 176.479C119.569 175.939 119.437 175.261 119.437 174.445C119.437 174.145 119.461 173.785 119.509 173.365C119.557 172.945 119.647 172.513 119.779 172.069C119.923 171.625 120.115 171.187 120.355 170.755C120.607 170.311 120.931 169.915 121.327 169.567C121.723 169.219 122.203 168.937 122.767 168.721C123.331 168.505 124.003 168.397 124.783 168.397C125.407 168.397 125.935 168.469 126.367 168.613C126.799 168.757 127.147 168.955 127.411 169.207C127.675 169.447 127.867 169.729 127.987 170.053C128.107 170.377 128.167 170.725 128.167 171.097C128.167 171.649 128.053 172.117 127.825 172.501C127.609 172.885 127.321 173.209 126.961 173.473C126.613 173.725 126.223 173.923 125.791 174.067C125.359 174.211 124.933 174.325 124.513 174.409C124.093 174.481 123.703 174.529 123.343 174.553C122.995 174.565 122.725 174.571 122.533 174.571C122.533 174.799 122.563 175.027 122.623 175.255C122.695 175.471 122.797 175.663 122.929 175.831C123.061 175.999 123.235 176.137 123.451 176.245C123.667 176.353 123.931 176.407 124.243 176.407C124.555 176.407 124.795 176.359 124.963 176.263C125.143 176.155 125.287 176.041 125.395 175.921C125.503 175.789 125.593 175.675 125.665 175.579C125.749 175.471 125.857 175.417 125.989 175.417C126.049 175.417 126.151 175.435 126.295 175.471C126.451 175.495 126.607 175.555 126.763 175.651C126.919 175.747 127.057 175.879 127.177 176.047C127.297 176.215 127.357 176.431 127.357 176.695C127.357 177.043 127.249 177.343 127.033 177.595C126.817 177.847 126.535 178.051 126.187 178.207C125.851 178.363 125.473 178.477 125.053 178.549C124.633 178.621 124.225 178.657 123.829 178.657ZM124.171 170.791C123.907 170.791 123.679 170.869 123.487 171.025C123.307 171.169 123.151 171.355 123.019 171.583C122.899 171.811 122.803 172.063 122.731 172.339C122.671 172.615 122.623 172.879 122.587 173.131C123.331 173.119 123.931 172.993 124.387 172.753C124.855 172.513 125.089 172.171 125.089 171.727C125.089 171.487 125.011 171.271 124.855 171.079C124.711 170.887 124.483 170.791 124.171 170.791ZM136.818 176.191C136.962 175.687 137.094 175.189 137.214 174.697C137.346 174.205 137.472 173.683 137.592 173.131C137.724 172.567 137.862 171.955 138.006 171.295C138.162 170.623 138.342 169.861 138.546 169.009C138.582 168.841 138.636 168.733 138.708 168.685C138.78 168.625 138.936 168.595 139.176 168.595C139.356 168.595 139.596 168.601 139.896 168.613C140.196 168.625 140.49 168.667 140.778 168.739C141.066 168.811 141.312 168.919 141.516 169.063C141.732 169.207 141.84 169.405 141.84 169.657C141.84 169.861 141.768 170.191 141.624 170.647C141.48 171.103 141.294 171.625 141.066 172.213C140.838 172.789 140.58 173.395 140.292 174.031C140.016 174.667 139.746 175.267 139.482 175.831C139.218 176.395 138.972 176.893 138.744 177.325C138.516 177.745 138.348 178.039 138.24 178.207C138.144 178.339 138.06 178.417 137.988 178.441C137.916 178.465 137.796 178.477 137.628 178.477H136.026C135.774 178.477 135.564 178.435 135.396 178.351C135.24 178.255 135.108 178.135 135 177.991C134.892 177.847 134.802 177.685 134.73 177.505C134.658 177.313 134.592 177.115 134.532 176.911C134.184 175.711 133.878 174.685 133.614 173.833C133.362 172.969 133.146 172.249 132.966 171.673C132.786 171.097 132.642 170.641 132.534 170.305C132.426 169.957 132.342 169.693 132.282 169.513C132.222 169.321 132.18 169.195 132.156 169.135C132.132 169.063 132.12 169.015 132.12 168.991C132.132 168.907 132.192 168.817 132.3 168.721C132.408 168.625 132.546 168.577 132.714 168.577C133.266 168.577 133.734 168.601 134.118 168.649C134.514 168.685 134.838 168.757 135.09 168.865C135.354 168.973 135.552 169.123 135.684 169.315C135.828 169.507 135.93 169.759 135.99 170.071C136.002 170.155 136.026 170.323 136.062 170.575C136.098 170.827 136.134 171.133 136.17 171.493C136.218 171.841 136.272 172.231 136.332 172.663C136.392 173.083 136.446 173.509 136.494 173.941C136.554 174.361 136.608 174.769 136.656 175.165C136.716 175.561 136.77 175.903 136.818 176.191ZM144.623 178.477C144.251 178.477 143.945 178.441 143.705 178.369C143.477 178.285 143.291 178.171 143.147 178.027C143.015 177.883 142.919 177.709 142.859 177.505C142.811 177.289 142.787 177.043 142.787 176.767C142.787 176.587 142.793 176.335 142.805 176.011C142.829 175.675 142.865 175.219 142.913 174.643C142.961 174.055 143.015 173.317 143.075 172.429C143.147 171.529 143.231 170.419 143.327 169.099C143.339 168.835 143.369 168.679 143.417 168.631C143.453 168.595 143.549 168.577 143.705 168.577H144.407C144.779 168.577 145.079 168.613 145.307 168.685C145.547 168.757 145.733 168.865 145.865 169.009C146.009 169.153 146.105 169.327 146.153 169.531C146.213 169.735 146.243 169.963 146.243 170.215C146.243 170.395 146.231 170.665 146.207 171.025C146.183 171.385 146.147 171.877 146.099 172.501C146.063 173.113 146.009 173.881 145.937 174.805C145.865 175.717 145.775 176.821 145.667 178.117C145.655 178.261 145.625 178.357 145.577 178.405C145.529 178.453 145.427 178.477 145.271 178.477H144.623ZM143.345 166.453C143.345 165.973 143.519 165.595 143.867 165.319C144.215 165.043 144.683 164.905 145.271 164.905C145.787 164.905 146.159 165.013 146.387 165.229C146.627 165.433 146.747 165.709 146.747 166.057C146.747 166.501 146.579 166.873 146.243 167.173C145.919 167.461 145.439 167.605 144.803 167.605C143.831 167.605 143.345 167.221 143.345 166.453ZM152.025 168.397C153.045 168.397 153.795 168.601 154.275 169.009C154.755 169.405 154.995 169.915 154.995 170.539C154.995 171.067 154.827 171.469 154.491 171.745C154.167 172.021 153.693 172.159 153.069 172.159C152.901 172.159 152.787 172.141 152.727 172.105C152.667 172.069 152.637 172.003 152.637 171.907C152.637 171.799 152.625 171.679 152.601 171.547C152.589 171.403 152.547 171.271 152.475 171.151C152.415 171.019 152.313 170.911 152.169 170.827C152.037 170.743 151.845 170.701 151.593 170.701C151.257 170.701 150.987 170.785 150.783 170.953C150.579 171.109 150.477 171.307 150.477 171.547C150.477 171.799 150.579 172.003 150.783 172.159C150.999 172.303 151.263 172.441 151.575 172.573C151.899 172.705 152.247 172.843 152.619 172.987C152.991 173.119 153.333 173.299 153.645 173.527C153.969 173.755 154.233 174.043 154.437 174.391C154.653 174.727 154.761 175.165 154.761 175.705C154.761 176.569 154.455 177.277 153.843 177.829C153.231 178.381 152.313 178.657 151.089 178.657C150.753 178.657 150.363 178.627 149.919 178.567C149.487 178.519 149.073 178.441 148.677 178.333C148.281 178.213 147.945 178.057 147.669 177.865C147.405 177.673 147.273 177.433 147.273 177.145C147.273 177.037 147.291 176.905 147.327 176.749C147.375 176.593 147.441 176.443 147.525 176.299C147.621 176.155 147.729 176.035 147.849 175.939C147.981 175.831 148.137 175.777 148.317 175.777C148.461 175.777 148.593 175.813 148.713 175.885C148.833 175.957 148.971 176.035 149.127 176.119C149.295 176.191 149.499 176.263 149.739 176.335C149.979 176.407 150.297 176.443 150.693 176.443C150.993 176.443 151.257 176.407 151.485 176.335C151.725 176.263 151.845 176.101 151.845 175.849C151.845 175.621 151.749 175.441 151.557 175.309C151.365 175.165 151.119 175.033 150.819 174.913C150.531 174.793 150.213 174.667 149.865 174.535C149.529 174.391 149.211 174.205 148.911 173.977C148.623 173.749 148.383 173.461 148.191 173.113C147.999 172.753 147.903 172.291 147.903 171.727C147.903 171.115 148.023 170.599 148.263 170.179C148.515 169.747 148.833 169.399 149.217 169.135C149.613 168.871 150.057 168.685 150.549 168.577C151.041 168.457 151.533 168.397 152.025 168.397ZM158.14 178.477C157.768 178.477 157.462 178.441 157.222 178.369C156.994 178.285 156.808 178.171 156.664 178.027C156.532 177.883 156.436 177.709 156.376 177.505C156.328 177.289 156.304 177.043 156.304 176.767C156.304 176.587 156.31 176.335 156.322 176.011C156.346 175.675 156.382 175.219 156.43 174.643C156.478 174.055 156.532 173.317 156.592 172.429C156.664 171.529 156.748 170.419 156.844 169.099C156.856 168.835 156.886 168.679 156.934 168.631C156.97 168.595 157.066 168.577 157.222 168.577H157.924C158.296 168.577 158.596 168.613 158.824 168.685C159.064 168.757 159.25 168.865 159.382 169.009C159.526 169.153 159.622 169.327 159.67 169.531C159.73 169.735 159.76 169.963 159.76 170.215C159.76 170.395 159.748 170.665 159.724 171.025C159.7 171.385 159.664 171.877 159.616 172.501C159.58 173.113 159.526 173.881 159.454 174.805C159.382 175.717 159.292 176.821 159.184 178.117C159.172 178.261 159.142 178.357 159.094 178.405C159.046 178.453 158.944 178.477 158.788 178.477H158.14ZM156.862 166.453C156.862 165.973 157.036 165.595 157.384 165.319C157.732 165.043 158.2 164.905 158.788 164.905C159.304 164.905 159.676 165.013 159.904 165.229C160.144 165.433 160.264 165.709 160.264 166.057C160.264 166.501 160.096 166.873 159.76 167.173C159.436 167.461 158.956 167.605 158.32 167.605C157.348 167.605 156.862 167.221 156.862 166.453ZM165.219 171.007C165.183 171.463 165.141 171.913 165.093 172.357C165.057 172.801 165.021 173.221 164.985 173.617C164.949 174.013 164.919 174.367 164.895 174.679C164.883 174.991 164.877 175.231 164.877 175.399C164.877 175.711 164.913 175.921 164.985 176.029C165.057 176.125 165.177 176.173 165.345 176.173C165.477 176.173 165.591 176.149 165.687 176.101C165.783 176.053 165.873 175.999 165.957 175.939C166.041 175.879 166.113 175.825 166.173 175.777C166.245 175.729 166.323 175.705 166.407 175.705C166.491 175.705 166.569 175.753 166.641 175.849C166.713 175.945 166.749 176.167 166.749 176.515C166.749 177.175 166.569 177.697 166.209 178.081C165.849 178.465 165.231 178.657 164.355 178.657C163.491 178.657 162.849 178.459 162.429 178.063C162.021 177.655 161.817 177.037 161.817 176.209C161.817 176.029 161.823 175.819 161.835 175.579C161.859 175.327 161.889 175.003 161.925 174.607C161.961 174.211 162.003 173.725 162.051 173.149C162.111 172.573 162.171 171.859 162.231 171.007H161.277C161.181 171.007 161.121 170.989 161.097 170.953C161.085 170.905 161.079 170.839 161.079 170.755L161.133 169.837C161.145 169.681 161.163 169.531 161.187 169.387C161.223 169.231 161.283 169.093 161.367 168.973C161.463 168.853 161.595 168.757 161.763 168.685C161.931 168.613 162.153 168.577 162.429 168.577C162.513 168.361 162.609 168.103 162.717 167.803C162.825 167.503 162.933 167.215 163.041 166.939C163.149 166.651 163.251 166.411 163.347 166.219C163.455 166.027 163.551 165.931 163.635 165.931H164.157C164.661 165.931 165.009 166.087 165.201 166.399C165.393 166.711 165.489 167.083 165.489 167.515C165.489 167.755 165.471 168.109 165.435 168.577H167.325C167.517 168.577 167.613 168.661 167.613 168.829L167.541 169.801C167.517 170.161 167.415 170.455 167.235 170.683C167.067 170.899 166.713 171.007 166.173 171.007H165.219ZM172.573 178.657C172.045 178.657 171.517 178.591 170.989 178.459C170.473 178.327 170.005 178.099 169.585 177.775C169.177 177.451 168.841 177.019 168.577 176.479C168.313 175.939 168.181 175.261 168.181 174.445C168.181 174.145 168.205 173.785 168.253 173.365C168.301 172.945 168.391 172.513 168.523 172.069C168.667 171.625 168.859 171.187 169.099 170.755C169.351 170.311 169.675 169.915 170.071 169.567C170.467 169.219 170.947 168.937 171.511 168.721C172.075 168.505 172.747 168.397 173.527 168.397C174.151 168.397 174.679 168.469 175.111 168.613C175.543 168.757 175.891 168.955 176.155 169.207C176.419 169.447 176.611 169.729 176.731 170.053C176.851 170.377 176.911 170.725 176.911 171.097C176.911 171.649 176.797 172.117 176.569 172.501C176.353 172.885 176.065 173.209 175.705 173.473C175.357 173.725 174.967 173.923 174.535 174.067C174.103 174.211 173.677 174.325 173.257 174.409C172.837 174.481 172.447 174.529 172.087 174.553C171.739 174.565 171.469 174.571 171.277 174.571C171.277 174.799 171.307 175.027 171.367 175.255C171.439 175.471 171.541 175.663 171.673 175.831C171.805 175.999 171.979 176.137 172.195 176.245C172.411 176.353 172.675 176.407 172.987 176.407C173.299 176.407 173.539 176.359 173.707 176.263C173.887 176.155 174.031 176.041 174.139 175.921C174.247 175.789 174.337 175.675 174.409 175.579C174.493 175.471 174.601 175.417 174.733 175.417C174.793 175.417 174.895 175.435 175.039 175.471C175.195 175.495 175.351 175.555 175.507 175.651C175.663 175.747 175.801 175.879 175.921 176.047C176.041 176.215 176.101 176.431 176.101 176.695C176.101 177.043 175.993 177.343 175.777 177.595C175.561 177.847 175.279 178.051 174.931 178.207C174.595 178.363 174.217 178.477 173.797 178.549C173.377 178.621 172.969 178.657 172.573 178.657ZM172.915 170.791C172.651 170.791 172.423 170.869 172.231 171.025C172.051 171.169 171.895 171.355 171.763 171.583C171.643 171.811 171.547 172.063 171.475 172.339C171.415 172.615 171.367 172.879 171.331 173.131C172.075 173.119 172.675 172.993 173.131 172.753C173.599 172.513 173.833 172.171 173.833 171.727C173.833 171.487 173.755 171.271 173.599 171.079C173.455 170.887 173.227 170.791 172.915 170.791Z" fill="white"/>
</svg>
